<mxfile host="Electron" modified="2024-05-16T10:43:20.424Z" agent="Mozilla/5.0 (Macintosh; Intel Mac OS X 10_15_7) AppleWebKit/537.36 (KHTML, like Gecko) draw.io/24.1.0 Chrome/120.0.6099.109 Electron/28.1.0 Safari/537.36" etag="16dS-_ixYD1aFKl5cDCy" version="24.1.0" type="device" pages="2">
  <diagram id="t-Z0SRowwFCmBsI6Bgb4" name="MODUL">
    <mxGraphModel dx="1064" dy="817" grid="1" gridSize="5" guides="0" tooltips="1" connect="1" arrows="1" fold="1" page="1" pageScale="1" pageWidth="500" pageHeight="800" math="0" shadow="0">
      <root>
        <mxCell id="0" />
        <mxCell id="1" parent="0" />
        <mxCell id="Od2xyeDZNFMy8rJUlkuD-2" style="edgeStyle=orthogonalEdgeStyle;rounded=0;orthogonalLoop=1;jettySize=auto;html=1;" parent="1" edge="1">
          <mxGeometry relative="1" as="geometry">
            <mxPoint x="155" y="60" as="sourcePoint" />
            <mxPoint x="160" y="98" as="targetPoint" />
          </mxGeometry>
        </mxCell>
        <mxCell id="qlFABHtY3BNrbwlunKys-3" value="Nom&lt;div&gt;MÒDUL&lt;/div&gt;" style="rounded=1;whiteSpace=wrap;html=1;labelBackgroundColor=none;fontSize=12;fillColor=#FFB366;" parent="1" vertex="1">
          <mxGeometry x="101" y="20" width="125" height="40" as="geometry" />
        </mxCell>
        <mxCell id="Od2xyeDZNFMy8rJUlkuD-1" style="edgeStyle=orthogonalEdgeStyle;rounded=0;orthogonalLoop=1;jettySize=auto;html=1;" parent="1" source="qlFABHtY3BNrbwlunKys-4" target="vA3W7HZtaYMSZ5agueSb-4" edge="1">
          <mxGeometry relative="1" as="geometry" />
        </mxCell>
        <mxCell id="qlFABHtY3BNrbwlunKys-4" value="SA1" style="rounded=0;whiteSpace=wrap;html=1;perimeterSpacing=2;labelBackgroundColor=none;fontSize=12;" parent="1" vertex="1">
          <mxGeometry x="93" y="100" width="140" height="50" as="geometry" />
        </mxCell>
        <mxCell id="qlFABHtY3BNrbwlunKys-31" value="&lt;b&gt;Orientacions Pedagògiques&lt;/b&gt;&lt;div&gt;&lt;b&gt;&lt;br&gt;&lt;/b&gt;&lt;div&gt;&lt;span style=&quot;background-color: initial; font-size: 10px;&quot;&gt;Este mòdul professional conté la formació necessària per a exercir la&amp;nbsp;&lt;/span&gt;&lt;span style=&quot;background-color: initial; font-size: 10px;&quot;&gt;funció de .......&lt;/span&gt;&lt;br&gt;&lt;/div&gt;&lt;/div&gt;" style="rounded=1;whiteSpace=wrap;html=1;" parent="1" vertex="1">
          <mxGeometry x="280" y="15" width="200" height="75" as="geometry" />
        </mxCell>
        <mxCell id="Ev17vHD7dKAge2SAA6QZ-1" value="" style="edgeStyle=orthogonalEdgeStyle;rounded=0;orthogonalLoop=1;jettySize=auto;html=1;" parent="1" source="vA3W7HZtaYMSZ5agueSb-4" target="vA3W7HZtaYMSZ5agueSb-18" edge="1">
          <mxGeometry relative="1" as="geometry" />
        </mxCell>
        <mxCell id="Ev17vHD7dKAge2SAA6QZ-5" style="edgeStyle=orthogonalEdgeStyle;rounded=0;orthogonalLoop=1;jettySize=auto;html=1;entryX=0;entryY=0.5;entryDx=0;entryDy=0;" parent="1" source="vA3W7HZtaYMSZ5agueSb-4" target="Ev17vHD7dKAge2SAA6QZ-4" edge="1">
          <mxGeometry relative="1" as="geometry" />
        </mxCell>
        <mxCell id="Od2xyeDZNFMy8rJUlkuD-3" style="edgeStyle=orthogonalEdgeStyle;rounded=0;orthogonalLoop=1;jettySize=auto;html=1;" parent="1" source="vA3W7HZtaYMSZ5agueSb-4" edge="1">
          <mxGeometry relative="1" as="geometry">
            <mxPoint x="163" y="305" as="targetPoint" />
          </mxGeometry>
        </mxCell>
        <mxCell id="vA3W7HZtaYMSZ5agueSb-4" value="SA2" style="rounded=0;whiteSpace=wrap;html=1;perimeterSpacing=2;labelBackgroundColor=none;fontSize=12;" parent="1" vertex="1">
          <mxGeometry x="93" y="190" width="140" height="50" as="geometry" />
        </mxCell>
        <mxCell id="vA3W7HZtaYMSZ5agueSb-18" value="SA4" style="rounded=0;whiteSpace=wrap;html=1;labelBackgroundColor=none;fontSize=12;" parent="1" vertex="1">
          <mxGeometry x="335" y="230" width="140" height="50" as="geometry" />
        </mxCell>
        <mxCell id="Ev17vHD7dKAge2SAA6QZ-4" value="SA3" style="rounded=0;whiteSpace=wrap;html=1;labelBackgroundColor=none;fontSize=12;" parent="1" vertex="1">
          <mxGeometry x="335" y="150" width="140" height="50" as="geometry" />
        </mxCell>
        <mxCell id="1WAw7KytzHLhKgm7WyX4-1" value="&lt;div&gt;&lt;div&gt;&lt;b&gt;MOLT IMPORTANT:&amp;nbsp;&amp;nbsp;&lt;/b&gt;&lt;/div&gt;&lt;div&gt;&lt;b&gt;&lt;br&gt;&lt;/b&gt;&lt;/div&gt;&lt;div&gt;&lt;b&gt;EL DIAGRAMA HA DE CABER EN AQUESTA PÀGINA O NO ES PODRÀ PUJAR&lt;/b&gt;&lt;/div&gt;&lt;/div&gt;" style="rounded=1;whiteSpace=wrap;html=1;fillColor=#FF0000;" parent="1" vertex="1">
          <mxGeometry x="135" y="455" width="200" height="110" as="geometry" />
        </mxCell>
      </root>
    </mxGraphModel>
  </diagram>
  <diagram id="ENnZSE7tLoP_6CpLfF-P" name="EXPORTAR PNG">
    <mxGraphModel dx="745" dy="572" grid="1" gridSize="10" guides="1" tooltips="1" connect="1" arrows="1" fold="1" page="1" pageScale="1" pageWidth="500" pageHeight="800" math="0" shadow="0">
      <root>
        <mxCell id="0" />
        <mxCell id="1" parent="0" />
        <mxCell id="AY_vWPn0ObJrJ9_MkCqx-1" value="" style="shape=image;verticalLabelPosition=bottom;labelBackgroundColor=default;verticalAlign=top;aspect=fixed;imageAspect=0;image=data:image/png,iVBORw0KGgoAAAANSUhEUgAAA0IAAAMqCAYAAACv+fFDAAAMP2lDQ1BJQ0MgUHJvZmlsZQAASImVVwdYU8kWnluSkEBoAQSkhN4EESkBpITQAkjvNkISIJQYA0HEji4quHYRARu6KqLYaXbEzqLY+6KIgrIuFuzKmxTQdV/53nzf3PnvP2f+c+bcmXvvAKB2kiMSZaPqAOQI88TRQX70xKRkOqkH4IAEtAAROHK4uSJmZGQYgGWo/Xt5dxMg0vaavVTrn/3/tWjw+LlcAJBIiFN5udwciA8BgFdxReI8AIhS3mx6nkiKYQVaYhggxIulOF2Oq6Q4VY73yWxio1kQtwKgpMLhiNMBUL0CeXo+Nx1qqPZD7CjkCYQAqNEh9s7JmcqDOAVia2gjgliqz0j9QSf9b5qpw5ocTvowls9FVpT8BbmibM6M/zMd/7vkZEuGfFjCqpIhDo6Wzhnm7XbW1FApVoG4T5gaHgGxJsQfBDyZPcQoJUMSHCe3Rw24uSyYM6ADsSOP4x8KsQHEgcLs8DAFn5omCGRDDFcIWiDIY8dCrAvxYn5uQIzCZrN4arTCF1qfJmYxFfx5jljmV+rroSQrjqnQf53BZyv0MdXCjNgEiCkQm+cL4sMhVoXYITcrJlRhM64wgxU+ZCOWREvjN4c4mi8M8pPrY/lp4sBohX1JTu7QfLHNGQJ2uAIfyMuIDZbnB2vlcmTxw7lgV/hCZtyQDj83MWxoLjy+f4B87lgPXxgXo9D5IMrzi5aPxSmi7EiFPW7Kzw6S8qYQO+fmxyjG4vF5cEHK9fE0UV5krDxOvDCTExIpjwdfAcIAC/gDOpDAmgqmgkwgaO9r6IN38p5AwAFikA74wF7BDI1IkPUI4TUGFII/IeKD3OFxfrJePsiH/NdhVn61B2my3nzZiCzwFOIcEAqy4b1ENko47C0ePIGM4B/eObByYbzZsEr7/z0/xH5nmJAJUzCSIY90tSFLYgDRnxhMDCTa4Pq4N+6Jh8GrL6xOOAN3H5rHd3vCU0IH4THhBqGTcGeKoEj8U5TjQSfUD1TkIvXHXOCWUNMF98O9oDpUxnVwfWCPO0M/TNwHenaBLEsRtzQr9J+0/zaDH56Gwo7sSEbJI8i+ZOufR6raqroMq0hz/WN+5LGmDuebNdzzs3/WD9nnwTb0Z0tsMXYQO4edwi5gR7EGQMdOYI1YG3ZMiodX1xPZ6hryFi2LJwvqCP7hb+jJSjOZ61jr2Ov4Rd6Xxy+QvqMBa6pohliQnpFHZ8IvAp/OFnIdRtGdHJ2cAZB+X+SvrzdRsu8GotP2nVvwBwBeJwYHB49850JOALDfDW7/pu+cNQN+OpQBON/ElYjz5RwuvRDgW0IN7jQ9YATMgDWcjxNwBZ7AFwSAEBABYkESmAyjz4DrXAymg1lgPigGpWAFWAsqwCawFewEe8AB0ACOglPgLLgEroAb4B5cPd3gBegH78BnBEFICBWhIXqIMWKB2CFOCAPxRgKQMCQaSUJSkHREiEiQWcgCpBRZhVQgW5AaZD/ShJxCLiAdyB3kEdKLvEY+oRiqgmqhhqglOhploEw0FI1FJ6Hp6DS0EF2ILkPL0Wp0N1qPnkIvoTfQTvQFOoABTBnTwUwwe4yBsbAILBlLw8TYHKwEK8OqsTqsGT7na1gn1od9xIk4Dafj9nAFB+NxOBefhs/Bl+IV+E68Hm/Fr+GP8H78G4FKMCDYETwIbEIiIZ0wnVBMKCNsJxwmnIF7qZvwjkgk6hCtiG5wLyYRM4kziUuJG4h7iSeJHcQu4gCJRNIj2ZG8SBEkDimPVExaT9pNOkG6SuomfVBSVjJWclIKVEpWEioVKZUp7VI6rnRV6ZnSZ7I62YLsQY4g88gzyMvJ28jN5MvkbvJnigbFiuJFiaVkUuZTyil1lDOU+5Q3ysrKpsruylHKAuV5yuXK+5TPKz9S/qiiqWKrwlKZqCJRWaayQ+Wkyh2VN1Qq1ZLqS02m5lGXUWuop6kPqR9UaaoOqmxVnupc1UrVetWrqi/VyGoWaky1yWqFamVqB9Uuq/Wpk9Ut1VnqHPU56pXqTeq31Ac0aBpjNCI0cjSWauzSuKDRo0nStNQM0ORpLtTcqnlas4uG0cxoLBqXtoC2jXaG1q1F1LLSYmtlapVq7dFq1+rX1tR21o7XLtCu1D6m3amD6VjqsHWydZbrHNC5qfNphOEI5gj+iCUj6kZcHfFed6Sury5ft0R3r+4N3U96dL0AvSy9lXoNeg/0cX1b/Sj96fob9c/o943UGuk5kjuyZOSBkXcNUANbg2iDmQZbDdoMBgyNDIMMRYbrDU8b9hnpGPkaZRqtMTpu1GtMM/Y2FhivMT5h/JyuTWfSs+nl9FZ6v4mBSbCJxGSLSbvJZ1Mr0zjTItO9pg/MKGYMszSzNWYtZv3mxubjzWeZ15rftSBbMCwyLNZZnLN4b2llmWC5yLLBssdK14ptVWhVa3XfmmrtYz3Nutr6ug3RhmGTZbPB5ootautim2FbaXvZDrVztRPYbbDrGEUY5T5KOKp61C17FXumfb59rf0jBx2HMIcihwaHl6PNRyePXjn63Ohvji6O2Y7bHO+N0RwTMqZoTPOY1062TlynSqfrY6ljA8fOHds49pWznTPfeaPzbReay3iXRS4tLl9d3VzFrnWuvW7mbiluVW63GFqMSMZSxnl3gruf+1z3o+4fPVw98jwOePzlae+Z5bnLs2ec1Tj+uG3jurxMvTheW7w6veneKd6bvTt9THw4PtU+j33NfHm+232fMW2YmczdzJd+jn5iv8N+71kerNmsk/6Yf5B/iX97gGZAXEBFwMNA08D0wNrA/iCXoJlBJ4MJwaHBK4NvsQ3ZXHYNuz/ELWR2SGuoSmhMaEXo4zDbMHFY83h0fMj41ePvh1uEC8MbIkAEO2J1xINIq8hpkUeiiFGRUZVRT6PHRM+KPhdDi5kSsyvmXaxf7PLYe3HWcZK4lni1+InxNfHvE/wTViV0Jo5OnJ14KUk/SZDUmExKjk/enjwwIWDC2gndE10mFk+8OclqUsGkC5P1J2dPPjZFbQpnysEUQkpCyq6UL5wITjVnIJWdWpXaz2Vx13Ff8Hx5a3i9fC/+Kv6zNK+0VWk96V7pq9N7M3wyyjL6BCxBheBVZnDmpsz3WRFZO7IGsxOy9+Yo5aTkNAk1hVnC1qlGUwumdojsRMWizmke09ZO6xeHirfnIrmTchvztOCPfJvEWvKL5FG+d35l/ofp8dMPFmgUCAvaZtjOWDLjWWFg4W8z8ZncmS2zTGbNn/VoNnP2ljnInNQ5LXPN5i6c2z0vaN7O+ZT5WfN/L3IsWlX0dkHCguaFhgvnLez6JeiX2mLVYnHxrUWeizYtxhcLFrcvGbtk/ZJvJbySi6WOpWWlX5Zyl178dcyv5b8OLktb1r7cdfnGFcQVwhU3V/qs3LlKY1Xhqq7V41fXr6GvKVnzdu2UtRfKnMs2raOsk6zrLA8rb1xvvn7F+i8VGRU3Kv0q91YZVC2per+Bt+HqRt+NdZsMN5Vu+rRZsPn2lqAt9dWW1WVbiVvztz7dFr/t3G+M32q2628v3f51h3BH587ona01bjU1uwx2La9FayW1vbsn7r6yx39PY5193Za9OntL94F9kn3P96fsv3kg9EDLQcbBukMWh6oO0w6X1CP1M+r7GzIaOhuTGjuaQppamj2bDx9xOLLjqMnRymPax5YfpxxfeHzwROGJgZOik32n0k91tUxpuXc68fT11qjW9jOhZ86fDTx7+hzz3InzXuePXvC40HSRcbHhkuul+jaXtsO/u/x+uN21vf6y2+XGK+5XmjvGdRy/6nP11DX/a2evs69fuhF+o+Nm3M3btybe6rzNu91zJ/vOq7v5dz/fm3efcL/kgfqDsocGD6v/sPljb6dr57FH/o/aHsc8vtfF7XrxJPfJl+6FT6lPy54ZP6vpceo52hvYe+X5hOfdL0QvPvcV/6nxZ9VL65eH/vL9q60/sb/7lfjV4Oulb/Te7Hjr/LZlIHLg4bucd5/fl3zQ+7DzI+PjuU8Jn559nv6F9KX8q83X5m+h3+4P5gwOijhijuxXAIMVTUsD4PUOAKhJANDg+YwyQX7+kxVEfmaVIfCfsPyMKCuuANTB//eoPvh3cwuAfdvg8Qvqq00EIJIKQKw7QMeOHa5DZzXZuVJaiPAcsDnia2pOKvg3RX7m/CHun1sgVXUGP7f/ArxlfGDv33TQAAAAimVYSWZNTQAqAAAACAAEARoABQAAAAEAAAA+ARsABQAAAAEAAABGASgAAwAAAAEAAgAAh2kABAAAAAEAAABOAAAAAAAAAJAAAAABAAAAkAAAAAEAA5KGAAcAAAASAAAAeKACAAQAAAABAAADQqADAAQAAAABAAADKgAAAABBU0NJSQAAAFNjcmVlbnNob3Suj6iPAAAACXBIWXMAABYlAAAWJQFJUiTwAAAB1mlUWHRYTUw6Y29tLmFkb2JlLnhtcAAAAAAAPHg6eG1wbWV0YSB4bWxuczp4PSJhZG9iZTpuczptZXRhLyIgeDp4bXB0az0iWE1QIENvcmUgNi4wLjAiPgogICA8cmRmOlJERiB4bWxuczpyZGY9Imh0dHA6Ly93d3cudzMub3JnLzE5OTkvMDIvMjItcmRmLXN5bnRheC1ucyMiPgogICAgICA8cmRmOkRlc2NyaXB0aW9uIHJkZjphYm91dD0iIgogICAgICAgICAgICB4bWxuczpleGlmPSJodHRwOi8vbnMuYWRvYmUuY29tL2V4aWYvMS4wLyI+CiAgICAgICAgIDxleGlmOlBpeGVsWURpbWVuc2lvbj44MTA8L2V4aWY6UGl4ZWxZRGltZW5zaW9uPgogICAgICAgICA8ZXhpZjpQaXhlbFhEaW1lbnNpb24+ODM0PC9leGlmOlBpeGVsWERpbWVuc2lvbj4KICAgICAgICAgPGV4aWY6VXNlckNvbW1lbnQ+U2NyZWVuc2hvdDwvZXhpZjpVc2VyQ29tbWVudD4KICAgICAgPC9yZGY6RGVzY3JpcHRpb24+CiAgIDwvcmRmOlJERj4KPC94OnhtcG1ldGE+ChBdW3AAAAAcaURPVAAAAAIAAAAAAAABlQAAACgAAAGVAAABlQAAhtWrNrHxAABAAElEQVR4AeydCdwcRZn/K/cdwhnCkXCLuAqLwiIsCirrsqjIsrLoirog/EHFVVBRVEBBFBB1uQW8AMUFVC5luQQUBJFDlENCCCQQAgQI5L77X7+Cp7emp3veOXred2beb33ypq86v9UzU79+qp4esmbNmsQRIAABCEAAAhCAAAQgAAEIDCICQxBCg6i3aSoEIAABCEAAAhCAAAQgEAgghLgRIAABCEAAAhCAAAQgAIFBRwAhNOi6nAZDAAIQgAAEIAABCEAAAggh7gEIQAACEIAABCAAAQhAYNARQAgNui6nwRCAAAQgAAEIQAACEIAAQoh7AAIQgAAEIAABCEAAAhAYdARKFUJJgifuQXcH0WAIQAACEIAABCAAAQi0SGDIkCEt5tB48qaFUFb0ZI8brwopIAABCEAAAhCAAAQgAIHBSiArhrLHZXNpWAiZ4NFWf6qg7ZddOfKDAAQgAAEIQAACEIAABAYHAekK0xa2r5Zrvx2hbiGUFUA69i9jDSJIFUMMtaN7yBMCEIAABCAAAQhAAAK9TyArfIYOHRoEUPZ8mST6FEJZASTxE/+ZINI5hXYptjIbTV4QgAAEIAABCEAAAhCAQGcQML0h8WMCyPZt2w5BVFMIWaXM8rN69eoggrSN9xXPBJHhtLR2zBYCEIAABCAAAQhAAAIQgIARiA0oJoB0btiwYUEQaRvv65riKcRpLb9Gt4VCyMSNMjTRs3LlyrCv41WrVqWiyIRSLH7i/UYrRXwIQAACEIAABCAAAQhAoLcJxGJG+yZ0TPwMHz48CCEdjxgxIhVHomLxWyGUK4RMxGhr1h8TQdpKBMVCSBVQ3DhdK5UiLQQgAAEIQAACEIAABCDQ+wRMDMXCJhZCEkMSQSaGtNVfnK5ZSoVCyNYBSQhJ/MR/Jo4sjgSQKmNCqNnKkA4CEIAABCAAAQhAAAIQGHwETEtoa+uCTPRICMV/Om9xTBA1Q6xKCJllRyJHgmfFihVBBNlWliCdt+lwQ4ZKkcmrg5+v5yvu/2umHqSBAAQgAAEIQAACEIAABAYlgUTTy/w/eaT2f2tWByOLxI5Ej1mFRo4cGQSRtiaGJISaFUO5QkgiR4LHpsEtX748FUQmgiSAhg4d7nXPqwuWBmWf0WgIQAACEIAABCAAAQhAoFwCXgytWbMqCCITQ7IISQCNGjUqFUYSSLpeihAya5DEjoSQrED6kxAyURSmvw3xImjYiNDgMaNHuQkTxrmxY0aHSjVbkXLpkRsEIAABCEAAAhCAAAQg0A0EpC+kPZYsXeYWLlzsli5bHqq9ZvVKbyl61TpkViEJIQki/emcLEPNWoUqLEKqRGwNMhFk0+IkkIZ4K5CJoA3WX8etNXFCN/CljhCAAAQgAAEIQAACEIBAFxB4ZcFC9/y8l0JNJYYSbx2S4ImtQhJCOm7FKpQKIbMGSQjJ+mPWoGXLlqXWIE2DGzpsZKjUxlM2cGPHjukClFQRAhCAAAQgAAEIQAACEOgmAkuWLHVz5j4fqrxm9QpvGVqTTokbPXp0ahWSGLLpcY3OTKsQQhJBsvqYENKUOJsWp/PDho8Ka4KwBHXTbURdIQABCEAAAhCAAAQg0H0EUsuQF0GrVy1PrUKaHmdT5CSEYscJjbSyQgjJKiQRpD9ZgkwIac6eWYO0JmiTjTdspAziQgACEIAABCAAAQhAAAIQaJjA03OeDWuGYquQCSFZhiSE9NfMOqEKIWTrg0wA2bQ4CSOtC9L6IKxBDfcfCSAAAQhAAAIQgAAEIACBJgiYVUjrhLReyISPRJAJombXCaVCSCLIhJAEkNYImRDStLiwNsivEdps6kahAk20gyQQgAAEIAABCEAAAhCAAATqJiCDzJOznwlrhGQVMqcJtk5IWxNCWivUSAhCKOsoQRYhmxqnwsP6oBGjfb5D3FZbTG3aV3cjFSMuBCAAAQhAAAIQgAAEIDC4CUinzJg520NI3OqVy1IhJGuQWYVkJWrGYUKuEJI1aOnSpWGNkPZlKRo24lUPcVtvOW1w9wathwAEIAABCEAAAhCAAAT6jcBjj88KZa1euTQIHnux6pgxY4L3OIRQv3UFBUEAAhCAAAQgAAEIQAAC/UWg34XQkiVLUtfZWIT6q5spBwIQgAAEIAABCEAAAhCICWSFkCxAmho3duzY9liEEEIxfvYhAAEIQAACEIAABCAAgYEggBAaCOqUCQEIQAACEIAABCAAAQgMKAGE0IDip3AIQAACEIAABCAAAQhAYCAIIIQGgjplQgACEIAABCAAAQhAAAIDSgAhNKD4KRwCEIAABCAAAQhAAAIQGAgCCKGBoE6ZEIAABCAAAQhAAAIQgMCAEkAIDSh+CocABCAAAQhAAAIQgAAEBoIAQmggqFMmBCAAAQhAAAIQgAAEIDCgBBBCA4qfwiEAAQhAAAIQgAAEIACBgSCAEBoI6pQJAQhAAAIQgAAEIAABCAwoAYTQgOKncAhAAAIQgAAEIAABCEBgIAgghAaCOmVCAAIQgAAEIAABCEAAAgNKACE0oPgpHAIQgAAEIAABCEAAAhAYCAIIoYGgTpkQgAAEIAABCEAAAhCAwIASQAgNKH4KhwAEIAABCEAAAhCAAAQGggBCaCCoUyYEIAABCEAAAhCAAAR6iMDLC5e6WXPnhxZNm7K2mzRhTM3WNRq/ZmZNXkQINQmOZBCAAAQgAAEIQAACEICAcxI1i5aucM+9sDDgmLzeBDdp/Bg3etRwN3zY0ApEq1avccuWr3IvL1paEX/8mJF9iqeKjEo4QAiVAJEsIAABCEAAAhCAAAQgMFgJPDD9GbdqlRc4K1YFBKNHDndreYvQhutOcOPHjqzAsmjJCvfsiwvdK148xfGHDx/qtt9mo4q47T5ACLWbMPlDAAIQgAAEIAABCECghwnEQmjV6tWhpePHjHKxZUgnY0vQoqXLQ7zhw4Y5CSeEUMDBfxCAAAQgAAEIQAACEIBAtxCIp8ZlBY5ZhtSW2BKUFUxMjeuW3qaeEIAABCAAAQhAAAIQgEBKIDvlLSt0FFFriIqEUnYKXZpxG3eYGtdGuGQNAQhAAAIQgAAEIACBwUAg6wQhK3jEQGuCsgKpyKlCfzBDCPUHZcqAAAQgAAEIQAACEIDAICBQZBmyptuaIJsyNxCWIKsLQshIsIUABCAAAQhAAAIQgAAEWiJQZBmyTLNOFLLutS1ef2wRQv1BmTIgAAEIQAACEIAABCAwCAgghJwbsmbNmsQHpz+/71auXOlWrFjhlixZ4pYvXx6OdX7YiFffOrv1ltMGwa1BEyEAAQhAAAIQgAAEINC7BJgahxDq3bublkEAAhCAAAQgAAEIQCBDoMgSZGuCFB1nCViEMrcNhxCAAAQgAAEIQAACEOhuAkWWIFsTpNbhPhsh1N13ObWHAAQgAAEIQAACEIBARIAXqkYw/C5rhCp5cAQBCEAAAhCAAAQgAIGeJPDA9GfcqlVrak59U8OXLV/lXl60NNcyNHz4ULf9Nhv1Kx+8xvUrbgqDAAQgAAEIQAACEIBAbxGIhZBaNnrkcFf0nqDsFDqLjxDqrXuC1kAAAhCAAAQgAAEIQKDnCcRT49TYyetNcJPGj3GjRw132fcEZZ0qWPzxY0a6SRNe9SbdX8CwCPUXacqBAAQgAAEIQAACEIBAjxKQGJo1d35o3bQpa/cpahqN3w5sCKF2UCVPCEAAAhCAAAQgAAEIQKCjCSCEOrp7qBwEIAABCEAAAhCAAAQg0A4CCKF2UCVPCEAAAhCAAAQgAAEIQKCjCSCEOrp7qBwEIAABCEAAAhCAAAQg0A4CCKF2UCVPCEAAAhCAAAQgAAEIQKCjCSCEOrp7qBwEIAABCEAAAhCAAAQg0A4CCKF2UCVPCEAAAhCAAAQgAAEIQKCjCSCEOrp7qBwEIAABCEAAAhCAAAQg0A4CCKF2UCVPCEAAAhCAAAQgAAEIQKCjCSCEOrp7qBwEIAABCEAAAhCAAAQg0A4CCKF2UCVPCEAAAhCAAAQgAAEIQKCjCSCEOrp7qBwEIAABCEAAAhCAAAQg0A4CCKF2UCVPCEAAAhCAAAQgAAEIQKCjCSCEOrp7qBwEIAABCEAAAhCAAAQg0A4CCKF2UCVPCEAAAhCAAAQgAAEIQKCjCSCEOrp7qBwEIAABCEAAAhCAAAQg0A4CCKF2UCVPCEAAAhCAAAQgAAEIQKCjCSCEOrp7qBwEIAABCEAAAhCAAAQg0A4CCKF2UCVPCEAAAh1CYMaMGe7666+vqM2UKVPcv/7rv1ac4wACEIAABCAw2AgghAZbj9NeCEBgUBG45JJL3EEHHVTR5h133NHde++9Fec4gAAEIAABCAw2AgihwdbjtBcCEBhUBBBCg6q7aSwEIAABCDRAACHUACyiQgACEOg2Agihbusx6gsBCEAAAv1FACHUX6QpBwIQgMAAEEAIDQB0ioQABCAAga4ggBDqim6ikhCAAASaI1CGEFq9erV76KGH3OzZs92YMWPc61//erfRRhvlVmjhwoXukUcecc8++6x74xvf6DbffPPceLVOPvfcc2769Olu/vz5bptttnFbbbWVGz58eK0kVddWrVrl5syZE/4mT57sNttsMzds2LCqeI2cWLlypZs1a5Z7+umnQ92UrzhMmzbNDRkypJGsKuIuXbrUPfzww6Gu48ePd9tuu62TQ4tW8qwogAMIQAACEMgl0C4h5NasWZP4H8/E/xglK1asSBYvXpz4H7XE/zAlM2fOTB599NHE/1gm02c8Gf4SAgQgAAEIlE7g4osvTvy3f8Wfd5ZQUc4LL7xQcV3xN9hggxDnxhtvTLbYYouq6zvttFPiB+9pPl4cJAcccEBVPOXzqU99Klm2bFkaN2/ntttuS97xjnckEyZMqMpD9VGdTzjhhMSLkbzk6bmnnnoq+exnP5ubx+GHH56orYsWLcq9nmaS2Zk7d25y3HHHFdbNi7Xke9/7XvidyyQNh1dffXVVed6BRbh2zjnn5OYrbldddVVedpyDAAQgAIGSCJgOkSaRNpFGkVaRZpF2kYaRlpGmkbap92+IIvrg9Of3nZ6k+czckiVL3PLly8Oxzg8bMSYotK23nBa2/AcBCEAAAuURqMciJAvMhhtuWFGoFyTu7rvvDtafiguZA1l/ZLmQFaNW2H///d2ll17qRowYURFtwYIF7stf/rI766yzKs4XHbz73e8O+ay99tpVUeQJb88993SyShUFtev2229322+/fVUU/V5lw1133eX23Xdf9/zzz2cvVR3LG98vf/nLYCGKL+qc2h8HLxqDC/MDDzwwPl2178WfO/7446vOcwICEIAABFon0C6LEEKo9b4hBwhAAAItE2hWCKlgTUvTFLVawVtxgvD405/+VCtauPalL33JnXzyyRXx3ve+97lrrrmm4lxfB6rXX/7yFzdq1Kg06jPPPBPEWC0RZJGL2pUVQg888IDbYYcdLFldW2/Jcf6pops0aVIaP08IbbLJJmGKXRqpxo76YOutt64Rg0sQgAAEINAMAYRQM9RIAwEIQKBLCLQihMpu4nbbbRfWGlm+fjqc22OPPeww3cpq84//+I9O1qI77rgjPR/vqF3/8R//kZ7Su5J0rpUQCyHNXJCFR2t3suFNb3qT81MD3Z133pl7/aMf/aj78Y9/nCbLE0LpxTp2Dj30UHf++efXEZMoEIAABCDQCIF2CSHWCPlfVAIEIACBgSZQzxoh79igag2L/yEJ5y666KLEW1mSl156KayTsfPZrdbweAtKmEutOdZe4OTm+fLLL6dIvvKVr1TF2W+//SrWAalcrcHJlqf1Phb81L6q6xZfa3CefPLJxIuq5Nprr028iCmMa/lp66fx5ca7/vrr42jJ5ZdfnhvPO1VI4/3iF7/IjaM6XnbZZWEuuuahX3nllbnrhcSWAAEIQAAC5RNo1xohhFD5fUWOEIAABBom0IoQkgOAbNhrr71yB/USU3F48cUXc+P59TlptBkzZiRyxhD/aXFqNnhrSFVee++9dxrtJz/5SdV1iYwLLrggjWM7EihFDhksjrZ+XVBVnnk8FNdP+auKe/rpp+tSCEVCyFuKLEq69WulqvJSfQkQgAAEIFA+gXYJIdYI+V9hAgQgAIGBJtDK1DhvSala+H/SSSe5r371qxXN0jqhm2++ueKcDl73utdVrTG66aab3Dvf+c6quLVOyAnCW97yloooXpC5G264IZw76qij3He/+92K65rWpnR54bzzznNHHHFE1SX/ExvOBUc+Oa62vUc6p7U92fDHP/7R7bLLLhWn5RzhiiuuCOfypsZp+p+3jrmhQ4dWpJOLcrnjzgbv6c6NGzcue5pjCEAAAhBogUC7psYhhFroFJJCAAIQKItAK0LIhEFcl+9///vOT0uLTznvHtudeeaZFed08E//9E/OW3sqzhcJoVdeecXJOYHEy/333x+8tPlpcc5blpyfaleRhw5iIfTBD37Q/fznP6+Iozqee+65FefsIE+46Jq1d968eU5OD1oJWkMkr3sKeUKoSDzq/UdZz3rKQ04g9I4hAgQgAAEIlEcAIVQeS3KCAAQg0HEEmhVCsljIWUE2lC2E9NLUT3ziE1VCJltu9jgWQnmC6zvf+Y7z7xPKJgvHElfrrbde1TUTQg8++GB4GWxVhAZOyHIkC5JCnhCS++z/+Z//yc0x70WqCKFcVJyEAAQg0BIBhFBL+EgMAQhAoLMJdLIQkuXnn//5n+t6R0+WciyEJCq804KKKBJBEkN5Qa63a71H6K9//auTZ7hWgixKej+TAkKoFZKkhQAEINA+Agih9rElZwhAAAIDTqCThdC///u/O+81rYqRRMi//Mu/hPU4a621ltNLW7PvH4qF0JFHHln1Qtbdd9/d/e53v6vKWyfymOi8WYT08tTJkyfrVEW47rrrqtb0WIRly5a50aNH22FYz7PbbruFY4RQioUdCEAAAh1FACHUUd1BZSAAAQiUSyBv0J91JCDLxYYbblhRcLunxnl30RUvRLXC9W6erOMBCRAJozjEQihvup7ielfXYZ1SnE5rkXbeeecqJw6KY0Jo9erVbvjw4XGysD9nzhy30UYbVZ3v6wRCqC9CXIcABCAwMAQQQgPDnVIhAAEI9AuBThVCf/jDH5xZTAyEf1+Qe/TRR+0w3eZZfGIh9PTTT7tNN900jW87EnNXXXVVeDmrHBB4d93uM5/5jPv1r39tUSq2JoR0UsJLAiwOcgghxxDZIFH3m9/8JhVSur7VVlul64wQQlliHEMAAhDoDALtEkK8R8j/ohIgAAEIDDSBZt8j5EVEbtW96+mq99x4cZAb14uVqrjea1yIO3369Kpr/mcxue+++yry8tae3HjKOw56EavS5/2pLX7NTu61OH6cXx43xfWCJ44WXtR60EEHVeV99NFHp/Hy3iPk1zWl17M7cZ1sXy+1JUAAAhCAQLkEeI+Q/5UhQAACEOhVAp1qERJvrcPRepxs2GOPPdyWW27pNE3u4Ycfzl4Ox7FFSCfkoW3q1Km5cbMn5cggr1z/85pGXbJkifv7v//73Cl02223nVMd5VVP7zLKy+uxxx4LViFliEUoxcoOBCAAgY4i0C6LEO8R6qhupjIQgMBgJdDJQuiTn/ykO+ecc5rqmqwQUiZ6P5DOy9V0raD3+2idUDbEQkjX7rnnHqf3ATUazjrrLKe2WUAIGQm2EIAABDqLQLuEEFPjyrXckRsEIACBpgjkTfHyzhIq8nr22Werpna1e2qcKrB48eLkve99b1XZ/mey4twFF1xQcazr2alx1qDZs2cnRx11VFV8pTnkkEMSbzkK5WbL0HFe8J7nErHIi5937hvf+EZVNkyNq0LCCQhAAAIdQYCpcf6XjAABCECgVwnopZ0HHnhgRfPklU3Tziy88MILbv3117fDsPWD/9wXqv7whz90XlBUxC16Z0+ew4Fbb73Vvf3tb0/Tr1q1yh1//PHuiiuuqJqG9qEPfcgdd9xxTq6pd9hhhzSNdvbee+/goKDiZHSwZs0a5wVe+NNUOHl7Gzp0aIgxb948p3PZ4H+Vs6fC8dy5c925557r5J0ubxqcIvl1Qu6EE05wW2yxRVUeV199tdt3330rzqttP/3pTyvO2UHeC1W9aHRjx461KGwhAAEIQKAEAu2yCDE1roTOIQsIQAACg4nA/Pnz3RNPPOHGjBnjNttss7Ctp/2LFi1y8kIXh1GjRlUIrvhanjturft56KGH4mhV+ytXrnRPPvmke+aZZ5zKnDhxYljLNGXKFJcnXqoy4AQEIAABCHQUAYRQR3UHlYEABCAAgUYJ6N1AkyZNqkp22mmnuc997nMV5+VCe88993RyuR2HQw891J1//vnxKfYhAAEIQKDHCSCEeryDaR4EIACBwUDgmGOOcaeeempVUzfZZBO36667unXWWcfphajXXHNNVRydkDVIViECBCAAAQgMHgIIocHT17QUAhCAQM8SmDVrVphO10wDvTMG9/GPf7yZpKSBAAQgAIEuJoAQ6uLOo+oQgAAEIPB/BLR+5/DDD3fXX3/9/52ssSfHBnJtvf3229eIxSUIQAACEOhVAgihXu1Z2gUBCEBgEBKQ57ef/exn7tprr3X33XdflSc6IdHLUL3bbqd1QfKOR4AABCAAgcFJACE0OPudVkMAAhAYFASWL1/u/LuD3MiRI924ceOCU4Vhw4YNirbTSAhAAAIQqE0AIVSbD1chAAEIQAACEIAABCAAgR4kgBDqwU6lSRCAAAQgAAEIQAACEIBAbQIIodp8uAoBCEAAAhCAAAQgAAEI9CABhFAPdipNggAEIAABCEAAAhCAAARqE0AI1ebDVQhAAAIQgAAEIAABCECgBwkghHqwU2kSBCAAAQhAAAIQgAAEIFCbAEKoNh+uQgACEIAABCAAAQhAAAI9SAAh1IOdSpMgAAEIQAACEIAABCAAgdoEEEK1+XAVAhCAAAQgAAEIQAACEOhBAgihHuxUmgQBCEAAAhCAAAQgAAEI1CaAEKrNh6sQgAAEIAABCEAAAhCAQA8SQAj1YKfSJAhAAAIQgAAEIAABCECgNgGEUG0+XIUABCAAAQhAAAIQgAAEepAAQqgHO5UmQQACEIAABCAAAQhAAAK1CSCEavPhKgQgAAEIQAACEIAABCDQgwQQQj3YqTSpmMCyZcvdgoWL3NKly9zKlatcUhyVK11IYIiv84gRw92YMaPdxAnj3ejRo7qwFVQZAhBoN4EF0691i2f/3i2b94hbtWSec2tWt7tI8m8ngaHD3PCx67vR67/ejZu6u5u4zXvaWRp59xABhFAPdSZNqU3g+XkvulcWLKodias9RWCtiePdBuuv21NtojEQgEDzBCSAXrz3fLdq0bPNZ0LKjicwfPyGbt03H4Yg6vieGvgKIoQGvg+oQT8QeGbuc27xkmWhpLUnTXQTxo9zI0eOcEOGyIZA6BUCSZK4FStWuoWLFrv5Ly8IzRo3drTbaMrkXmki7YAABJokMO8P33YvP3RZk6lJ1o0EJr3hALf+rp/rxqpT534igBDqJ9AUM3AEzBKkKVNTJq/vRo0aOXCVoeR+I7B8+Qo397l5YQoklqF+w05BEOhIAoigjuyWfqkUYqhfMHdtIQihru06Kl4PAa0JemrOq1Mgpm4yBRFUD7QeiiMxNPvpuaFFm268IWuGeqhvaQoE6iWg6XDP3fb1quhrb3+Qm7DFXm7kOlu6IUNHVF0vOmEzCWSBJnQGgWTNSrfipcfdwpk3uvkPXFxVqclvP45pclVUOCECCCHug54mYNYgTYdbb921e7qtNC6fwAsvzg/T5LAK5fPhLAR6ncATl76vYk3QiImbuCnvPNmNWm/bppqOEGoKW78lWv7C39zcm491Kxc8nZapNUObf/Dq9JgdCBgBhJCRYNuTBGbNnuNWeO9wWIN6snvrapRZhUb6qZHTpm5cVxoiQQACvUEgzxo0db+LmhZBooIQ6vx7Q2Jo9q8+UlFRrEIVODh4jQBCiFuhpwnMeHxWcJG91RZT0x+vnm4wjasioOkrM2bOdnKLsdWW06qucwICEOhdAnNvOsYteuKWtIGaDrfezkemx83sIISaodb/aV64+8yKaXLjN9/TTXnXKf1fEUrsaAIIoQHuniVLlrhm5hmPHTuWgX0dfWc3+NYNDoDXrFnjfvSjH3kPZCvcwQcf7NcW9f0+mrlz57qHHnrIPfnkk27q1Klup512cmuvXd90vFWrVrkHHnjAzZgxwy1fvty9+c1vdttuu60bNmxYzVaqzCuuuMLde++9bsKECe4f/uEf3IEHHuiGDx9emO7aa691P/zhD9348ePdRRddVBivly40ex+UzWDZsmXhntL9tdZaa3X8Z/jUU091p59+esBw//33u4022qhsJP2S3yWXXOKOPvroUNZvfvOb8Pkqo2B9f2+++eYhq4997GPulFPqH2T1CtuYY7s4x2U0up+dFlevNUjfx3fccYfbYYcd3K677lpRLEKoAkfHHmStQkyP69iuGtCK2fhg9cqlbujQof5dhCPCmE/j7JEjR4Zjndfn3j77dVXY/9Anq1evTvwAL/GDyWTx4sXJ/Pnzkzlz5iQzZ85MHn300eSRRx5Jps94Mvx5MTDowsKFC7XSsqm/u+++e9DxaqbBzd5f5557btovzz//fM2iFyxYkHz2s59N48d96sVQ4oVRzfQ33XRTst1221Wl98Im8QOrwrR//etfkw022KAq3W677Za88MILuen0Wdxiiy1CGj8wzI3TiyebvQ/KZKHvw0022STtr9/97ndlZt+WvL70pS+l9X3iiSfaUkZ/ZBp/nm+//fbSitRn3z7vhxxySEP59grbuNHt4hyX0ej+9At3Saafv1P6t2b1ij6zUL/aZ1Xf7dlgfZ49z3FnEVBfx32ve4EAgSwBGx9Ik0ibSKNIq0izSLto3CQto99waZt6/xxCKIu6+jj+EbUv1nq3f/zjH6sz5EwVAbvBqy7UOOGfGKeDG/VHLSHkrTfJu9/97or42T6UWHn44YdzS7zxxhtrplVeX/jCF8IHL5vBLrvskqY99NBDkw984APp8ZFHHpmNHo4vvPDCNM6zzz6bG6cXTzZzH5TNQcInvjcOO+ywsosoPb9eGay3a4Aef4cjhJKkXZxbubErBsJeEPUVvJUv2WuvvdLPKkKoL2Kdfb3R/u/s1lC7dhCw8UHZQmiIhJAPYdqX3/fv8vCuDf00I00l0NQfHev8sBFj/NjAuUanLoVEXf6fpkOdccYZdU2Nu+qqq9zvf//70GJvPXB/+tOfnMx2hNoEzORZz/2l+/H73/+++8QnPlGRqRdCbv311684ZwcnnXSS++pXvxoO/RNE9/Of/zxMiZs1a5b7yle+4i677NWX93krjHvssceC2dXSvvzyy2EKnbcMhlNf/OIX3X/913+FKWs33HCD23///S2qu/TSS8OUNzvhLYJhGpyOL774YvfhD384XDr22GPdN7/5zbDvn2a4SZMmhX39t3TpUrfZZps5tUd1O/HEE9Nrvb7TyH3QLhZe+LgLLrigInv/tKmjP8fx/eQtQuH+qWhAlxycd9557ogjjgi19RYh562mpdRcn92JEyeGvLwQcv5BQ9359grbuMHt4hyX0ej+YxfsXJFk60PvrjiODx5//HH3n//5n+lvra55IeS+853vxNHS6TEa4xA6m0Aj/d/ZLaF27SJg4wOmxrVDZpaUpx9UJ5om5W+C8OfnLpeUc+9nY0q/r5b+7W9/S3bfffeUsbHWtsgipKfBcb/Mnj27ohgv9iusNLL+xEHT3qycT33qU/GlsO/Fbnpd093i4NcvpddkvrVw1113pefvu+8+Ox22Z555ZrimOr/44osV13r9oN77oF0cZF63vo63Xji3q8hS8sUiVBsjFqFKPt1qEdJ39fe+973czygWoco+7rYjLELd1mP9X18bH5RtEWJqXEl9qS/oeICuwWxfQWm89SG55ZZbkt/+9reJBvma49hI0KDeLxRNrr/++uQvf/lLovVMtYK3NiSvvPJKRTzNqfSL+BNvycodeMtq+PTTT4c6atDeaB1r1ceu2Q1ux3lbb23J/QG0AWuRELr88svTdN56k5d16AfLZ7/99quIs80226Tpi8TtRz/60TROLGz8Quv0fJypd7aQnvdWxPSS+s9Em7dipecHy04990E7WUjw2H3gHVWk+3vvvXfNYvUZ0edKf/HnQ8JKn6s777wz97NVlKl9N+h7QWkXLVpUFDWcLxJC+txK2GfFf83M/EWtXdN3wnXXXZdI6Bd9tvrKJ++65m/r/r/55pvDd9dLL72URqt3gC7eWtOnaYzKZ/r06YmYFYWyhZDKF1OtG1T/NDp9tYzvbbVXa1D13Z+31rAMzuKpvtcUb/uN0T3djtDXQFifgXiasT6n8dpLhFA7eqX/8uyr//uvJpTUqQRsfIAQ6tAe0qDVBlAaNOlHqCjo2mmnnVbxJW5p9cXup0LV/FFXvldffXWy4447pmVaem21DuW5557LLf6AAw5I0+iHVBYOG3hbHt6rUmKDE/3I55WjdS5FP4gadNx6660VA8LcykQn7QaPTlXtqq5Wxze96U3BiUfcnqLB2uc///k0XSw6sgWYcwKVoTVFCrLIxGVm09hxPICOBUw8sIsHahKtlq+EsIVvfetb4bz6RIPqwRbquQ/ayUSfXesXDbz0WbBjLcosCnKIYfHUhzqWddDO2XaPPfYIorsoHw2w/fSe3O8GOeo466yzcpNmhdDZZ5+dOtuwsvXd4qd55a5js0xV73333beq3spDbGKRb2ka2WpdX57DET2gkDiKPy9FzhK8N8VEn39rl221aF7p80KZQkiCIH44YuWLm5+ylVd8eq6M723v0TA56KCDKtr/i1/8Ii1DO2VwfvDBBwvvhaOOOqrw+1/l//nPf+6TheLFoa+BsD5/xlpbP7U40YMpO4cQiml2335f/d99LaLGZROw8QFCqGyyJeQnsWBfxhrAelfJNXM95phj0viWLrvNm4JlmV5zzTV9ppcXtDzrULxQ36+ZKcxHjgVkacrWKz5WHP0ox+EJ77HK4mhgYoIijpO3bzd43jU7JyYSK5puZk/d6xFC8YC01pPxOC9zmqCnzdaeww8/3KpStdWgweJ96EMfSq/HDh0sT130a5LS+GKmIPFpotS7Qg7nBtt/9dwH7WISD7Q00FTQoNf6VQKlKMTCVvdJ/KTa0sfbIlHl14Sl5cXx431ZH7VQPA6xEPra175WMw859cgLGsT3VW/dn/oRaib09X2ivOPvxjwhFPdHzCTezxOLZQmh2MIbl2n7Ekh+TWEunrK+t+MHQlZuLITK4Kzvyb7uBf2W5D3w+8xnPpPefz/4wQ9yWeSd7GsgbJ9PPZzQ7AmF+AEEQiiPavec66v/u6cl1LRdBGx8gBBqF+Em89WPnrnv1I+SBr61gne6kP5I2A+/pq5owK2ntfGPz8knn1yVVSy6VJ48IGlQrfOyMsVPSvfZZ59UMFhGsRBSeokEpb/nnnvC02b7YY23sjBpAKLpEdmBgKbuxEED+Dhtdr1NHDfetxs8Ppfdf+qpp6osZbF4KbIIxZaeWlOM4kGY1TsWLBqkFgWt/7F2a/qGBU1ZsfPqD7VBTzGtn/R0XFMTFY4//vgQV/dAkbXN8u3VbT33QbvaHt+79jmW4DZxqr4qCrEQsv6WR0Dlo2veUUbFZ9u/86oqq9gaojL11F33ofLQ4Nfqofy//vWvV6SPhZCu6x767ne/Gz6zWo/mHXyk96Gua7peHPTZiT8neshx/vnnh2lxGsy+973vTdPr+65IyMV5xvuaohd/tyl/75Ai1E/CJX5YYfyyQijLWANuWYf03anPTsxH5+NQlhCyukkoywos0fGNb3yjwkIkVvaZtjqU/b2ttsqtvr6fZOW2/iiDsyzR9v2k9mqqsH/vUPiN0T0VW8N0X8VB7TZG2qpf6w19DYRlUc8+yEII1Uu38+P11f+d3wJq2G4CNj5ACLWbdIP5x1MUPv3pT9dMHX9p60dCP47ZoKkn8Q9J/B4i/RDEg4k8q4EG5PGAJhsnFkKa8pa1GmkAEZcvcZANsZiT+IpD7DhA+dgUuzhO3r7d4HnXap2rRwjFA6RaeUl4WtuvvPLKEFWDNTtXyyKgJ6MWLztgjvO1OLY1waWpjHbunHPOqVXNnr7W7H1QBhSbsqX7JbZk6nNtfVM0NSw7SP/2t79dVSWtY7F8VEYc/At+02uKk33AoLjxd4O+B+I6xkJIeSu/bIin72bv5fhzpCle2Sf9mrLnXwCc1lGivpEQ56+02fxlWc6u/4iFkAbY8fearMLZoM9SzDcWI2UKIVncskFCJP5ulnCwUPb3tjgUTcFrlbPqrIdrxlHWF/V9HLJiS9Pg4hCL5uOOOy6+VHO/mYFw/JuKRagm3o6/2Ez/d3yjqGCpBGx8gBAqFWtrmenHzn4wNIjKTlfJ5h5PWckKlDiud22a5htPY9HgyMrTj032B8ryiH8cJHbiEAuh7FNTxdMTcCtD23nz5sXJw348oPPuoKuu6wm0BJLi1RvsBq83vsWLf/iLLELWnuzg0/KwrQaHFleOGRTMg5vO9zXNw9JqoBIH9ZOepNp1bfVUXQutLaif7Xw83VBpn3nmmboFpeXXrdtm74NW2xuLDO+WvSK7eKpR0cttYyGU7f84M4kAuw/ihwTxd0O8xixOq33dR1pnpD9Nx7QQCyGtMcwL+nxY2fH0zVgkaDAfezeM89FDk9j6nbdAP44f75tI0DZudxxHA2yrn7axEIr7QFMDi0Js1bXpU4obt7GV9wi94x3vqLL2WF1iIRY/FCv7e1tWoKLQKmf9hlkf6D6OxXZcpqyUFi/7vahZEnqApHrG32Vx+rz9ZgbC8W8dQiiPaveca6b/u6d11LQMAjY+QAiVQbOEPGKvX/pB0ECor6AfUfvxyHtia+mf8GtGLJ7W+liIn+j69+jY6dxtPGDRIMBCLISKhINNfSga0OkJp9VP+ZUR7AZvNK9GhJCY1Arx1Chzl6xpO9bWn/3sZ7WSp/GKuOkJtbwE2jQWyyweAMpTmYIEkPpb4s3KV7/ICUUvh2bvg1aZaBqacZYnsjjIemGfJ/WHrU+L48RCyNYXxddtX4M1KyceqMffDfV8l1h+to2FkKaxFgUrO/5eiV8gK6tPrRBbC+RRrp4QCzB9XmuFmEMshLQw3uqeZw2yPH/1q1+l8WLBUJYQquUNNP5ejKeElf29XbQGtQzOseCUNagoxGVlHxwUpenrfDMDYYRQX1S753oz/d89raOmZRCw8QFCqAyaLeahgVA8jSNvcW5eESYw9INe9KRN6eJpVnrCZyFeJJud429xbBt7fpJosxALoSKLktVT88TzgtLZoKQbhJC1J2aZ1y7N9bd22RqRK664Ij1XawAWz42PB5l55WTPWb9KQGkwpVDLkUXsZS6bV7cf2xddf7YjXgek/pfFwlxh29b6SNfzLKmxENJ9VBRiy08shOweVf6NPEW3cmIhVDRtSnFN0MX3aOxevlbdlT5+h8tPfvITneozxBaRWtYuZRQL0lgIab2VfTa11Wc57y+OE0/rLUsIaT1SrRB72LTPcnzvtPN7uwzO8fddLc5ib6yzsw5q8al1rZmBMEKoFtHuutZM/3dXC6ltqwRsfIAQapVkCek179l+BDTVpUhQZIuyp/t9WSaULh4YWT6azmLlzpw5007nbuN1DXofiIXBKIT22muvlFutvtK0J+Nrg7D4CWl2XYUx1TZ2s63y6g0atFqZNh1P7ySxc5oCqfelaLqh3RMSqLXaUW/ZnRjPvuj6s27ZdXHGvmibZ9WIhZCsF0WhSAjZd0NfYr0o31gIyaJcFPKEULwOTk4dagV5JzMuEkX1hPh9TH3lH09Ftc+gyoi/+6z8vrZF0/9amRoni26tEH+/muU3rns7v7fL4BzfC33xteu6d8sIzQyEEUJlkO+MPJrp/86oObXoLwI2PkAI9RfxgnJuu+22dCCgH4BGXqRnA1n9gOjFpkUhti7EoikWN31NkYrXIsQ/vvEPddFg2urZKxah+F0wRdMB1Rd6l4n9uNuAJ54CmTcH3fowfp9FrTUMFt+2VjetMbPF3fGLY60eih+vSbNBluXTK1v7ouvP9sTTK63/+9pm17m0KoTMUYPKreXZsIhLK0IoFjdZb3TZ8uLpo32JGksbf2dKCNYKsevlWAjFFiGtgZLFtuhP0+N0LX75cVkWIXNuUtSG2NuaOYTor+/tMjjHFiGtQytirPPGuSwLdTMDYYRQ0Z3Yfeeb6f/uayU1boWAjQ8QQq1QbDGtBj/xlAD9GDQSYstErXUAGvzaQCx2xRx7H+vLs1hcz3hgNRiFUPxulloDGWMmgWuDGLGzvojn/Wf7/aKLLkrj1TtVUu8Vsrw1qLAQ93MsVuMF/bJU9WKwL7r+altsyVNfaCAoYZD3Zw8IFE9PzuPQqhCSO2m7F+R5sdHQihCS4LCy9f1QK5hwV/xan6U4j5hxX/lr8G11iYVQPG213il5cR3KEkJyVlEU4jVCu+++exot/jy383u7DM6aumf8a60RShtX4k4zA2GEUIkdMMBZNdP/A1xliu9nAjY+QAj1M/i4uFhE6MlloyH+Qaz1ZFSud+3HKH53TTxgqeW9SO/7sfSxkFJ94zbEg+y4LTbg6xWLULwYvKjf5ALWmMmaFod4Abc8uOUFvWvD0scuz/Pi2jmzRGiOfdwXtrg6O+UkFk6NinArs9O39kXXX/XUu3Ks3/pavxJPY8yK4laFUPyZr2V5NK9xGmjH1sJWhJDeWWUMdM/JlXteyD4IKvIul5fWpuQp/6LF/rH1VfWJhVD8Ga7l0EHrqzSVVH/xA6CyhJD63db+ZNup9/kYx7gP++t7W/VplXN8LyivWu8zmzVrVuDciPfALLP4uJmBMEIoJtjd+830f3e3mNo3SsDGBwihRsmVFF8uQu1Hrh5X2XnFxm6nlVfeE9X4R1Nx4ukdmjplP3S6dvzxx1cVo6lfZtlQnOwTyHYLIdVRHu00yNfAoN5gN3i98S2eiQm1tda0Ny0OVxz9xWumlI9cxsZiJ7bO6LpEh6XVfP/sQCh+232963di607W+9aFF16Ylhd7KIsHg7HrZNWxV0Kz90Gz7Y+dntTj7r0ofqtCKPYUqXtNlqlsiL8b9D0Q34etCCGVE1t69FmI89Z1fa7j6bZ9WXaUJg7x+9Zk9cnmrwF3PK1MDGIhpPjxd1/e6wdkxY3bIScQFsoSQqpXngt1TT+WyLPvibjs/vreVltb5aw8NLXX2iGnO9m+Upx4PZKcQcRBg5TDDz88vMS3kanjzQyEEUIx+e7eb6b/u7vF1L5RAjY+QAg1Sq6E+PLuZD8M2moBu0RIPX9a5B6HeAqVfjgPPfTQ8IZyuXrVj0f8Y6o3zWeDBlxxHFki9FT76quvTo499tiKlw5q0G5TvCyfdguhWDSIlZ4a1hPsBq8nbhynXiEkvtaH4qf1DXpLuQZbsQiK1+pYOWJoVjLlIYay+mjwI6Fp+WobD4Asfd7WXjqYtSwortZ/WZ7qVwv2riFdq/Wk1uJ347bZ+6CZtsYPJmIvarXyivs7tuq2KoRUZrw+Q32sAanuW03T02Az/txn3Ti3KoT07pdYiIjHKaecEh4CyFql+9TuSX0WNA2rkaCHFLGQUf5615gcVWjNT7xGysqJhZDKiq22iqPPvqYoam2MpsvFDzvkgTF+iFCmEFLZ+vzqgY9evKzPZfzwSd+7sYVXde+P722VUwZnWfri/lDfq6+0Fkjfb/GLdcUi9n6oOsT9oN+0ekMzA2GEUL10Oz9eM/3f+a2ihmUSsPEBQqhMqnXmJUFiP86NbvM8K8XvxCjKL54Sl61mPFAuSq/BfZ4b3nYLoXigqLplBzPZttix3eB2XO+2XiGkp5rx09I8bhpoxtON4jqoHfFANC993pPiOA/bv/POO9P7SYOLbJDwit3waqF43M7YLXA2bbcfN3sfNNPuE044Ie2HM844o64sNK3L+l4De3vQUIYQUgVi99RWTnZ7xBFHVLnfb1UIqWw54IjFSrZcHWvAr2lnzYSskMnmr7Jjr3p53x2yomfTZY9Vx+znuCwh1JdXNYnJoocU7f7etj4pg/NTTz1VIe6yjO34mmuusWLDVtav+HuyEQ+azQyEEUIV+Lv6oJn+7+oGU/mGCdj4ACHUMLrWE8TrCOwHoN5t0cJ5TX+KrQyWn55knn322VVPFLOt0I9q7HzB0utHSAPlovn78dO87FNLK8PqVfR+CKWz8rLz9fWk2AbxmlZRVIaVZVu7we243m3smraep9Qa8MY/1NYOeYzLDp6yddAAMF7MbWk18NI9okFAPcEsULUGCffcc0/uQETlF/VtPWV3epxm74Nm2mX3ufqxES98sWMD9ZOCXpBs98Opp55aWB1b/6W4RfebrMbxE3nLV0/a7YW72QLi907J0lkU9P2i/PIskUqjdVAHH3xw2hYrW9sPf/jDVU//i8opOq/F+LF1yfKXS2uJzPi7Vg8M8sJNN92U+znU51qvNshbsxI7PWnESqHys2xl5Y+nSFobNC2vr/uond/bMasyOMtiWvTwSOc1GMkL9uBQ/ZE3/Tsvjc41MxBWHYz/5z//+aqs7VrVBU50HIFm+r/jGkGF2krAxgdlC6Ehrw1Una+98/vOPzl3fkqB8+smnH/pZzjW+WEjxvjvFOe23nJa2PJf6wTEfN68ec7Pow6ZTZ482flBtRsyZEjdmfsXPjr/4xv6at1113UbbbSRGz58eN3p2xVx4cKFzv8Q1p39Y4/PCnH76/7yg0XnnQ+4SZMmOT84DNzrraw+G36NjvOLx93mm28e/kaOHFlXcvX1xz/+8RDXWyTcW97ylsJ0iuun/Di/nijU0w8gnRd+HdG/hZVu8UJ/3wctVrdtyfXd4Af0zosDp3tryy23dCNGjGhbedmMvTXZPf30085bUtzEiRPD98rYsWOz0Zo+trYNGzYstG3UqFEN5+Wn84U66vdJ353668+g8vU9ou/badOmuXHjxtVdfH99b5fB2b/qIfzG6Dt9nXXWcd5y59RvtYLGDvodq/d7UXk9dsHOFVlufejdFcfNHNhvqT5PhM4m0I7+7+wWU7tGCdj4YPXKpW7o0KHhN1G/Hfpt0neNfiN1Xp97++zXUwZCqB5KxGk7AbvB+0sItb1BFNAUAe6DprCRCAJdT+CxH7zVuTWr03ZsdcgdbsjQ1sS/DYYQQinWjtxJ1qx0M36w2//Vbegwt/Uhd/7fMXsQ8ARsfIAQ4nboSQJ2gyOEerJ7624U90HdqIgIgZ4i8MSl73OrFr06O0INm7rfRW7Uetu21EaEUEv4+i3x8hf+5mb/6iNpecPHb+g2/+DV6TE7EBABGx8ghLgfepLADD81TpMXttpiakMmzZ6EMUgbpae2M2bOdpoYuhVTcAfpXUCzByuBuTcd4xY9cUva/LW3P8itt/OR6XEzOwihZqj1f5oX7j7TzX/g4rTg8Zvv6aa865T0mB0IiABCiPugpwnMmj3HrVi5yk3dZIobNaq+9TY9DWQQNm758hVu9tN+TcwIv+Zi6saDkABNhsDgJbBg+rXuudu+XgGgVasQQqgCZ0ceZK1BquTktx/nJm7zno6sL5UaOAIIoYFjT8n9QOD5eS+6VxYscmtPmujWW3ftfiiRIjqNwAsvznfzX17g1po43m2w/rqdVj3qAwEItJlAdnrciImbuCnvPLnpKXIIoTZ3WIvZSwTNvflYt3LB02lOTItLUbCTIYAQygDhsLcILFu23D0159X54ViFeqtv62mNWYMUd9ONN3SjRzfuRayecogDAQh0LoE8q5Bqq2lyE7bYy41cZ8uWHSh0busHR83kGGHFS4+7hTNvrJgOZ63HGmQk2GYJIISyRDjuOQJmFRrhp0ZNmbw+U+R6rofzGyQRNPe5ed5V/yqsQfmIOAuBQUNg3h++7V5+6LJB014a+n8EJr3hALf+rp/7vxPsQSAigBCKYLDbuwSemfucW7xkWWigpslNGD/O+4cfgQOFHutyOUZYsWKlW7hocZgOp+aNGzvabTSlf98F02NYaQ4EeoIAYqgnurGhRiCCGsI1KCMjhAZltw/ORptlaHC2fnC2mnVBg7PfaTUEighomtyL955f4VK7KC7nu5eA1gSt++bDcI7QvV3YbzVHCPUbagrqBAJaM7Rg4SK3dOmyMGWK94J3Qq+UVwe5yNYUyDFjRruJE8azJqg8tOQEgZ4iIEG0ePbv3bJ5j7hVS+ZVvHS1pxo6WBrjX5Y6fOz6bvT6r3fjpu6OABos/V5COxFCJUAkCwhAAAIQgAAEIAABCECguwgghLqrv6gtBCAAAQhAAAIQgAAEIFACAYRQCRDJAgIQgAAEIAABCEAAAhDoLgIIoe7qL2oLAQhAAAIQgAAEIAABCJRAACFUAkSygAAEIAABCEAAAhCAAAS6iwBCqLv6i9pCAAIQgAAEIAABCEAAAiUQQAiVAJEsIAABCEAAAhCAAAQgAIHuIoAQ6q7+orYQgAAEIAABCEAAAhCAQAkEEEIlQCQLCEAAAhCAAAQgAAEIQKC7CCCEuqu/qC0EIAABCEAAAhCAAAQgUAIBhFAJEMkCAhCAAAQgAAEIQAACEOguAgih7uovagsBCEAAAhCAAAQgAAEIlEAAIVQCRLKAAAQgAAEIQAACEIAABLqLAEKou/qL2kIAAhCAAAQgAAEIQAACJRBACJUAkSwgAAEIQAACEIAABCAAge4igBDqrv6ithCAAAQgAAEIQAACEIBACQQQQiVAJAsIQAACEIAABCAAAQhAoLsIIIS6q7+oLQQgAAEIQAACEIAABCBQAgGEUAkQyQICEIAABCAAAQhAAAIQ6C4CCKHu6i9qCwEIQAACEIAABCAAAQiUQAAhVAJEsoAABCAAAQhAAAIQgAAEuosAQqi7+ovaQgACEIAABCAAAQhAAAIlEEAIlQCRLCAAAQhAAAIQgAAEIACB7iKAEOqu/qK2EIAABCAAAQhAAAIQgEAJBBBCJUAkCwhAAAIQgAAEIAABCECguwgghLqrv6gtBCAAAQhAAAIQgAAEIFACAYRQCRDJAgIQgAAEIAABCEAAAhDoLgIIoe7qL2oLAQhAAAIQgAAEIAABCJRAACFUAkSygAAEIAABCEAAAhCAAAS6iwBCqLv6i9pCAAIQgAAEIAABCEAAAiUQQAiVAJEsIAABCEAAAhCAAAQgAIHuIoAQ6q7+orYQgAAEIAABCEAAAhCAQAkEEEIlQCQLCDRDYNmy5W7BwkVu6dLlbsXKlc1kQRoI1EVg5IgRbsyYUW7ihPFu9OhRdaUhEgQgAAEIQKDXCSCEer2HaV9HEnh+3ovulQWLOrJuVKq3Caw1cbzbYP11e7uRtA4CEIAABCBQBwGEUB2QiAKBMgnMmfu8W7JkachyzOiRbtTIEW748GFlFkFeEKggsGrVard8xUq3dNmKcH7s2DFu4ykbVMThAAIQgAAEIDDYCCCEBluP094BJWCWoGFDh7oJ48cggAa0NwZf4RJECxctdavXrHFYhgZf/9NiCEAAAhCoJIAQquTBEQTaRkBrgp6a82zIf9LEcYigtpEm41oEJIZeXrA4RNl04w1ZM1QLFtcgAAEIQKCnCSCEerp7aVwnETBrkKbDjRs7upOqRl0GGYHFS5aFaXJYhQZZx9NcCEAAAhCoIIAQqsDBAQTaR2DW7GeCdzisQe1jTM71ETCrkLzJTZu6UX2JiAUBCEAAAhDoMQIIoR7r0F5rzrJly9xQv55m5MiRadN0bu7cueHcxhtvnJ7v9B37sK23zsROryr1jI+iIwAAQABJREFUGwQEXnhpQWjl1ltOGwStpYkQgAAEIACBagI2Nlu9cmkYb47wDwhHjRrlxo4dG8aZOtY4dMiQIeGvOof8M0PWrFmT+OD05/fdSv+elBUrVnhvWUvc8uXLw7HODxsxJuQwGH+MFy9+dZ5+PsLaZ0ePHu2GDetdT2MSO4cddpi7+OKLA4gPf/jD7swzz3STJk1yF154oTv00EPdNtts4x599NHaoDroqn3Y6hVCd911l3vuuedyW6AP5Lhx49yECRPcOuus47bYYovwQc2N/NrJ3//+9+6ll14K98173vOeWlG5NggIIIQGQSfTRAhAAAIQqEnAxmYIoZqYyr84Z84ct8kmmzSd8WWXXeY+8IEPNJ2+0xNefvnl7oADDqiopoTPJZdc4o4//nh33XXXuU996lNBHFVE6uAD+7DVK4T+7d/+zf32t7+tq0Wve93r3Be/+EW3zz77eCcMw3PT/NM//ZO75557wjUJIsLgJoAQGtz9T+shAAEIQMA5G5shhPr5bnj66afdpptu2nSpP//5z92///u/N52+0xN+8pOfdOecc47be++93Ve+8hV30EEHuZkzZ1ZU+4orrnD7779/xblOPrAPWzuEkLV7yy23dL/61a9yRTZCyCixFQGEEPcBBCAAAQgMdgI2NkMI9fOdoCmC5557bm6p3/ve95yEksIpp5ySOwVOU5tkBejVoLZNnz7d/eAHP3AHH3ywe/HFF90RRxzhZClSOPDAA90Pf/hDN2bMq1Mru4GDfdiaEUInnnii23rrrdNmrlq1yi1atCislbrlllvc7373u/Ta2972NvfLX/6yaqrc5z//effggw8GZrpOGNwEEEKDu/9pPQQgAAEIYBHqyHtgzz33dLfeemuom9ZWFU116sjKl1SpJ598Mqwlmzp1aoXY0foyrTvTGqluC60IIU2R22GHHQqb/L//+7/uQx/6UHr95JNPdocffnh6zA4EsgQQQlkiHEMAAhCAwGAjYGMzLEId1PPNCCFZB/72t7+5hQsXute//vVuww03LGyRrAmySCmMHz8+tRw8/vjj7oknngiWJq1f0oL8OMyfPz84J1B6DcqVtp4gJxkzZswIVi5N3dp8883TMrPpJXLUBgVZe+StQ0H1ve+++4Io1FohOQioJ6iuElWysCnvjTbaKDgWsHzryaOsOPZha8Yi1JcQUh2vueYa99GPfjSt7t133+222mqr9LiRHXHTOjbdA+uvv36FGO0rnwULFgSnDLqHmhHxWr+k/pEjiFpB96P+5DRigw02qLpfa6XVNd1Tqmutz4q8E8p7TL33m/LVfSYnF0uXLg3OPdZee22d7riAEOq4LqFCEIAABCDQzwRsbFa2EJKnuGT16tWJH1AlfiCceA9piR+0JH5wlfi1Hon39pU88sgjyfQZT4Y/P3ggvEZgjz32SPx9EP68Ragml6uvvjrxwiCNb+n8wDA58sgjE29BqUrvp+Sl8e+4447Ee2FL/KA1Pac8dtppp9A/Sjx79uzEOy6ouG5xvMCpyt9OPPTQQ0ncFqubtn5Rf7gXLK5t//rXv6blfOtb30p0vNtuu6XnLA/l+9hjj1myqq3uvdNOOy0RB0tjW53zU82SWmzV5j/96U9V+bZywu51P9BP6vl7xzvekdbdC6G60sS8v/GNb1Sk8WvKEj/lMNl+++0rzltdvBUy8Q4aQhxjZVul+fGPf5ybTum9YEhOOumkxIumtM5Kqzao7uedd17IV+V7wZ3m8/Wvfz2c/4d/+Ifk4YcfTvy0vjS9X9OU+PVOadx58+Ylp556avKP//iPiRfhaTyVo2PvWTB8r1h7bKv7SOW+5S1vSfwUy8RPN01UnrXNi+PkP//zP9O0uq90rPMWR/krn+effz6tj+WvrX8Ikfipm8nf//3fp2ks7WabbZb4dW7Js88+m5s2zie7r8939ly9x8ccc0zNtHY/tnJPkxYCEIAABCDQzQTst1CaRNpEGkVaRZpF2kUaRlpG40ppm3r/EEIt3BXxYLbWYN17TasadNngy7Z77bVX8sorr1TUxjshSNMde+yx6b6lsa0Eg26MrEiy69rq2qxZsyry14H37laYr6VXWuUfh7/85S9pOj+1K1fIWHptdbPmBQ0C43h5++KXF7wThjStd9KQF6Wpc/Zhq3cg24wQkqi1tkoYxGVJCNi1+Lz2jzrqqPSaxcnberflFXlaPv/xH/9RM72EiOWnPrd0Eg92Pk9EnHXWWSHuAw88UCFeLE12K8Hyxz/+Mc1f5fzXf/1XWsYhhxyS7mfTSoRJeMd1zcbJExfexXthnnH6N7zhDQ2JIbuHJfyMV71bpVHZtYSU3Y9N3cwkggAEIAABCPQAAfstRAh1UGfWI4S8G+SKwZeeVt9yyy3hqbp3rV1hJfLv36loXSyENFiS4JGV6N57702U1r+TpiJvxVGddM1PT0s08IstLV/72tcq8peC9tOa0jwkODQg00120003Jd4TXHptv/32q0gbCyEbRMqy9Zvf/CbRtWzZ3pFCRXodnHHGGWn+qocGlDfeeGNy8803JxJ+cd39Wpqq9LJWWdna+mmHVXGaOWEftnoHs80IoZifhEVcVpEQ8u8XqmivhIMsMTfccEPyk5/8JFh1Yh66T+J8ZaWJr8vKo/S67/xUyIprilckhCwPWVDM4uOnNYay9t133zQfWadkYVL9VM5xxx2XxlceWQEYCyErw6+nSvQ50L1r5+KtxNC3v/3t0IZ3vetdFXG8E4+0/bKExVYw1fNnP/tZuN+8Z8dEwjHOV/WO2fW1b4KmETFUbxq7H5u5l0kDAQhAAAIQ6AUC9luIEOqg3qxHCH32s58NAywN9K+66qqq2mtqlw3AsmIjFkJKrylJcXjmmWfStMpj9913D+bBOI4EkeUvYROH2KLyhS98Ib4U9mXl2nHHHdP6y+RoIR7IK38NRrNBA1ErW/WPQzy1TnHuvPPO+HLYj+uuOH4tTUWc73znO2n+mpZXVrAPW1+DX7vejBDK9t0LL7yQDryLhJCmgRlPs8BYHWz7/ve/P40jPnb+9ttvT89LvIilXdNW92E83U3l1BJCP/3pT0N6TUGT2FcesgZZ/SSs/HqvijIUJ1uPuA5ZIZSd4uc9E6b5qxx9/iRwLA/VxcSFrl977bXptdgCJ3FlaeJtfD+JY3ytnn0rux4x1Ehcux/Lur/JBwIQgAAEINBtBOy3ECHUQT1XjxCqp7q2tiYrFmIhlCdUlHdsFbnyyitzizPLSjb/3MiZk3qKb4NbrSWyEAshWaaKQlw/DSYtxE/4Tz/9dDtdtdWTeSs/y0BCTZYGWckkJMoK9mGrZ/CrOM0IIaWzdmkrkWvlFQkhDeBlZZHIKFoDE4uFE044Ic0ztgZpjZCVFW+1Di2uU5EQ0vqkOJ3tqy/0mdCaHVmZ7Hx2K0uSlRNfi4VQnliRsLJ02spCFqfXvndpn8aJrTqyKGq9kaxC2Sl5lofub8tffWrnG9nWI3DqiROXafdjWfc3+UAAAhCAAAS6jYD9FpYthIZoMZEPwYOS33d+cOnkPUyemuQCWcc6P2zEq++B2XrLaX6sQBCBZrzGZcmJrxdCzi/4D5fUFxb0/qJPfOIT4dAPMp1/Sm2X0q2fjua8dSAcy+PaxhtvnF6znXe+851O3sy8EAret+x8X1u/4Mz56VPhT3FVRz9ID8m8Rce96U1vCvt6iepFF10U9rP/+TUt7rvf/W44LW95fipT2Lc66cAPQN12220Xzmf/kyc5ea9T8I4hnDystTuYZ5J2eY1T/fX58muv0qZ4i0zq3a+ZF6rqs+rFlNMLfC+44IKQr15wK/4Kuk+8FSfs671P6623XtjP/ueFq/PWuXDaf9m4yZMnh/0vf/nL6fu09M4sP5Usm7TPY++EIPSf3pPkHSqE+NoOGzYs7Htx7P77v/877HsLjvvXf/3Xqjxjr3Be/FZ5NYw98uk9Xx/5yEeq8sie0H0uL4x6x9PnPve5cFnvePIPFrJR6zp+3/ve57zly3nB4/xU04o0ta5VRIwO8BoXwWAXAhCAAAQGJQEbm5XtNQ4h1MLtVK8QkrjxT6/DO4c0QJK7Yw3i/FP9qtKLhJB/Wu923XXXqvixEFKe6667blUcDaz92ptCIaQBtF+X4/zaJecdKoR6eccNqXtsy7BICHmvZ86v6bFoFVsJqeOPPz6ci4WQBJEG5AoaxI8cOTLsZ/8LIvy1gbK3bAV3x9k4ZR/bh62dQkgsrD/9VDUnIWShLyH08ssvh/6UgJS7c/WfBGM2SLwcffTR4fRb3/rW4FJdB97akI2aHn/605923oFGOC4SQn4NmvPrcdI0eTt+upzzlpfgKl51VF3lOj4b9Bkw192xEJKg0QOCbND7qpSP3Lvbw4M4znXXXee8Q4hwKk8I6cGD7vM///nP4f7znmdC3eI8tN+KEFL6PMGTd05x+woIob4IcR0CEIAABHqdgI3NyhZCeI3zyqPZUM/UOHmCy3Np7W/YdBpOvB/XJZ4ap2lLeSH2SFc0PUwe6VRGdmqcXAzKeUNcfq19P/BMqxBPjfvmN7+Zns/uxFPg5LrYguqisuSRrq8Qux3vK24Z16e/5io+np5Ua7+ZqXFaoG+sNWUrzr9oapxcSpuHMktba+uFUMhX6Sye1gfFZWX3P/OZz6Rxi6bG5U1Js3y0BijPq5yVn93GU/ziqXFFbsjNOYOcJFiZ8Tb2gqhpcvE1OZSIXW1n62J567zWS8Vpm9mPp8DF+43mZfdjGfc2eUAAAhCAAAS6kYD9FjI1zo9SOiXUYxF6z3ve437961+HKmtq2sc//vEwPUxTkyZNmuTWWmst550khBeJKpK/OdPmxVPj2mER8ovDU4uBCv3Yxz7m/BoUN2XKlFAv1e/73/++84vWQ52KLEJeCLkvfvGLIU72v3osQnqh5ejRo7NJw7GmLZnFQFPJnnrqqdx4ZZ60pw7ttAiJmX9/Uqj2Bz/4QXf22WenTSiyCPl1Ls47pUjjyZIkq5KmFf7d3/2dk9VHlg6ziMQWIV33DhpC2ng6WprZazuf/OQn3aWXXhqOiixCuhf1MuBsUN/IUmTT3nRd99Mb3/hGt+2224ZplXrBr6ZFykKkUGQRktVGabPBLEKyKNoUvjiO91rovDe6cCq2CHkviM4/kIijBl6a3qm6eTEapgvqJcAKrVqErCCzAuk4b6qcxau1xSJUiw7XIAABCEBgMBCwsRkWoQ6SsX1ZhOTO2d+c6Z+ezOcF88ymuHFot0VIXuasfnKXnRdiC0SZFiGzUql8WZeKgl6aaXXcZZddiqKVet6eOtT75L5Ri1DWY555YLPy8ixCfg1LykE85OHMC44qq0VsgfPiNL0eu5aWdzcrK7uNyy6yCMk6mU2n49iaJKuQ2pmNJwuQ9ae28ctLY4uQF0JVaZWXWW0atQjFViq/bii81ypbN7n5trp5UZlbfjZNPceyBumvnrh5cex+LPUmJzMIQAACEIBAFxGw38KyLUJMjWvhJuhLCGl6jw2sil4KKve/FkfbOLRTCPnF+mm5mnpWFOJpaWUKIXnxsnZr8F4U5Jbb4vnF/0XRSj1vH7a8QWneuUaFkLyuWZvkAU5TGuN8YzFi5y+//PI0jbcYVcS3ONrGeUvE2rVY0Eqw2Pl4q/c3Wb20bVQIxWJDwjrO2/blsS0uQ27E7Vq7hJDecRSX+dxzz6VlWtnaekcNabzsdMU4Xn/v2/1Y6k1OZhCAAAQgAIEuImC/hQihDuq0voTQ448/ng6s3vve91bVXC801buD4kFaHKmdQkjlaH2OypZ77QULFsRFh/3s+qEyhVD8jiHVQS9SzYb4nTOKI0tGHGRhk4voQw45JPFTwuJLLe3bh63eAW+9Qkjtie8ZtSl28Wzl5QkhvfxT8fWXJ56UVu8WsjjaSlhYnt4pQMU1vTjXrmmr9VuxkFH6RoXQG97whrQMvbcnzl/7M2fOTOI4KkMixeK1SwjFn0OVmWcRu/XWW1Nrk+LITbnVa6C3dj+2dFOTGAIQgAAEINDFBOy3sGwhhNc4P+ppNtSzRkjerfwAMBTh32bv/BN7t9VWW7n777/f/ehHP6ryfOXv0bQ67V4jJNfcKkPBT88Lroa1VsIPHIPbX3kHi0OZa4SU78UXX5y6N9b6qQMPPDCsHxk6dGhw9y13zwsXLgxVUD0PP/zwuDruS1/6kvNiLZzz7zJyfhpdlTvligR1Htg81GbWCGkdSOya2r+ENng5k4c8W6Nj1fAD/9Sjnp3TNm+NkNbfxGtm1Hda87L11ls7uTKXe3T/rqA4m7BW5owzzkjPye21/iz4d/WEtT7yNuiFVsXaHsXxXza57rOL1gj5lwc775AgZO/fFRTa9va3vz20X27P/buFnBchVnzYak2T1v0oxF7jyl4jFK+REt8jjjjC7bzzzsHb3l133RXqGnu1804V3IMPPhjqNdD/sUZooHuA8iEAAQhAYKAJ2NiMNUIdpGbjp/veLW9uzfSSU3/zFP4pj3i9TJxJuy1CsgKYVSivjrIUxV7pyrQIWTvlcS6v7Phc0ZS4D3zgAxVpZWErI9hTh3otAbFFKK53rf142lq2nDyLkOL4wXtFe/Py9+/eSePoxaWymln+WlPk35OTXs+ml0c1W4Oja7KkWNq47KI1QrLKxemz+etYLzTVtDO7FluO2mURUhtib3JWdnYri1jsVS5vjZPx6M+t3Y9l3NvkAQEIQAACEOhGAvZbWLZFiDVCLdwNsYDxT/4Lc/LerRL/MtB08GcDMA2G/TthKqbHxZl4j21pGuWRF/x7X9I4Gpzlhb333jvEybrPVlyt0dC0PauTbffff/9Ejgr8U/z02n333Zdm771+pee9JSI9n9056aST0njKLy9oMByvRbI6eCtP4r2pJa+99LcqqZhIrCm+t3RUXW/2hH3Y6h3sxo4IrO7xVuJAU628B8HEv3Mp0TS1WnnHQiGOp/Vkxx13XMozLkNTzvxLd0O+WkNk1/7whz9UlSXX3d6zWiKHA4on4aX7SMInFnXxWhr/vqo0T63ziesV72uKmRwNWPm2FQOJKU2F0/ohO+9fEpzmFYu0IhfdJrTU3rhc24/dkuvetfPaFrnPljjTWjQJxRNPPDGtmxxSxOkHat/ux2bvZ9JBAAIQgAAEup2A/RaWLYSYGudHZP0V5CZa085GjBjhNt9888KXiPZXfeJy5KZaL77UCyc1rckPOOPLbd/3H9AwNct7EQtlTZ482ekFqkOGDKlZtqaeqc5jxoypGa+Ri2Z+rXdqXCN5lxF32bJl4QWsejHvOuus4+Tyua/2r1ixIhRd9OJaq1e9L161+EVbL6LCy3l1z2sqqKaa9dWXRXmVeV73i7jpBbb6HIqdGHZyYGpcJ/cOdYMABCAAgf4gYGOzsqfGIYT6o/coo6sI2IetU4VQMzC1Hu3oo48OIvf00093Wt+WDXovzz777BNOSxDZ+6+y8TjuXwIIof7lTWkQgAAEINB5BGxshhDqvL6hRj1GwD5svSSEbrvttvDiXnWVXkYq5wqxFWn+/PnBUYWfuhZ600/Bc97Ndtjnv4ElgBAaWP6UDgEIQAACA0/AxmYIoYHvC2rQ4wRmzX7GrfDT7SZNHOeGDx/WE62V9z15cDOho0b59UBu2223dfLods8996Tt1DQ2v7bITZw4MT3HzsAQWLVqtXt5wWI30k/jmzZ1o4GpBKVCAAIQgAAEBpgAQmiAO4DiBw+B5+e96F5ZsMiNGT3SjRs7umcaLnfY3jlBlZvsuIHeCUFwgS135ISBJ7B4yTK3dNkKt9bE8W6D9dcd+ApRAwhAAAIQgMAAEEAIDQB0ihycBJYtW+6emvOq04ZesgqpN5cvX+6uuOIKp6lysg7pHUJyTCEHGd57oPMe8DrKicfgvANfbbVZg3S06cYbutGjRw1mHLQdAhCAAAQGMQGE0CDufJre/wTMKjTMv9x1wvgxPTNFrv9JUmIzBCSCFi5a6lavWYM1qBmApIEABCAAgZ4igBDqqe6kMd1AYM7c592SJUtDVTVNbtTIEQiibui4Lq6jBNDyFSvDdDg1Y+zYMW7jKRt0cYuoOgQgAAEIQKB1Agih1hmSAwQaJmCWoYYTkgACLRJgXVCLAEkOAQhAAAI9QwAh1DNdSUO6jYDWDC1YuMgtXbo8eJPrtvpT3+4hIO9wY8aMchMnjGdNUPd0GzWFAAQgAIE2E0AItRkw2UMAAhCAAAQgAAEIQAACnUcAIdR5fUKNIAABCEAAAhCAAAQgAIE2E0AItRkw2UMAAhCAAAQgAAEIQAACnUcAIdR5fUKNIAABCEAAAhCAAAQgAIE2E0AItRkw2UMAAhCAAAQgAAEIQAACnUcAIdR5fUKNIAABCEAAAhCAAAQgAIE2E0AItRkw2UMAAhCAAAQgAAEIQAACnUcAIdR5fUKNIAABCEAAAhCAAAQgAIE2E0AItRkw2UMAAhCAAAQgAAEIQAACnUcAIdR5fUKNIAABCEAAAhCAAAQgAIE2E0AItRkw2UMAAhCAAAQgAAEIQAACnUcAIdR5fUKNIAABCEAAAhCAAAQgAIE2E0AItRkw2UMAAhCAAAQgAAEIQAACnUcAIdR5fUKNIAABCEAAAhCAAAQgAIE2E0AItRkw2UMAAhCAAAQgAAEIQAACnUcAIdR5fUKNIAABCEAAAhCAAAQgAIE2E0AItRkw2UMAAhCAAAQgAAEIQAACnUcAIdR5fUKNIAABCEAAAhCAAAQgAIE2E0AItRkw2UMAAhCAAAQgAAEIQAACnUcAIdR5fUKNIAABCEAAAhCAAAQgAIE2E0AItRkw2UMAAhCAAAQgAAEIQAACnUcAIdR5fUKNIAABCEAAAhCAAAQgAIE2E0AItRkw2UMAAhCAAAQgAAEIQAACnUcAIdR5fUKNIAABCEAAAhCAAAQgAIE2E0AItRkw2UMAAhCAAAQgAAEIQAACnUcAIdR5fUKNIAABCEAAAhCAAAQgAIE2E0AItRkw2UMAAhCAAAQgAAEIQAACnUcAIdR5fUKNIAABCEAAAhCAAAQgAIE2E0AItRkw2UMAAhCAAAQgAAEIQAACnUcAIdR5fUKNIAABCEAAAhCAAAQgAIE2E0AItRkw2UMAAhCAAAQgAAEIQAACnUcAIdR5fUKNIAABCEAAAhCAAAQgAIE2E0AItRlwq9n/+c9/dnfddZd76qmn3KpVq1rKbvjw4W7TTTd1u+yyi9thhx1ayovEEIAABCAAAQhAAAIQ6GYCCKEO7r1f//rX7ne/+11bavi2t73N7bPPPm3Jm0whAAEIQAACEIAABCDQ6QQQQh3aQ7IEXXrppaF273//+92OO+7oRo0a1VJtly9f7u677z535ZVXhnw++MEPYhlqiSiJIQABCEAAAhCAAAS6lQBCqEN77rzzznNPPPGEkwh661vfWmot77zzziCGNt98c3f44YeXmjeZQQACEIAABCAAAQhAoBsIIIQ6tJe+/OUvhzVBX//611u2BGWbKMvQcccd57Rm6Bvf+Eb2MscQgAAEIAABCEAAAhDoeQIIoQ7t4mOOOSbU7JRTTmlLDcvOf+nSpW7NmjV113X06NFu2LBhdcfvlIhveMMb3AsvvODe9a53uZ/+9KedUi3qAQEIQAACEIAABCDQIAGEUIPA+it62UIlW++y85c3uqeffjpbTOHxRRdd5A466KDC6516YeLEiW7hwoVur732cjfccEOnVpN6QQACEIAABCAAAQj0QQAh1AeggbpctlDJtqPs/BsVQj/5yU/cRz7ykWy1Ov54IIWQ1o2ddtppgdHll18eHGh0PDAqOCAEVq9e7bbbbrswvXb33Xd3P/7xjwekHhQKAQhAAAIQ6GQCCKEO7Z2yhUq2mWXnHwuhb3/729niqo733nvvMFCrutDhJwZSCGk911e+8pVASG7VNcAlQCCPgN45NmLEiHDpHe94h7v55pvzonEOAhCAAAQgMKgJIIQ6tPvLFirZZpadvwmhTTbZJLz8NVterxwjhHqlJ3u7HQih3u5fWgcBCEAAAuUQQAiVw7H0XMoWKtkKlp1/mUJoyZIlbubMme6ZZ55x48ePdxtvvLGbNm1atgnpcZIkYd2OTowZMyZ9Eq589N4kecfbZptt3DrrrJOmqbXzyiuvuBkzZrgXX3zRycW4/pSHQr1CSAPRJ598MqybUv022mgjt8UWW6R1q1V+9praofzkOOPkk08Ol6+99trUIjR27Ni0foqn+ApiN3ToUKfyp0+fHphuvfXWbquttgrX4/9WrFgR2qx1XltuuWVos9IWhcWLFztNv5LVQcwVVPZf//pXJ34qQ/02ZMiQoizS80r32GOPuTlz5gRGm222Wah3GiHaWbZsmVNdVTe1T0HpxVp/a621Vih77bXXjlLV3n3++efdo48+GtoiZxgTJkwoTFBU/v333+/mz5/v3vzmN7t11123Kv28efOCO/yXX37ZTZkyJTBWvxWFZvmqTyyt3e+77bab+81vfhOKkoOScePG5Ra7cuXKcI889dRToU+nTp3q9LkmQAACEIAABHqVQLuEkDyIJf5HOfGDlMQPXBL/45z4gULiBzuJH+QmfuCRPPLII8n0GU+GPz9YI0QEvvCFLyT6a1coO39vCUr8hyTRttnw0ksvJZ/61KdCPsor/vPrHZLLLrssN2s/+E7jfutb30p07Ad/6TnLZ4899kj8gDs3D530A/jkiCOOqErnB8bJBRdcEO5l7Ss/7ywhNx/d834dT7LBBhtU5aNzJ554YuIHnLlpi06+6U1vqsrL2qStyrNw7rnnpnHvuOOOqrp8+tOftqhh+9BDDyXiEudn+/vss0/4vFYkeO3AOLz73e8O3D7wgQ9U5aF74cYbb8xLHs75AXeiMqy8ePuxj30sfF9kEx9wwAFpfLH2Lx3OZX3IIYck3rtfNnl6rD7QvWLtiMv2ojnx67HSuPFOXL4XRYl3+JHWR3n84he/iKMnDz74YLLvvvtWxLGyjjrqqPC9WJHgtQOrV6N8r7rqqtyyrExts0EcTz/99FyOO+20U/Lb3/42m4RjCEAAAhCAQE8QMB0iTSJtIo0irSLNIu0iDSMto99KaZt6/xBCLd4eZQuVbHXKzr9VIeStGIlf89LnIC5PDP3lL39J0/kXxOYO6OKBoG7wbNBNXjRgtbR+fU46cC4SQt7SltbF0mW3EnuNBInAbB7x8amnnppmd84556Rx80RlLIQuueSSNG6cX7yvftWXQzbYQF19psF6nCa7761X2eTJ7bffnrLMxrdjle0tcxVpY8F1xhln1CzXr43JFZ0LFixINMC3coq2X/rSl8IXXlyBuPw8vrEQmj17dp/3ovLTl2s2NMv3yiuv7LNd2bK++tWv9pnmj3/8YzYZxxCAAAQgAIGuJ4AQ6tAuLFuoZJtZdv6tCCGJkHiAqYG/ntbfeeed4Qm7xE08WL3lllsqmhMLIYt35JFHJn46UKJrF198ccWA9OCDD65Ir4Pjjz8+LUODUAmam266KeQh8WD52jZPCMUDc8tDFhG/UD059thjK+rgp7hV1aHoxMMPP5z86U9/SmTlsPLPPvvscE7nn3vuuTRpLIQsrtL98Ic/DG3xUwVDXD3lsMG24mlQf/XVVwfRo3Z7ZxZpWfvtt1+av+3EaZVelh1ZZ2SNu+6665JddtklTe+nBIYnKpZW29hi99nPfjbxU/eCBUd99t73vjdNmxWN8X1i7ZMVT3XXfSGxGlvjlHc2fPe7303zV91kRbv77ruTBx54IFEfxm0zXpZHtnzFPfroo4O1UtYYE9myLsaWPDGU8NQ9rfJldbL6f/GLX7Ts021ch0b4qlzdEyrH8lc9dE5/2fZ4741pPHHzL3BOvCOO5Fe/+lVy2GGHpddUHz/1MK0fOxCAAAQgAIFeIIAQ6tBeLFuoZJtZdv4mhDSY8u/Zqfm3fPnyiupoGpIN2pSPX09RcV0HcRwNyvwLXNM4WSHkvdal12xHA20rQ+njEE+tUxxNKcsGDbQtvbZZIZTNQwPRbNAgNM5Dg+9GwkknnZSm12A1L2SFkERJXrjiiivSvHQvZIOmju24444hjnhJrMZB56wtsqRlp/vJlCyRYXE0RcyCpsTZeaXNhkWLFqUWG91PcdlZISKRmw0SNJa/ttm+MIGivB9//PFs8uSXv/xlmv6ss86quB6Xr/blpVeCWLRqmp9M6XHwa7EqBNuf//zn+HKFGGuUrzJSfxgDWcbygqaJWhxtxS0bvva1r6Vx8gRxNj7HEIAABCAAgW4igBDq0N4qW6hkm1l2/iaE4oFV0f4nPvGJiurEU+JqiYN4fUY83SoWQhqcFoV4PYrWI1mIn4p7hwR2umr7+c9/Ph0UZoVQPGDUeouiEAu6PAFSlE7nGxVCWc618s67dtxxx6Xt1VqiOMRCaNasWfGldF8c7B645ppr0vP33ntvel7CopEQCxGJjaLw/e9/Py3jzDPPLIqWe17WMqv3gQceWBEnLj9vmqYia5qnpdf9mBX+lqGsXxbvBz/4gZ0O21b4KoN6hJCsrlb+j370o1Bu9j8JOJtGKOFIgAAEIAABCPQSAYRQh/Zm2UIl28yy829ECGmqm4V4wKbBX62gp/82cNP6DQuxENLi9aKgaVKW/m9/+1saLT4fWy7SCK/t/P73v0/TZ4WQnrpb3lnREOfzxBNPpPE0wGwkNCqEZPVpNsgKEwshTauKgw3Uaw2ONb3KmMQDfQkDO6+tLCb33HNPldUkLs/2YyESi2G7btvY6qT8GwmxkNE0vTjE5c+dOze+lO7Lomjtq1W291aXxsuK1lb4qiLx56rIIqR72OpZy4lI/PmwqX9pY9mBAAQgAAEIdDEBhFCHdl7ZQiXbzLLzNyGkAZymE9X6u+2229LqeBfZ6WCsaMBmkWNLQjzAjIWQf+moRa/axlabWAjFFqmip/fKTF7IbOCYFULxmo9aeWhhvOVRS0RUVd6faFQI5U3xy+Yr0aZ1MZr2pKlw6kcbhFs9tS0SQrX6TN7GLI8LL7ywouh4nY7FUbmy+sk64d1MV8S3g1iIFE1LU1xZMqwdWnOWDbL6yLGABvlar6T+U39YXWxbSwhlp7tZGfG0Q+WjfIv+rByxj4PVvVm+9Qih+J4tql+WiaxYBAhAAAIQgECvEEAIdWhPli1Uss0sO38TQto2EuSRzAaDtaY6Kc9nn302jRuvLYmF0De/+c3C4ouEkA326qm71TUrhGzgWk8e8QC0sLI5F8oUQhJk8dQoa1fRtkgIZTnE1a4lhBTvZz/7WboOKa/cz3zmM1Vrj2IhpHVItYKtBVLecdB6sfhaXtl2rhkhJFfrlr7ere6fONj91CzfeoSQlVFvHRXv/PPPj6vJPgQgAAEIQKCrCbRLCA157WmpRiBype38D3N4EaJe9uifmIdjnR824tWXMW695TT/O0swAmW/8NTytW3Z+Tf7QlXv8cxtuOGGoVr+fTbOe/6yKlZt/WDc7bzzzuG8F03OWxnCvndU4PzANux7IeS8F66qtDrhPWI57x0uXPMWIfe6170u7O+5557u1ltvDfveCYMbPXp02M/+pxdvTp48OZz2A1R3ww03pFGUl15aqlArDy9A0pefetHk9PLKeoO3djnvFS1E984S0heqxum9BzTnp1mFU94i5Hbdddf4crr/ne98x3lvZ+mxt7C57bffPrzsUy8lnTRpkvPrbNyPf/zjEEfs3/KWt6Tx63mxrPrSWzRCGvWV+iwvqP+8aHLeUuj8dLqKKN5C5P7nf/4nPafjyy+/PBzrJax5L4fVxfDdMmxYiKd7wzsCCPt6IaoXvukLeL21yO2///7hRa56CavarbZ5C02I74WQ844ywr7+i8tXGXkvjPUutN2//du/hTS6p/1DhzR9dkffhaNGjQovMFVcC63y9VMb05f3qg+850LLOt3G96xe0Fv0Al3ds2qnroulXpRLgAAEIAABCPQCAV6o2qE6tmyLTbaZZecvS4j/QDT8QtX4yXX2qXi2zpoypTL0JzfJFlq1CMn9seWb5znLyvFiKY2XfVKvY8tD9SkKsacuuZhuJJRpEYqnA8pddl6I34nUDotQXplyYuFFWspSTGUJtBBbhOSuuijI1bP1R2xpjK1UYiDLWDaoDpa2GYtQvJYsnsKZLafWsVlrsvdZnCZuS3bqYfy5Kppep/PWzuz7muJy2IcABCAAAQj0KoF2WYR4oWqLd4zeOyOxorfXlx2Up/JWGWWFZoWQyo9FhLci5FbJP32veL/M9ddfn8ZrVQjFThhOOOGENN/sjt5XYwPH7ABV7wWya5qCVxTk2tvixWKuKH58PhZCWt+SF2L32UVrhGJnAJqmVxTiKXxlCiGtz3nxxRcTCQ71a16QgDBOsQvwWAh96EMfyksazsVrkGIX2PH0SG9Zyk2vl6Ja2c0IodjrnD4XOi4K8rgn0ab1Z3EoUwjlrZFSWfH9JC97RUHrtVRH/UlgESAAAQhAAAK9QgAh1KE9qZc8Sqz84Q9/KL2GylN5q4yyQitCKHZfrfU6eZ6p5NbaBqeKEzskaFUIyXGC5a2tXoKaDVrPEsfJCqH4PUVFedx+++0VedSyPmXL1/H3vve9NL3Wz+SFeoSQ0ll/ieWCBQuqssquHypTCEkAGku9wDMvxK7O4/shFkLKQ+3NhvhloooT1/2iiy5Ky5blKRvk1S8WgM0IIeX50Y9+NC0n7z1AiqOX3BqH7ItjWxVCEpiWt7bxS3dVtkL2vtf9mQ0SQRJSllfcF9m4HEMAAhCAAAS6jQBCqEN77P777w9ixcRQGZYh5WEiSPmqjLKCDay1bTRo0KbpSzbYUh6alqWpTxosZge/8cBWZbUqhJRHbKlRPQ477LDk5z//eVjQL5fcVjfbZoWQ8ogH2RrIHnrooSEPvW9GLsNtcKs8mhGhehePla+t8lTesevjeoVQbN2SxzKJLAmISy65JHhui8vRfpa5tSWPg1goFE3dyg7A1dcSn7KO6EWx8mBn5ft1M69m9tr/2XtB8fSuH1n1xEKCwuqma1mrm15kanlrq/hyw626SvxJGMbXmxVC8+fPrxAQ8kx32mmnJbJ4yhKlOsfliEkcrA3N8LV8YocQ6mO9Tyl+n5PixWJMZcqNtzj6NUXhnoh5HHzwwZY1WwhAAAIQgEBPEGiXEMJZgh/ltBp+/etfOy2Kb0d429ve5vxT99KybtZZglVAi7vf//73O7W5VvDue93ee+9dEaVVZwnKzH+anX+K7/yAuiLv+MBPt3L+3Tphob0foFY4S7B4fjDt/DuO7DB36wfn7sQTT8y9VuukHI1ogbsfzFdEO/XUU51/2Ws4V6+zhEcffdS9613vqsrLMvYD4OAYwE8rC6e8ECrVWYKfguj8NDUrLnfrLTPOu6J2b3zjG9PrsbMCtdULuvRadseLmOB8YdhrThPsuvpH/VQU/JRR56c6hsvKo1FnCZav+unNb36zk5ONWsGLE/ee97ynIkqrzhKUmffw5v7f//t/FfnqQPd6HGInIvH5eF8OF1TPsWPHxqfZhwAEIAABCHQ1AZwldLieldVG1gNbMyRLTrN/ykN5lWkJMnxmEdpiiy3sVMPbRYsWJV/96lcrnuj7T1d4ci7LQLwuKM5c78KxeF4UxJcq9uM1EbEVxSJpLYcY2dN4y1Nt0roRBbv27ne/25JVbbVwPZ5eFedz9tlnF66Lqcoo54TqfdRRR6X1UN5xm7XWw8qThadW0DucZPGw+Lb1XtSClUkWBDt33333VWRlHLworTgfH8i6Y+nl6CIb9D4pOYywOLYV7yOPPDJZuHBhNkmFdVCWRFlz8liLUdG7iJRpXh/J+iH30HKgYHWJ3bQrXWzJKVrfpHgWNGUyz6Ko/HVe7uPzQhl89VJcWfhixxgqNxvUjvPOOy+Xo/pCL8ONp6Jm03MMAQhAAAIQ6FYCWIT8yIDQWQRkHfKewpxfUO/0NN+LrODWuL9q6d9P42bPnh0sP1OmTEndezdSvv9CcPPmzQvtUDq53ZaVJc/dciP5Wlwx8sIxPN2Xy+dW8pV7ZO81LLi032yzzdz48eOtmH7Zqny/EN95IepUvqwhRSG2CPkBfNpu72zAzZw508n197Rp0wpdoGfz9VPYQtnrrrtuuM+KXEhn0zV6LJfqfn1NuKfWWWedUFbWUtVono3E96LS6Z6Ra/gxY159ZUE2ve5ZWa/k0l73kzjW6otseo4hAAEIQAAC3UagXRYhpsZ1251AfSHQBQSKhFAXVJ0qQgACEIAABCDQYQQQQh3WIVQHAhAoJoAQKmbDFQhAAAIQgAAEGiOAEGqMF7EhAIEBJIAQGkD4FA0BCEAAAhDoMQIIoR7rUJoDgV4mIC9xv/zlL0MTtY6slbVRvcyJtkEAAhCAAAQg0DcBhFDfjIgBAQhAAAIQgAAEIAABCPQYAYRQj3UozYEABCAAAQhAAAIQgAAE+iaAEOqbETEgAAEIQAACEIAABCAAgR4jgBDqsQ6lORCAAAQgAAEIQAACEIBA3wQQQn0zIgYEIAABCEAAAhCAAAQg0GMEEEI91qE0BwIQgAAEIAABCEAAAhDomwBCqG9GxIAABCAAAQhAAAIQgAAEeowAQqjHOpTmQAACEIAABCAAAQhAAAJ9E0AI9c2IGBCAAAQgAAEIQAACEIBAjxFACPVYh9IcCEAAAhCAAAQgAAEIQKBvAgihvhkRAwIQgAAEIAABCEAAAhDoMQIIoR7rUJoDAQhAAAIQgAAEIAABCPRNACHUNyNiQAACEIAABCAAAQhAAAI9RgAh1GMdSnMgAAEIQAACEIAABCAAgb4JIIT6ZkQMCEAAAhCAAAQgAAEIQKDHCCCEeqxDaQ4EIAABCEAAAhCAAAQg0DcBhFDfjIgBAQhAAAIQgAAEIAABCPQYAYRQj3UozYEABCAAAQhAAAIQgAAE+iaAEOqbETEgAAEIQAACEPj/7N0LbBRF/MDx358WqwZQEwFFGtNiiVrFghTBR31EEG3EqoG0GpVoCEhA4xMVU7WRCIqoCFIJvqJYRYNVrESMUYtCFVPxhYjV/rGIgggK+KhW7z+/+bubveNu79relmP9bnLe7s7s7Mxna3I/ZmcGAQQQQCBkAgRCIXugNAcBBBBAAAEEEEAAAQSSCxAIJTciBwIIIIAAAggggAACCIRMgEAoZA+U5iCAAAIIIIAAAggggEByAQKh5EbkQAABBBBAAAEEEEAAgZAJEAiF7IHSHAQQQAABBBBAAAEEEEguQCCU3IgcCCCAAAIIIIAAAgggEDIBAqGQPVCagwACCCCAAAIIIIAAAskFCISSG5EDAQQQQAABBBBAAAEEQiZAIBSyB0pzEEAAAQQQQAABBBBAILkAgVByI3IggAACCCCAAAIIIIBAyAQIhEL2QGkOAggggAACCCCAAAIIJBcgEEpuRA4EEEAAAQQQQAABBBAImQCBUMgeKM1BAAEEEEAAAQQQQACB5AIEQsmNyIEAAggggAACCCCAAAIhEyAQyvAHunbtWmloaJCWlhZpa2vrVG2zs7MlNzdXhg8fLkVFRZ0qi4sRQAABBBBAAAEEENiXBQiEMvjp1dXVSX19fSA1LCkpkdLS0kDKplAEEEAAAQQQQAABBDJdgEAoQ5+Q9gTV1NTY2pWVlcmQIUMkJyenU7VtbW2VxsZGqa2tteVUVFTQM9QpUS5GAAEEEEAAAQQQ2FcFCIQy9MlVV1dLc3OzaBA0YsSItNZy9erVNhjKy8uTSZMmpbVsCkMAAQQQQAABBBBAYF8QIBDK0Kc0ffp0Oyaoqqqq0z1BsU3UnqHKykrRMUMzZsyITeYYAQQQQAABBBBAAIHQCxAIZegjnjZtmq3ZrFmzAqlh0OVv2bJFPv74Y/nss8+kd+/ecsIJJ8gxxxwj3bt3D6Q9XVHob7/9JtqLptv48eMlqGfTFW3hHggggAACCCCAwH9dgEAoQ/8Cgg5Ugir/ySefFC1769atcWXHjRsn+trfIYccEjc9k0/u2rVLevXqZat41VVXyaJFizK5utQNAQQQQAABBBBAwEeAQMgHZ28mBRWoOG1Kd/l//fWX3HjjjTJ37lznFgm/8/Pz5aWXXpJBgwYlzJOJCQRCmfhUqBMCCCCAAAIIINAxAQKhjrkFflW6A5XYCqe7/GuuuUYefvhh9zbXXXedjBo1SgYOHCg//fSTfPLJJ3LnnXfKpk2bbJ6ePXvaXqP999/fvSbTdwiEMv0JUT8EEEAAAQQQQCB1AQKh1K26NGe6A5XYyqezfA10Dj30UPcW77zzjug6RbHbzz//LBdeeKG8/fbbNmnp0qX2ODZfph4TCGXqk6FeCCCAAAIIIIBA+wUIhNpv1iVXpDNQiVfhdJb/7rvvymmnnWZvc9ZZZ8mbb74Z75b23KpVq+SUU06x+xoUaTCUaNPJCb755hvZvHmz9OjRQ4444gg58sgjE2WXSCQiGqzodsABB7gTM2zbtk10Xab+/fvLUUcdZWfL8xai92lqarI9VMcff7z07dvXm+zuJwqEfv31V9mwYYP8+OOPkpubKwMGDJD99tvPvc6709bWJno/3bRN3bp1s/XW67WtBQUFto7ea3T/n3/+kW+//dbWs0+fPnL00UcnvEfstRwjgAACCCCAAAII7CkQVCCkP9wif//9d8T88Iv8+eefEfNjMbJjx47Id999FzE/+CJffvll5IsvvohsaPpf+zE/Ytk8AjfffHNEP0Ft6Sz/9ddfj5g/LfsxkwgkrfJ7770XWblyZcTMKBc37/bt2yNTpkxxy3TK1u9jjz02smTJkrjXffrpp+41M2fOjJj1kiJmIVr3nF5vgojIq6++aq/Xv8k77rgjKl3zmIDJzeO90c6dO9282k6tp3kF0D3n1FPvMX/+fO+l7v6CBQvc/Opw33332To515pXDN28umN62yJmhjr3GieffhcXF0e0DDYEEEAAAQQQQACB9gs4cYjGJBqbaIyisYrGLPo7UWMYjWU0ptHYJtXP/2hGs9l/7Tb7ooPpTWH2X8N1HRs91vNZ3Q8wv+lECgYcab/5z/8LpLPHJp5pOsv3vhqnvRUffvih7RmJd99k537//Xc555xzxARKvllNMCRjx46NymMCIXcCBl0oVnubEs1ep6/nPfDAA/Lyyy9HleE9MAGeHefknPP2CF1yySXy1VdfyZo1a5zkPb4XLlwoEyZMiDpvAiGZPHmyPWeCPZk3b15Uuo61euihh+w5HVc1cuTIhG1wLtSJJ3ThXTYEEEAAAQQQQACB1AWC6hEiEEr9GcTNmc5AJd4N0l1+YWGhrFu3zt5KgyH9MV9aWio6KUKqm4m2paKiQl544QV7ien9kcsvv1xOP/10+3rcG2+8Yafedsp766235IwzznAOxRsIOSfvuusuG8zo+CSd0W758uVOkv3W1+V0cdmhQ4faiRx0bSDTy2LT9HW/+vp6N783EHJO6gx4V155pZx55pli/gVB6urq5KmnnnKSRV8bdF4F1JPeQMjJpFNxa57DDjvMfgYPHmyTxowZI8uWLbP7Ghxedtlldj0mfbXuueees4GcJqqx+ZcLycrKsnn5DwIIIIAAAggggEByAQKh5EZ7JUe6A5XYRqS7/I8++sgGLM4YHed+F1xwgR0/NHz4cDnppJP2GJ/j5NPvRx99VLQnRzcNULRM7yQMet6bJ3bmudhAqKamRsrLy/Uyu2kvpAYsTqCjAZt5fU40mHG2X375RY477jh3dju9Jjs72ybHBkJ6vdaxX79+zuX2W2fH0wBMN21HS0uL3df/xAZCGpiNHj3aTXd2dFyUjgPSe2qw99prr9lxT066fuvMfA8++KA9pWOgdNFaNgQQQAABBBBAAIHUBIIKhBgj1P7XFKOuSOcYnqiC/z0IovzGxkY7vsb86cUd02ICh4gJwBKODTI9MO51H3zwQbxq23NmUVY3nzPeRxPMq2TueR0bFG+bPXu2m0fH98TbTM+Lm2f9+vVuFu8YIW2j6ZFy07w7+i6pty0//PCDm/zII4+4ZZtX5NzzHdkxPWRuWSZA7EgRXIMAAggggAACCPxnBTb8O1dBuscIEQh18k8qiEDFW6WgytfBZGb8TUQnE0gUEOn5p59+2ludiOl5cfObnp6otNgDvdYp+9Zbb3WTvYFQoiBHJ1pwrjWvl7nXenfuvvtuN4+W6WyxgdC/4+Cc5KhvnQTBuY8GLM7mDYRefPFF53S7v/XeGog595gzZ067y+ACBBBAAAEEEEDgvywQVCDEGCHzC7UzW7pfXYutS9Dl6/10qujPP/9cGhoa7KQEseNznn32WTsmSPN+//337itmyabgNj1PcuKJJ+plYmZUkyeeeMLue1+Nu+eee+SWW26x573/0fFHpkfJntKJEnQcTuxmZpwTE2DZ0zphgU6prZv31Tgd06PjfxJt2tbzzjvPJt9///1y/fXX233vq3H6it7JJ5+cqAh73vQmyYoVK8QEPdZSJ6bQabpjX0E0gZB9Vc63MBIRQAABBBBAAAEEXAFejcvQMDioHhunuUGX79zH+21mWYuYAMLtxdB9Z9MuSfNXaT/JpuDWV82cvGYMklNE1KtxJhByz3t3vD1CJhDyJrn7eq1TfqIeoSuuuMLNH2/H2zulU4E7m7dHKNnU12ZcUER7x5y6+H3TI+QI840AAggggAACCKQmQI+Q+XWZiVvQPTZBl5/IVHs08vLy3B4NXYz0wAMPlC1bttgZ0/Q6nRxAe0ASbTpl9bBhw2yyzri2aNEiu9+VPUI6+YNOtJBoM2OX5Pzzz7fJOqHBtddea/dT7REyY6Ts5BJO+eeee66ceuqpdkHZgw8+WPRj5rsXbb9u9Ag5UnwjgAACCCCAAAKpCdAjlFrA2OW5gu6xSWf5zzzzTOTee++NmFfA7KJTybDMq29uL4f2EunWnjFC5lU49/rbb7/dvZ23FyboHiHzv5ddXMu9ecyOLuiqefSjY3mcLdUeITPrnHu9Lvoab9OJIpx70CMUT4hzCCCAAAIIIIBAYoGgeoSYLCGxeUopt912W0SDlT/++COl/O3JpGVq2XqPdGxmymv3B/krr7ziW6Su0uv8eNdvPXY2s3iom+YNHpx0/dZJAkxPi5vPLHrqJnd1IOSdsc6thNnRVYiLi4vdOpoxPW5yqoFQolnn3ILMjll81b0HgZBXhn0EEEAAAQQQQCC5AIFQcqO9ksO8QmWDlVWrVqX9/lqmBkJ6j3Rs5hUx9we5WQQ14p1y2lu+BmA6XsYJhDRY8G5mIVI3TafaNguUepPtvlnwNCpPa2urm6erAyEdv9Pc3Oze39nRGeucNg4cONA5bb9TDYTMIq1uGeZVwKgy9MA7dbbei0BoDyJOIIAAAggggAACvgJBBULMGmd+nXZm0wUydUFQ3crKysSsiyM5OTmdKVJM0CA641ptba0tp6KiQoqKijpVpl5s/sLsIqTr1q1zy7rhhhvsGJcBAwbI7t27RcfvPP744/b+TiYdR1NaWuoc2nImTJggjz32mD2ni5FeeumldmY1HVukM7HprG/OpmOFhg4d6hzaewwaNMgeBz1rnHNTXVTVTJwgOovc1q1bZdmyZfbjpKv34MGDncOoBVX9Zo17/vnn3cVg9R5XX3216Gx6uuDrypUrxUzP7ZapO4wRiuLgAAEEEEAAAQQQSCoQ1BghAqGk9Mkz1NXVSX19ffKMHchRUlISFYR0oIioS3RKZ7MQqZhX1aLOxzswPSliZm+T0aNH75GsU25r4Kdt99vMjGqiEwh4t66cLEGDn82bN4vpmfFWIWpfA9ny8vKoc6lOlqDB40UXXeRbvhk7JGYskS2fQCiKmQMEEEAAAQQQQCCpAIFQUqK9m0F7hsYJsFAAAAaJSURBVHQdnpaWFrsuT2dqk52dLbm5uaIznqWjJyi2LmYxVdE1eKqrq2XTpk2xyfbYjAOS+fPnS0FBQdx0PakzyZlX4ERnW4tdL0dnlNM1fkaNGrXH9dojVVhYaM+byRvkpptu2iPP0qVL5eKLL7bnY3uknMza22JeHbSHug6Sed3P7mu9evToYffNuCjR9YH0U1lZ6Vxqv/Pz86Wqqsr2ZkUlmIOFCxfKxIkT7WmddU6fRaLNjDWyayEtXrzY9jY5+bTXS2105jjtKdRt7ty5MnXqVCcL3wgggAACCCCAAAJJBAiEkgCR3DGBHTt22AVAm5qa5KCDDrKLkmqA0K1bt5QL1N4hXVBUX4vLysoSfVVOf/xn2qb13Lhxo+zcuVP69u1rpwFvTztTaY8Gwtu3b7eLzvbu3TuVS8iDAAIIIIAAAggg4CNAIOSDQxICCCCAAAIIIIAAAgiEU4BAKJzPlVYhgAACCCCAAAIIIICAjwCBkA8OSQgggAACCCCAAAIIIBBOAQKhcD5XWoUAAggggAACCCCAAAI+AgRCPjgkIYAAAggggAACCCCAQDgFCITC+VxpFQIIIIAAAggggAACCPgIEAj54JCEAAIIIIAAAggggAAC4RQgEArnc6VVCCCAAAIIIIAAAggg4CNAIOSDQxICCCCAAAIIIIAAAgiEU4BAKJzPlVYhgAACCCCAAAIIIICAjwCBkA8OSQgggAACCCCAAAIIIBBOAQKhcD5XWoUAAggggAACCCCAAAI+AgRCPjgkIYAAAggggAACCCCAQDgFCITC+VxpFQIIIIAAAggggAACCPgIEAj54JCEAAIIIIAAAggggAAC4RQgEArnc6VVCCCAAAIIIIAAAggg4CNAIOSDQxICCCCAAAIIIIAAAgiEU4BAKJzPlVYhgAACCCCAAAIIIICAjwCBkA8OSQgggAACCCCAAAIIIBBOAQKhcD5XWoUAAggggAACCCCAAAI+AgRCPjgkIYAAAggggAACCCCAQDgFCITC+VxpFQIIIIAAAggggAACCPgIEAj54JCEAAIIIIAAAggggAAC4RQgEArnc6VVCCCAAAIIIIAAAggg4CNAIOSDQxICCCCAAAIIIIAAAgiEU4BAKJzPlVYhgAACCCCAAAIIIICAjwCBkA8OSQgggAACCCCAAAIIIBBOAQKhcD5XWoUAAggggAACCCCAAAI+AgRCPjgkIYAAAggggAACCCCAQDgFCITC+VxpFQIIIIAAAggggAACCPgIEAj54JCEAAIIIIAAAggggAAC4RQgEArnc6VVCCCAAAIIIIAAAggg4CNAIOSDQxICCCCAAAIIIIAAAgiEU4BAKJzPlVYhgAACCCCAAAIIIICAjwCBkA8OSQgggAACCCCAAAIIIBBOAQKhcD5XWoUAAggggAACCCCAAAI+AgRCPjgkIYAAAggggAACCCCAQDgFCIQy/LmuXbtWGhoapKWlRdra2jpV2+zsbMnNzZXhw4dLUVFRp8riYgQQQAABBBBAAAEE9mUBAqEMfnp1dXVSX18fSA1LSkqktLQ0kLIpFAEEEEAAAQQQQACBTBcgEMrQJ6Q9QTU1NbZ2ZWVlMmTIEMnJyelUbVtbW6WxsVFqa2ttORUVFfQMdUqUixFAAAEEEEAAAQT2VQECoQx9ctXV1dLc3CwaBI0YMSKttVy9erUNhvLy8mTSpElpLZvCEEAAAQQQQAABBBDYFwQIhDL0KU2fPt2OCaqqqup0T1BsE7VnqLKyUnTM0IwZM2KTOd4LArNnz5bly5fbO48bN04mTpy4F2rBLRFAAAEEEEAAgf+OAIFQhj7radOm2ZrNmjUrkBoGXb5W+uuvv5b169fLxo0bZffu3XL44YdLQUGBFBcXS1ZWViDt6spCCwsLZdu2bXL22WfL4sWLO3zrTZs22UkstICePXtas379+nW4vHRcOGbMGHn//fclPz9ftAeRDQEEEEAAAQQQCJsAgVCGPtGgA5Ugy9cJHmbOnOn2cMQS9+nTRzTAGz9+fGzSPnXcq1cv2bVrl4wcOVJWrFjR4bpPnjxZFixYYK/XcWHl5eUdLitdFw4bNkzWrFkj/fv3tzMWpqtcykEAAQQQQAABBDJFgEAoU55ETD2CDFT0VkGVP2/ePJk6dWpMa+IfTpkyRebMmSPdu3ePnyHDz6YjEGpqarK9ZNrUsWPHypIlSzKi1QRCGfEYqAQCCCCAAAIIBCgQVCD0fwAAAP//MOlRYQAAQABJREFU7J0HvB1F2f8n5SY3vdB7IBSlKIIoiGB5Vf6+SJMioDQRBASUKvBCIAEEBekQkV4EpEhTkCa9KUjvCSVIkRZI7+c/vz2ZzezePeeeMufes/d85/O52TYzO/Od2ZP57TPzbK8FCxYUbDD6s/tm7ty5Zs6cOWbGjBlm9uzZ0bHO92kbYBRWG71StOWfIoFf//rX0c5vf/vbhiBpRP7nnnuu2X///ePyrrnmmubII480X/ziF03fvn3NM888Y+6++25z0UUXxXE22WQTc+edd5r29vb4XF52hg4daqZOnWq++93vRnWopdx77LGHufTSS82QIUPMxIkTzRJLLFFLNsHTfOUrXzH/+te/zPLLL2/efvvt4PmTIQQgAAEIQAACEOhuAq9NfCsqwvy5M03v3r1NW1ub6d+/vxk4cKDp169fdKzzvXr1iv4qLW8vhFClqLLjNUKo+HcKnf+kSZPMSistErP77befOeuss0yfPn3820b7f/vb38xOO+0UiQidkNg7/PDDO8Rr9hMhhNCECRMiDhJAEh3NEhBCzdISlAMCEIAABCAAgUYRQAg1imyd+YYWKunihM5/zz33NBdffHF0m6222srceOONZZXzTTfdZLbZZpsovqwhn3zySWQ10glZDmfNmhWl17VSQdbFefPmRWp9wICiZTErrvKT4PjPf/5jRo8ebVZeeeVI9WfFTZ/77LPPorQff/xxlE5pZd1SKCWEZAWVpUhB5dLbBYX333/fPPvss2bEiBFmgw02iM65OihPvX0oFVTPN998M7LOKM911lnHDBo0qFT06P4qhyxteqORFZSn7q8wePDgBJNKhVA9bLPKxDkIQAACEIAABCDQVQQaJYQ0Ha4wf/78gh1sFexgqTB9+vTC5MmTC++8807h9ddfL7zyyiuFl156qfDqhDejPztoI3gErIWkoL9GhZD526mOBStYCrbTRn+vvfZap8VW3/jCF74Qp3n88cfjNIcddlh8Xv2lVFhyySWjeHZ6XWaUF154ofDNb34zzsuVT9vNN9886ouZCe1JK4AK++67b4e0qucFF1wQ9WtXZzs1LpHNc889F6c7+eSTC3fddVfBThOMz62++upxfGsFis5bYRSf83f0HJ122mkFV1e/DsrznHPO8aNH+1ZUxveyUxU7XHcnLrnkkjjevffe605HW5VH91L5skI9bLPy4xwEIAABCEAAAhDoagJOh0iTSJtIo2jsKc0i7SINIy2jcavGZJX+IYTqbMmQQiWrKCHzv+eee+IBtcRNpcFaaAr//Oc/oz8N3l045JBD4vwqEUIbb7yxSxpvr7zyyjgPXzz4+xrkq+Ongzq8tWqVTX/00UfH4i8thKzVJ067yy67xPHcvasRQrqPS1dqu9tuuxWsZSeuhrVexWnsFMX4fHrHrtWK46kN/VBOCNXD1r8H+xCAAAQgAAEIQKA7CSCEupN+mXuHFCpZtwmZv6wSbpC+++67Z92uqnP1CiEpeGetUblkFbnlllsi0WOdNRS+//3vx+W10/M6lO3YY4+NrysfO42woHS33XZb4cADD4yvuTqXE0Iuju55xhlnFG6//fbCHXfcEd+znEVo/Pjx8b1UjoMPPjiyLqkcqpNfx3HjxsV5NlII1cs2LiQ7EIAABCAAAQhAoJsJIIS6uQFK3T6kUMm6R8j8x4wZEw/YNY2r3lCvELr++uvj8qie6WA9GBbWW2+9KI7EhCxALvjT2iRiHn74YXcp3kpUOYGjbWdCaOzYsXHa9E4pIaSpZ/49/vGPf6STFv7973/HcTR1TlMUFRophOph26ECnIAABCAAAQhAAALdSAAh1I3wy906pFDJuk/I/Pfee+94QO5bO7LuW8m5eoVQJffwxZtEhwuXXXZZXBfrzc6d7rD11zGVE0KrrLJKh7T+iVJCSOLJCaETTjjBT5LYP/3006N1UFoL9fzzz0fXGimEEjcvcVCKbYnonIYABCAAAQhAAALdQgAh1C3YO79pSKGSdbeQ+e+zzz7xoF1Tv+oNjRZCsgD5g3X7vZy4yAcddFBcFycs4ovezoMPPhjHKyeEDjjgAC9Vx91SQujb3/52nL/WHFUTulMIlWNbTR2ICwEIQAACEIAABBpNoFFCiO8I2df59YTQ7q3TZQmZ/3HHHWesBSO6xamnnmqskEnfrqrjQw891Pz+97+P0lhnCWbZZZfNTL/UUkuZDz74wFhnCeahhx7qEOfFF1801gmAsR7RzFtvvRXFlTts59raJdCHQ7/85S9Hh5tuuqmxIifa14d/S7metmLDLL744lE8K4QSH1S10+uMdRoRXTvppJPMEUccEe1n/bPCCitEbr3lTts6joijrLHGGubVV1+NjuVKXB/3qjTIFfliiy0WRdf3nPSh26wgd+dye64gTlZ8xdE6c59dC9s4c3YgAAEIQAACEIBAExDAfXajpWaN+Ye02GQVIWT+dqAdWy/kwazeUK9FSC4O5bbaPl8V/fkWIeemWpaazoLLv5xFyAqhstmUsgg5RwgqT7WhkRahethWWw/iQwACEIAABCAAgUYSwCLUBGo0qwghLTaNzv/+++83do1KdBtZQp555pmsW1Z8rlKLkPugadoiZB02JKxS1pOd+eIXv2iWWWYZM2zYMDN8+HBz/vnnm0svvTQqk28R+ta3vmXuu+++6PzMmTOjD5JGB6l/ZImSRUqhERahtdZay8jqojBt2rSyH0+NInn/VGoRuvDCC81ee+0VpazUIlQPW6+I7EIAAhCAAAQgAIFuJ4BFqJEys468Q1pssooRMn95YXMWDNujC77zgax7u3Naj6PvDunvySefdKcLviOCUnnJjbPupb/0d4T0gVV3TW6vs4JcYrs4vkXIt0ZZQZeVNDpnxVKcvhEWoc022yzO3y9fyQJ5F/wPqu64447eleSu7ya80u8I1cM2eXeOIAABCEAAAhCAQPcSaJRFiA+q1tmuRx11VEFixa4PqTOnjsmVp/LWPUIF32GCBvG+S+qse/iun+VZTWLKBX+q3V//+ld3OrH1nRX4QkgfFnUCx/9waSKxPdA1F88XGldccUV83q59SieLj/fdd984XiOEkF1rFecvwVgqOK9xEiivvfZaFE1fPXbCVG7CSwXfIUMlQqhetqXKwXkIQAACEIAABCDQHQQQQt1BvYJ76mOaEiuPPPJIBbGri6I8lbfuESpYpwbx4FsCY5dddinMmTMnM/snnngiIUTS5bCOD2IRsMUWW3TIQ9agDTfcMI7jCyFFdututL5mypQpHdKn1w/5Qujll1+O81U97rrrrg7pr7rqqkScRgihN954I3EPfb8nHXxOqrMvJlUmJ/SsE4Z00sKNN94YX1e8SoSQMqmHbYdCcAICEIAABCAAAQh0I4FGCSG8xtnRZT3h6aefNldffXWUxdZbb23sm/2qPIdl3Vte0Kwlxtx0003R5Z122smsu+66WVFrOqc1N3vssUec1g6azZFHHhndo7293bz00kvmscceM+ecc04ijhUfiTUw8uymdTwubLvttpF3M63vkSc1eWJzHtUUJ71GSJ7SrLiKkovbrrvuar761a+aiRMnGvsxVHPttde6rKOtFUKx1zidkMc6rVNywX4nKfKoZi0txroHN9Zq5C5FWys6gnuNU8Y33HCD2W677eJ7WUcUZvPNNzd9+vSJPOHZbx7FHvDOPvtss//++8dxrXtwc/zxx0fH1jpk7DeRonVSkydPjsp61llnxXG1U+kaoXrZJm7KAQQgAAEIQAACEOhGAo1aI4QQCtCof/vb38wDDzwQIKeOWchNtAbVoUNaDJXLf5tttjEXXXSRGTFiRIdo1mJhfvjDH3Y4707svPPOxq7/yXSf/corr5jvfOc7kVtqF9/fWkuR2WGHHWJBlhZC9sWEkehICx4/DzslzUhsyBV3o4SQ7nfmmWeaX/3qV/6tO+zbaXrmjDPOSLj6ttPYzPe+9z3z8MMPd4jvTkjUnHfeedFhpUKoXrbu3mwhAAEIQAACEIBAdxNACHV3C3Ryf1mGZEV5++23jV1300ns8pf79u1r9N0aO60sqCUofVfr+MD87ne/62B5cfHs+hxz4IEHGg3Ee/Xq5U532MoiJsEhoeIHu8jf2Kl9ZuWVV46EkDzW6VtBfnjvvffMz3/+c3Prrbf6p42sS3ZqnPn73/9u7MdOo2uykn3pS19KxJOQOPHEE40sLf53h+x6JnPKKadEIs15rbNroqL8XAby9iavbwriYJ0/uEsdtqNHjzavv/561CaPPvpoh+s6IUGmMjsvci6Svj0kEeRb4dw1bWX9kZXICUZ3TelkEZJVTYJPQZ7/JI5d2GijjaJ+p/rKkuaHetn6ebEPAQhAAAIQgAAEuosAQqi7yLfAfd9///1osD1p0iQjK8tqq61m1l57bTN48OCqai9RMmHCBDNw4ECz0kormba2torT2+/eRGnt+hkzatSoqu9t1zkZlV9iSO63l1566YrvHTKi+H300UdGIkQfeZWAqoaDxJZdW2WWW245M3LkyCBFq5dtkEKQCQQgAAEIQAACEKiRAEKoRnAkgwAEIAABCEAAAhCAAATySwAhlN+2o+QQgAAEIAABCEAAAhCAQI0EEEI1giMZBCAAAQhAAAIQgAAEIJBfAgih/LYdJYcABCAAAQhAAAIQgAAEaiSAEKoRHMkgAAEIQAACEIAABCAAgfwSQAjlt+0oOQQgAAEIQAACEIAABCBQIwGEUI3gSAYBCEAAAhCAAAQgAAEI5JcAQii/bUfJIQABCEAAAhCAAAQgAIEaCSCEagRHMghAAAIQgAAEIAABCEAgvwQQQvltO0oOAQhAAAIQgAAEIAABCNRIACFUIziSQQACEIAABCAAAQhAAAL5JYAQym/bUXIIQAACEIAABCAAAQhAoEYCCKEawZEMAhCAAAQgAAEIQAACEMgvAYRQftuOkkMAAhCAAAQgAAEIQAACNRJACNUIjmQQgAAEIAABCEAAAhCAQH4JIITy23aUHAIQgAAEIAABCEAAAhCokQBCqEZwJIMABCAAAQhAAAIQgAAE8ksAIZTftqPkEIAABCAAAQhAAAIQgECNBBBCNYIjGQQgAAEIQAACEIAABCCQXwIIofy2HSWHAAQgAAEIQAACEIAABGokgBCqERzJIAABCEAAAhCAAAQgAIH8EkAI5bftKDkEIAABCEAAAhCAAAQgUCMBhFCN4EgGAQhAAAIQgAAEIAABCOSXAEIov21HySEAAQhAAAIQgAAEIACBGgkghGoERzIIQAACEIAABCAAAQhAIL8EEEL5bTtKDgEIQAACEIAABCAAAQjUSAAhVCM4kkEAAhCAAAQgAAEIQAAC+SWAEMpv21FyCEAAAhCAAAQgAAEIQKBGAgihGsGRDAIQgAAEIAABCEAAAhDILwGEUH7bjpJDAAIQgAAEIAABCEAAAjUSQAjVCI5kEIAABCAAAQhAAAIQgEB+CSCE8tt2lBwCEIAABCAAAQhAAAIQqJEAQqhGcCSDAAQgAAEIQAACEIAABPJLACGU37aj5BCAAAQgAAEIQAACEIBAjQQQQjWCIxkEIAABCEAAAhCAAAQgkF8CCKH8th0lhwAEIAABCEAAAhCAAARqJIAQqhEcySAAAQhAAAIQgAAEIACB/BJACDVx2730nwXmgrvmmcdeXWBmzy0EKWn/tl5mw9V7m72+29d8fvneQfIkEwhAAAIQgAAEIAABCOSNAEKoSVtMImjPc+cEE0DpakoQXfSLfoihNBiOIQABCEAAAhCAAARaggBCqEmb+eBL5pj7X5jf0NJ9Y60+5rQ9+jX0HmQOAQhAAAIQgAAEIACBZiSAEGrGVrFl+tqRsxpmDXJVllXokZPa3SFbCEAAAhCAAAQgAAEItAwBhFCTNvX6h84MUrL1R/c2P/9emzn/zrnmyYkLOuT55KkDOpzjROUE3nnnHbPkkkuatra2yhMRs0cQKBQK5q233jKjRo3qEfXJSyUmT55sevfubYYNG9blRZ49e7b5+OOPzbLLLtvl9+aGEIAABCAQngBCKDzTIDmGEEISQX/ct39cnr3Hz+4ghkIJoZkzZ5oFCxZEA5QBA5pHXD3wwANm++23jxicf/75Zuutt4551Lvzy1/+0px11lmREPrnP/9pVlpppXqzJH1OCMydO9dsuOGG5t///rfZeOONjfqZBufNEq688kpzyCGHRMW57bbbzPrrr98sRaurHNdcc43ZaaedojxuueUWs8UWW9SVX1bitdZay3z00UfmO9/5jvnTn/4UR3n55ZfNV77yFTN16lRz9NFHm+OPPz6+xg4EIAABCOSTAEKoSdsthBCSCJIY8kNaDIUSQiussIL5z3/+Y5Zffnnz9ttv+7fs1v2///3v5vvf/35UhiuuuML85Cc/CVKeGTNmmEGDBsV5nX766eZXv/pVfMxOzyZw3333mW9961txJZ944ommEht/+MMfzL777huV76GHHorEWlzYHO9suumm5sEHH4xqIBEkMRQ6DB06NBI73/3ud82dd94ZZz9u3Dhz7LHHxsfz589vKvEbF4wdCEAAAhComABCqGJUXRuxXiGUJYL+eOe8aIqcXxOEkE+jun0NhDUgVmi2gXBUKP5pGIHPPvvMDB8+PMp/yJAh5r///a9pJktoTxVCJ5xwgjnmmGMi7meccYaRVTZ0KCWE7r//fvPNb34zut1WW21lbrrpptC3Jj8IQAACEOhiAgihLgZe6e3qEUJaE7T39/ombqX1QbIGpQNCKE2k8mNNB/zHP/5h1lhjDbPqqqtWnpCYPYLABx98YB555BEjK8XIkSObqk49VQhpXdbDDz8cWWK+9rWvNYR5KSGkm7344otm0qRJ5tvf/rbp1w+Pmw1pADKFAAQg0IUEEEJdCLuaW9UqhNLrgtw901Pi3HmEkCPBFgI9h0BPFUJd0ULlhFBX3J97QAACEIBA1xFACHUd66ruVIsQqlYEqUBdIYSmT59uNJ9entXc9KF58+aZ5557zmiKkawpyy23nOnVq1dFjLQGSX/y4LT22mubJZZYomS6cmuEtM5H5ejbt68ZOHBgyTymTJkSXVPZfe9wur/+VG5Nj/JDVp2nTZsWTaGTU4lNNtkkkZef1u2LmfJR0HqkPn36uEuJrSuHFusPHjw4vqa351rYreCXXfXWIn/Ve/XVV6/YmqFy6234hAkTIgcRn/vc54K9FVeZXn/9dfPuu++apZde2nz+85/vlE9cUbvj+oQYL7PMMmbllVdOsPDjan/WrFlmzpw5kWXBMVNfePPNN6M/eSRTvxwxYkQ6aXxcaf/RfcRMa+hGjx4dlS2EYwW1xxtvvBF5rmtvb4+YufJWI4Q+/PDDKJ9PP/00YqcylnseYgAZO2IoLgri6uo5ceLE6B6ynmodYfpZlye4V155JXoe11133ZJtVyr/jKKUPaXfHbWJPMCpr+hPz4NCOSFU6rcgfTNZC1Uf/V7I+UL69yEd3z/WM6B+qD662mqrxbxKPc9KW6o/P/XUU0Zs5SxjscUW828T7et5kRMI/U7omdOzVyqUur8cSzz99NNROfXMOI4uH/UHsRaTddZZxyy11FLuUtlto56bsjflIgQg0HIEGiWE5EGsYAdyBfsfV8H+oBXsgK5gf5AL1t1wwQ54CvY/icJLL71UeHXCm9Gf/ZEleATWO2RGIetvr/NmZZ5X3CcmzPdyKO6ef8fckvGVJlSwg5uCfXoK2qaDHQRE1zbbbLOCHYAUrBe36Fjx3Z/S3XXXXemkieO//vWvhQ022CBO46c94IADoj6WSGAPbr/99ji+dZaQuPyFL3whumbFQOK8f/Daa6/F6ceOHetfKuy1117xNTuQSFzz62zFQ8EKnziuyv3+++8n4mcd3HrrrXGaa6+9NitKdG633XaL49kBURzPCs34/Mknn1zQsfVwFp9z/Oy6h4LqWSrYwWJh991375BO6dUedqpSqaSdntdvwoEHHpiZt8pqpx6WzcMuli+st956menVPnbtTmb6HXbYIU6j36mrr766YN2gx+ccmz333LNgB3qZebg+LwZZ4YUXXiiIrcvL326++ebRb2FWukrOWU9whTXXXLND3ttuu23BDjoL48ePj69ZZwmZWT7//PMFu9YljueX7+CDD858njIz8k7691W/uPDCC6PfBD9v8dJvv4KeDb8tXDzFUT3SwXrDi8t7xx13pC93eqzfH+tEIs7D3U/P6wUXXBD9f+WeXessIZGfFSdxuqOOOipxTQfWk2BBz5lL7/LWVr8xVpx2SOOf0POp30g/nfbVztYrYUHt5a6ddNJJftIEQ/0G7LLLLnFcpbnhhhsS8fXcqEwuP7fVM6DfUvtyJRFfB+nfk0cffbTDs6f0+p1W0P/51rlEh3vouXFxooipfxr53KRuxSEEIACBWIfo/yVpE2kUaRWNT/Q7Jg0jLaOxgrRNpX8IoTo7V5YIkqhRyBI3tYigrhZCEgNZ/9G7/4S1LfUfpAZ+frysfQ2INbDyQyVCaJVVVvGTJPbt29L4vscdd1zimgbJrhz2TXHimhsMaTCvQZ2L57aVCCENVlz8ckLIH/TYdUtxOZ599tk4/T777JM50Hf5a6sHPx2eeeaZTtMp7Y033phO2umxBmx2rUVcRr8s/v7ZZ5+dmZcvFP34/r7Yp0WqMvPFuHWBXrYMKqMGuelQTgj5A3a/PP6+0jtBkM673LEEhp9Pel9979e//nUcJ0sI6TnJEn5+XmKkH/5qwnnnnRffV2LBz8/f171Vd8fQv+b2dc1+pylxe73McNf1bFcT9B9ZKeHn8rRusWMhkxZC1voW3/vII49M3FrPf9Zz7vJ1W6XTf6LpYC2anbbH73//+/j+v/nNbxJZ+P15//33j+O5+/pCKOu6i+e2qrtEox+q+T2xTmQ6ZZ0lZBv53Ph1YR8CEICAI+AMMgghR6RJtmkh5ESQK54vhtLXFEfCKJ1H1rHLr96tG9Bomw5OFLj/ZPU2XG/g9YZRgxn7PZb4P26JEqlvP/zrX/+KrysPDfwlDDTAkzjx32zqDbwfulsIuTrrra4sShq8a1CS9cbVL7f2QwohVw697ZWo1KBGg0p/MPzTn/40XYSCdVEcs5eI1UBF7fb4448XDjrooPia2lgDzUqDBtg777xznF5teOKJJ0bWpauuuqqw4447xtdUdg2s/KC30a5O2kqUqk/o/CmnnFJw1j5dU39L9yl/4OjykaVAzO+9996CBsQ+G9U1HVyf1wDYD3qD5Pd5DTyVr35k77777oJ15x6XfZtttvGTdrpvp9clyqU2kSVD7XHOOedkWvzSQkgDXJ+PyqB2FTvrBj7xPB1xxBGdlsmP4AshcRVDWYmefPLJqH30fDvebqtnVm1np2t26JNpK2w9Qsi3TjixqPbQ85BllaxGCImbq4/qqDrbb4sV9CJBQtvvD6qnHySi/PbQC53TTjstalP9TvoWX3ePckJIcXQ/+x2piOvNN98cv+Sw3i3jciqeLFjq79YJRBTX/y1Nv4DwhZArh9pH/Ua/s36/dtf1jPzxj3+M2lbPgG+R1osxPzTyufHvwz4EIAABnwBCyKfRRPtp0ZJVNAkgTZXLCun0pY6z0tZyzg0KOxNCeiObfruuQao/QNIUEBcU1x+Q2m95uEvxVgM7d3/9B6yBugvNIIQ0ENd/8tWG0ELo1FNP7VCEV199NR4YafDkB1mI3ABOg1U719+/HO3bbyfF6e06gQ7XS53Q4N0NltS+dl1Eh6ga2Ls4mj7lQrpP6E15Osik7fepdJy0EEpPm1R+GsS6+2urAZ8fXJ9LC6Hrr78+Tnf44Yf7SaJ9ld9N5xPfagSkP41M/SptsZGVzX+xoHKnhZBvydSUx7SFIi22qmlXXwipbhpg+0Ht7DPVYDj9bEgouDgaXPuhViHkT+tS3lnTOf3nTXGqEUJOyKgv2/VQfpGj/b/85S9xndSv/fDb3/42vqYXJmnrsuJqKpxjom05IaR+n1UG5eNeXqhtJJDSQZZCd5+0SE8LIYk0P+h33Bc6WSzsOrTEb7X/f0Ejnxu/nOxDAAIQ8AkghHwaTbSfFi6lBE9WkcutI0rnm5W+lnNuUNiZEEpPdXH38qd9yGrigt5Wuv+YNTBJD/z8eBqs608WBReaQQhlTTlz5Su39Qdm9U6N0+CoVNCA2jH+5JNPSkXLPK91XS7t+eefnxkn66S/ZkrrH7KC2loDdbWp2t4JBq0bcveUxSo9kHd5+YNfCQ8/+EJIwqBUUJ3cvdJvyF2fTwuhUnn558eMGRPnqzURlQb3UkDbUm0lIePKrK0vhCRm3TX1iVKWSX8q6kUXXVRp8Qq+EMoSgcrI72/2WzyZebt6asDuh1qF0GWXXRbXW8KjVDjssMPieNUIoVL5ufMSe467rJ1+kOBw1/RiIiuoj/vW2XJCqNxvRVbe6XNOzKTZ+0Io/Ty5PPSyxdUly4qqeP5UXk09ribU+txUcw/iQgACrUUAIdSk7Z0WLDquRAz5U+ay8kifC1V9NygsJ4Q0uCkVtMbE/QfqD7zsBxTj8xpkVRu6WwhpqkmtIaQQ0uCjVHBvicW/moGJBme+UNV0nkqC3hy7ttZgq5SQKZWX3yc6E1+uX+p+/pt2XwiVWpem+2vthiurRJkfXN7VCiEJOn9Ap6mflQTrdSsui28hy0rrr73yhZC/vihdHz8f/1777beff6nsvi+ESq0b89eoSLRlBVf+9GC8ViHk93Hf4py+94MPPhgzDimEfAEqQeMHJ/qyfjv9eHK24PpiOSH03nvv+cmq2tezqf7s7uMn9oVQKZEjEebSXnPNNX7yeN9/fpVnpaHW56bS/IkHAQi0JgGEUJO2e1qwuONyYqhaEaQ8QwU3KMz6z1yDGf3nqMFNqeC/5ZenKRf8QVMpy4GLm7XtbiGUHkxllbHUuZBCSOtvSgXN83eDlywhpIGV3qhr4KxBkiwJrk1dOm0rFUKykLl05fpEqfL6fUID13LBXxzveyHzhVCpaUTKVyLN1VXTlvzg+nwpISRLj9aH6I2/3qArvsvL1V/bSoWQ/4xoMFkuyOubu4cvhPzpR7quQXipP5e+1Nv/rPv7Qihr+pnS+O1XyiOfnhvdX7z8UKsQ8i2Qpaxguo/K4+qdfnbfKOMsQWll9ZGFSyJBVhW9BHEix+WprS+E/GdBfbJceOyxx+KylRNCnb1Y0PX7778/WrOoOqpfZ5VTZfWDL4TSXutcPF8IZU29Uzx/ml+WEAr93LiysYUABCCQRQAhlEWlCc454ZO1zRJDlTpHSOcXqqpuUFhOCKUHFv69/UGeL4T8BfXlBqx+Xv4+QqjoorzUwEWsygkhTZHKGrz7Azu3X6kQ8j3xZTlo8Nsva9/vE3JzWS74i+C1YN8FXwjpLXi54NZ/pAeGrs+nhZCm9GkRuuPS2bZSIXTxxRfHeUoQlAuaxufu6wshf22Wu97ZNi1Gyt23WYWQG+hn/T6l6+N4pH+vygkhTWnz+4nLI2vrCyF/zZRcn5cLvjWvViGk9ZT+OrOs8vnn/PI0Wgg16rnx68A+BCAAgTQBhFCaSJMcpwVL+jgthtLXKz0OVV03KMwaaLiBdHpg4d+7lBDyF+N39p0hPz+3X68QkqcvNzCoxX12uTq7MpbaVmoR8oVBKffZtQgheSJzdddWC9dlWZKHMU0n0wBb0xhdnEqFkL7t49LozXm1wRc3aW9y6bz89Si+aPKFULlvKGlw5sqqga4fXJ9PCyF/vZvSypImr2KaKqT+KKcLOufyrVQI6S2+S5P2puaXS/v+c+MLId8ipLVXErql/jS1Tdc0/bHS0KxCSHV17PxnJF0vv2+mn91SQkj5ud843UMWlmOOOaZwySWXRBYi9VHfAYQvhHT/SkXaueeeG9ehViHkPw8qs6xXmnKnfiEPeuqLrl+rLn5otBBq1HPj14F9CEAAAmkCCKE0kSY5rkTIODGkbSXxs+KEqq77zzO0EPI9KlU60PbrVIkQKvfGW4MDN4DqaiHkfyen3FoYt7hZ5fQHeZUMXMSqlEXIPy/Xw1lBgsjxqbR9NNffpdHWOUHIyj/rnAaBLr0G3uWCG2Qq/rRp0+KovhAqNYVHkf2PaKadKrg+nxZC/jQs9Z+s4H/np1IhpA/bunp3No3KH/j7QshfA1NujVBWmSs516xCSK6kHTt5AywVJFpcvEqFkP8SR20v8ZwOcmzh8k0LIVmC3LWsqWLKS8+IyuPi1SKE1P9dem3Vn7KCpkK6eP71Sn5P6pka16jnxq8D+xCAAATSBBBCaSJNcpwlWrLO1SOClF+o4AaFoYWQb5XQgLPU/H69tdbgT/+Z+h8PLCeE/MGw3C1nBVlA3KCgq4WQ775ZA+esIAcA/tvokELIH5iU+gCsb52pVAipHv6b6VKewzT409Q5taviuwGmBvauTbTGqJSQ8vuOXEr7wW97WdRKBf/7MGm3x67P+0LIXxRfzlGG/72WSoWQyujuqTYvtShea6EcH219IeR7L1NeadfVPgd5eJQQLLWOx4/r9ptVCPlri9LPsSu7tvqWlGNXqRDyXxhcd911fnbxvn6TXL5pIaTvXrlrWn+XxdsXzopbixDyBZvWaWUF9SlXFm390Egh1Ojnxq8H+xCAAAR8Agghn0YT7W90xMyarTxZginrnO4RKrgBmrbp4Abq6YGFH8//T9pfI6SFvf6gUR8ETYcPP/wwnl6i/7z9Bf/lhJBvWUh/Z0b30FQYV3blmx5A+d9j8T2SKa1LV67OilcuSPS5QYnymzp1aiK62PiL4hU3pBCSCHH3zxqs+66zFa8aIeS/OVbdsqan+etsfK93Ej6uv+m+WdYqeT3zrUFpy5EvhJRH+rpAawqbq7+2aQauDL4QUjp3XvdP9wtd9+uVla/ilAq+62EJRP87LEojYZNeq+ILIcXZbbfd4nplfddLcfz1SKUGzYqXDs0qhPx1aWKeNc1Wbvf99k4/u/o9cNePPPLIuOqXX355fD7rGVA6/zcsLYTUZupDLm+JIX3IVt8e0lqvrA+V1iKEtMbS3SNdBlVG5fBdeSuuHxophHSfRj43fj3YhwAEIOATQAj5NJpo/6CLZzdcCOkeoYL7T0zbdKhEFJQSQspLC5FdHvrPWQMDzWu/4447orn4/iAj/RHAckIoPZDX4Ebl0J/e0vr31H27Wgip7v7HMbX2QAJCA3S9ec4aIIUUQlrT4gZOGtRLcGiditYu+d9bcXGyBoGqQ6ngr2NR/hJ1WpOiQbi/7kn5a42FHzQo89tH7a4v2KtsRx11VOJjqsrLWZNcHmkhpHvo+y6yHIixBv9+/kcffbRLGm9dn08LId+qoGlGZ5xxRtRmWluVtVA9LbDiG2TsSOC5+6rMurf6qqYoHn/88dH6FNcebpsWQrJ+qi+565paqTxkVVW/Egd3TVv/xUJGkRKnmlUIqZD+N25Ur7333jtatyUB5AtMV/dKhVD6u03qO2oP/Y5I9PqCXHlniRBZYvx2dWXwt5W6zy7nNU4iy+UpEaz+rt8TtZsvxlwcv3EbLYQa+dz49WAfAhCAgE8AIeTTaKL9F9+eX2ikVUh56x6hgvtPXNt0cAPK9MDCj1dOCCle+u28+4/a32pAJy9MfignhBTP/76In5fb9693hxBKi0BXLrfVwEYDK3ccUgjJAqU2c3lnbSWO3PlqhZAsO/76CJdPeutbCP229ddzpNO4Y02dmzVrlp8s2veF0Pjx4+M6uHT+Vnyzpt+5Pp8WQhIO7pqfj9vXwFiDZXdcjRBS4Z9++uk4rcvD3+re/nSttBBSHvo+UnqA7ufh9v2PGytdZ6GZhZAEQpbgcXXVVlMhS/1elbIIiYksOH4+6X2Jc3cuSwgpD1lF0y8AlEaWvyeeeCJ6IeTyqMUipHtoGqrLI2ure/nPvNK40Ggh1OjnxtWDLQQgAAGfAELIp9Fk+xIqstqEFETKS3mGFEHC5gZ+GpingxtYyIJRKugbQe4/5ksuuSQzmtzHZllBZBHSHPqsAa9v9bn66qs75CtLgQYpvlVJ5dAgUVNeNDhx5dIbdz/ss88+8TV/Ib7iVFJnP69y+3L7vNlmm8X3cuXRm/tJkyYlPJD5a6j0PQ4X93e/+13JW/gfOExPUVN+EoPpQbOmX0m8+t6w9M2caoOm42jQ7ni58upYAzIJ4HJBYsgfuPnp1SdKrf3yhZAGyHqDn+4DyktWqk8//TSzCO7tenr9kSJLkPsC1ZVLwk+MfffWaWtX5s1SJ+X0wHeS4fLXdE1ZF2Qdc+dKMZTILiUMdF4eE6sNcurR2X39dWVyIpAV3HOufuAHPcMu/6zpbX7crH31Nz3v6f6mtnRrC901PXN+0LPm7i2vcOkgwZ7uQ3pu1Bb6nXFpZYkpF1RGiQIJD/93xRfAaS+QvhWvnEVI91V/yLL+6HlRX/enx/nlrOT3xF8LpWcqK+i3yLFQnn5o9HPj34t9CEAAAiLQKCHUa+GPsSYZG7tv7Fx2Y7/XYeyiSGMHV9GxzvdpG2B/E41ZbfRK0ZZ/INAZAbvuwtg32lG/sgMYM2jQoM6SVHTdLlKO8l1qqaXMMsssY3r16lVRuq6KZK0Sxs7zj54d1XvgwIFddevoPmJuB65m2WWXNUsssUTQe6tu1iGDseu9zPDhw82oUaOq4m+/j2Lsxymj35bFFlssKmPfvn1LltFOUTN2Glh0Xb9Drq3VB6ybbTNs2DCz0kormfb29pJ5VHLBDoCNdV4QtZnqNHjw4EqSVRxH5bXCx/Tp08eMHj3a9O/fv+K0LqK1IkbsrAXQjBw50tiXGlF+7npP3Or/IitsjOqsZ33ppZcOVk0rvo11MmHUD8Wyd+/eZfNWG1oBEsVRWUr9ntlpbGbXXXeN4tkppMaKxbL5dnZR7a7fk7a2NrPyyiubfv36dZaky643+rnpsopwIwhAoOkJvDbxraiM8+fOjH6v9Zuo/0s1xtLvoo71O65xghsrVFIphFAllIgDAQh0C4FSQqhbCsNNW5rApZdeavbYY4+IgZ2aZuzaxw6ixH7fyFgrrLFrxKJ41lJUUjC1NEwqDwEIQKBKAgihKoERHQIQyD8BhFD+27Cn1MBO6Y2sj07k2GlrkbXHOtqIZlQ89dRTxq5diqxXqrOdXmnsB1B7SvWpBwQgAIFuJYAQ6lb83BwCEOgOAgih7qDOPUsRuPPOO812220Xi51S8exHcI11SGEGDChOKS8Vj/MQgAAEIFAZAYRQZZyIBQEI9CAC1lWvsd9piWqktUnVzPvtQRioShMR0FqhMWPGmHvuucdYRxZxyazDBWMdY5gf/OAHxn7bKz7PDgQgAAEI1E8AIVQ/Q3KAAAQgAAEIBCMgZw72+0Rm6NChZvHFFw+WLxlBAAIQgECSAEIoyYMjCEAAAhCAAAQgAAEIQKAFCCCEWqCRqSIEIAABCEAAAhCAAAQgkCSAEEry4AgCEIAABCAAAQhAAAIQaAECCKEWaGSqCAEIQAACEIAABCAAAQgkCSCEkjw4ggAEIAABCEAAAhCAAARagABCqAUamSpCAAIQgAAEIAABCEAAAkkCCKEkD44gAAEIQAACEIAABCAAgRYggBBqgUamihCAAAQgAAEIQAACEIBAkgBCKMmDIwhAAAIQgAAEIAABCECgBQgghFqgkakiBCAAAQhAAAIQgAAEIJAkgBBK8uAIAhCAAAQgAAEIQAACEGgBAgihFmhkqggBCEAAAhCAAAQgAAEIJAkghJI8OIIABCAAAQhAAAIQgAAEWoAAQqgFGpkqQgACEIAABCAAAQhAAAJJAgihJA+OIAABCEAAAhCAAAQgAIEWIIAQaoFGpooQgAAEIAABCEAAAhCAQJIAQijJgyMIQAACEIAABCAAAQhAoAUIIIRaoJGpIgQgAAEIQAACEIAABCCQJIAQSvLgCAIQgAAEIAABCEAAAhBoAQIIoRZoZKoIAQhAAAIQgAAEIAABCCQJIISSPDiCAAQgAAEIQAACEIAABFqAAEKoBRqZKkIAAhCAAAQgAAEIQAACSQIIoSQPjiAAAQhAAAIQgAAEIACBFiCAEGqBRqaKEIAABCAAAQhAAAIQgECSAEIoyYMjCEAAAhCAAAQgAAEIQKAFCCCEWqCRqSIEIAABCEAAAhCAAAQgkCSAEEry4AgCEIAABCAAAQhAAAIQaAECCKEWaGSqCAEIQAACEIAABCAAAQgkCSCEkjw4ggAEIAABCEAAAhCAAARagABCqAUamSpCAAIQgAAEIAABCEAAAkkCCKEkD44gAAEIQAACEIAABCAAgRYggBBqgUamihCAAAQgAAEIQAACEIBAkgBCKMmDIwhAAAIQgAAEIAABCECgBQgghFqgkakiBCAAAQhAAAIQgAAEIJAkgBBK8uAIAhCAAAQgAAEIQAACEGgBAgihFmhkqggBCEAAAhCAAAQgAAEIJAkghJI8OIIABCAAAQhAAAIQgAAEWoAAQqgFGpkqQgACEIAABCAAAQhAAAJJAgihJA+OIAABCEAAAhCAAAQgAIEWIIAQaoFGpooQgAAEIAABCEAAAhCAQJIAQijJgyMIQAACEIAABCAAAQhAoAUIIIRaoJGpIgQgAAEIQAACEIAABCCQJIAQSvLgCAIQgAAEIAABCEAAAhBoAQIIoRZoZKoIAQhAAAIQgAAEIAABCCQJIISSPDiCAAQgAAEIQAACEIAABFqAAEKoBRqZKkIAAhCAAAQgAAEIQAACSQIIoSQPjiAAAQhAAAIQgAAEIACBFiCAEGqBRqaKEIAABCAAAQhAAAIQgECSAEIoyYMjCEAAAhCAAAQgAAEIQKAFCCCEWqCRqSIEIAABCEAAAhCAAAQgkCSAEEry4AgCEIAABCAAAQhAAAIQaAECCKEWaGSqCAEIQAACEIAABCAAAQgkCSCEkjw4ggAEIAABCEAAAhCAAARagABCqAUamSpCAAIQgAAEIAABCEAAAkkCCKEkD44gAAEIQAACEIAABCAAgRYggBBqgUamihCAAAQgAAEIQAACEIBAkgBCKMmDIwhAAAIQgAAEIAABCECgBQgghFqgkakiBCAAAQhAAAIQgAAEIJAkgBBK8uAIAhCAAAQgAAEIQAACEGgBAgihFmhkqggBCEAAAhCAAAQgAAEIJAkghJI8OIIABCAAAQhAAAIQgAAEWoAAQqgFGpkqQgACEIAABCAAAQhAAAJJAgihJA+OIAABCEAAAhCAAAQgAIEWIIAQaoFGpooQgAAEIAABCEAAAhCAQJIAQijJgyMIQAACEIAABCAAAQhAoAUIIIRaoJGpIgQgAAEIQAACEIAABCCQJIAQSvLgCAIQgAAEIAABCEAAAhBoAQIIoRZoZKoIAQhAAAIQgAAEIAABCCQJIISSPDiCAAQgAAEIQAACEIAABFqAAEKoBRqZKkIAAhCAAAQgAAEIQAACSQIIoSQPjiAAAQhAAAIQgAAEIACBFiCAEGqBRqaKEIAABCAAAQhAAAIQgECSAEIoyYMjCEAAAhCAAAQgAAEIQKAFCCCEWqCRqSIEIAABCEAAAhCAAAQgkCSAEEry4AgCEIAABCAAAQhAAAIQaAECCKEWaGSqCAEIQAACEIAABCAAAQgkCSCEkjw4ggAEIAABCEAAAhCAAARagABCqAUamSpCAAIQgAAEIAABCEAAAkkCCKEkD44gAAEIQAACEIAABCAAgRYggBBqgUamihCAAAQgAAEIQAACEIBAkgBCKMmDIwhAAAIQgAAEIAABCECgBQgghFqgkakiBCAAAQhAAAIQgAAEIJAkgBBK8uAIAhCAAAQgAAEIQAACEGgBAgihFmhkqggBCEAAAhCAAAQgAAEIJAkghJI8OIIABCAAAQhAAAIQgAAEWoAAQqgFGpkqQgACEIAABCAAAQhAAAJJAgihJA+OIFAXgVmzZpspU6ebGTNnmXnz5plCoVBXfiTON4FevXqZvn37moED2s3QIYNMe3v/hlaI/tdQvLnPnP6Y+ybMdQW6uv/lGhaF7zICCKEuQ82NejqBDz78xHw2ZWpPryb1q4PAsKFDzJJLjKwjh9JJ6X+l2XAlmwD9MZsLZ7uGQCP7X9fUgLv0BAIIoZ7QitSh2wm8894HZsaMmVE5BrT3M/37tVlLQJ9uLxcF6H4C8+bNN7PnzDUzZ82JCjNw4ACz3DJLBi0Y/S8ozh6dWVf3x0cnDjQvvNNuPpza19hHwVgjqbWUs21FDr1t2y81dJ5Zc9lZZqNVZzTs97BHP8BULjgBhFBwpGTYagTcm/g+vXubIYMHIIBarQNUWF8NQKdOm2nmL1hgQr4Jpf9V2ABESxBodH+cPL2PueHJYea9T/va+2qKsB0Fx4HjVuexzPD5Ztv1PzMjBs0P+nsYdzF2IFAhAYRQhaCIBoEsAlqT8fY770eXhg8dhAjKgsS5mIAGn59OmR4dr7Dc0nWvGaL/xWjZqYFAI/vjRQ+MNO9aEST542QP26L8gUORw9LD55mfbfpJ1HND/B7W8AiQBAIGIUQngEAdBNzbeE2HGzSwvY6cSNoqBKbPmBVNkwthFaL/tUqvaVw9G9EfH50w0Nz94iAUEIqnU+X3nbWmR9PkQvweNu4pIeeeTAAh1JNbl7o1nMCbk941c+fONViDGo66x9zAvYVva2szo1Zctq560f/qwkdiS6AR/fHCB0YsnBIHYgiUJ7BMZBWabEL8Hpa/E1chkE0AIZTNhbMQqIjAhNcnRS6yFx85tKL4RIKACHz0yRS7aLyXWXWVFesCQv+rCx+JFxII3R9PvHVxs2DBoklxBTs5rpc3SY5jeLj+0Md6UDhqiw+D/B7yQEOgFgIIoVqokQYCCwm4BwghRJeohoAGngqrjV6pmmQd4tL/OiDhRA0EQvfH429eIukLIF0mN2Usfd4dc72l+B2z5YdRy9f7e+i6D1sIVEPA/T86f+5M09s6vZJ1sn///mbgwIGmX79+0bHO6+Wl/ioNvRYsWGC/JWnf+9g/ux9NH5ozZ451MTzDzJ49OzrW+T5tA6I8eQAqRUu8ZiLgHiCEUDO1SvOXJfTAk/7X/G3ezCUM3R/H3bx4M1eXsjUZgTFbfRSViHFgkzVMixTHjeMQQi3S4FQzLAH3ADEQDcu1p+cWeuBJ/+vpPaax9QvdHyWE/PemaQMPx0mDT6vzOAYh1NgHnNzLEnDjOIRQWUxchEA2AfcAMRDN5sPZbAKhB570v2zOnK2MQOj+OO6mxZIj/XQx0iN/ricJtBifMVt9HNUfi1CyG3DUNQTcOA4h1DW8uUsPI+AeIAaiPaxhG1yd0ANP+l+DG6yHZx+6P467ebHIOYJzisC26BwBDtkcsAj18B+YJq+eG8chhJq8oShecxJwDxAD0eZsn2YtVeiBJ/2vWVs6H+UK3R/H3TTSVnyR1zg+KORMPGyz+sWYrbEI5eOXomeW0o3jEEI9s32pVYMJuAeIgWiDQfew7EMPPOl/PayDdHF1QvfHeGoc4/6scT+6MNUvmBrXxQ88t0sQcOM4hFACCwcQqIyAe4AYiFbGi1hFAqEHnvQ/elY9BEL3x6JFqJ4SkbaVCIzZ+pOouqwRaqVWb566unEcQqh52oSS5IiAe4AYiOao0ZqgqKEHnvS/JmjUHBchdH9MCCE3Q87x4bhoEYJHkYDtD2O2Qgi57sC26wm4cRxCqOvZc8ceQMA9QAxEe0BjdmEVQg886X9d2Hg98Fah++PYG0d4U8LsSNd+T3DRkiGO4ZHsD8diEeqBvyr5qZIbxyGE8tNmlLSJCLgHqBkHovqA8e233x7T+vrXv24WW8y6tc1peOCBB8zkyZOjrzz/7//+b05rUSx26IFnI/vfG2+8Ye69917z9ttvm3feece0t7ebVVZZxYwePdp85zvfMQMGFD+KnesGCVT49957z/zzn/+McltvvfXMCiusECjnxmYTuj+Ou8kKoUXKx+6nFoVUcbztxu2mva36+k+ZUTC3/nN2sHKEqg/5OJPgoi1T46rv36QIR8CN4xBC4ZiSUwsRcA9QIweiteKUCPrxj38cJz/iiCPM4YcfHh/nbed//ud/zFNPPRUV+5NPilMp8lYHV97QA89G9D8N6E8++WRz3333uWJ32C6xxBLmkEMOMbvvvrvp169fh+utduLGG280e+65Z1Tts88+O/H8NTOL0P0xsgi5Crvxbo3HVxw6NJJULnml2/kLjNnttCmLdIdLWGd5Yn3XZPmtvlwfc8AWA81pN80wb7w/35UuF/U/duvJUXlZI7So2djrOgJuHIcQ6jrm3KkHEXAPUCMGovVi2nnnnc3f//73OBsNWp9//vnIohKfzNEOQqhjYzWi/xXsNKbx48ebo48+uuMNS5zZaqutzAUXXGD69u1bIkZrnEYIvRU19FhrEXJ6o97tFYfUIYROnxKsHPXWo5Hpd/12u/nul4ovIk66doZ54e15uar3GIRQa/xANmkt3f+jCKEmbSCK1dwE3APUbELo/fffN2uuuWYHeJdffrn5wQ9+0OF8Hk4ghDq2UiP633nnnZcQQV/+8pcjq89Xv/pVM3z4cDNv3jwzceJEc+6555orr7wyLtRuu+1mTj/99Pi4FXcQQm9FzT72xuHBmv+KQ4dFg3pleMvjs83ceZpm13mYNqtg7npqTucRe0CMk3YfbFZYvE9Uk99cO928OGlermp17DafRuXFIpSrZusxhXX/jyKEekyTUpGuJOAeoGYTQuecc44ZM2ZMhOK3v/2t+fWvfx3tf/Ob3zR/+ctfuhJRsHshhDqiDN3/ZDHcdNNN4xsdcMAB5rjjjjO9eul9dsfwhz/8wRx11FHxhYceeihTgMcRevgOQsgXQmFsIL4Q+tmZU8ysuepEta85WjRXLEz5miG/k3Yf5AmhGVYICVJ+6nfsNkyN6+E/jU1dPff/KEKoqZuJwjUrAfcANZMQ0tSm9ddf37z55psRNi3g1qL2F154ITrW2o9VV121WZFG5fr000/NlClTosXmbhBejRCS1UIL+5VWUwKbbUF/6DUZofrfjjvuaO68886oDbbeemtz8cUXd9pPfvKTn5jbbrstiqc1aVobUy7I4YX+Bg0aZJZccsmSIqtUHnICoj693HLLVTUVT31CllJN39N9e/fuXeoWHc5/+OGHZv78+WbppZfucM0/Ua0QqoeF1sm1tbWZIUOG+EWoaT90f2yURagohCqzCNUEoopESw7rbYYM7GXe/O98o/VIlQa9U1hxiT5Rmv985K3lqTCDwQN6meGDehs/bbUWIZVhJVuGAf17mY+nLDAffFZFBWw5V166j3nn4wVmztwwbYFFqMLGJ1pDCLhxHEKoIXjJtKcTcA9QqIFoCF6PP/64+f73vx9lJe9qmr6kNR//93//F5078MADo7f86XtpEPzWW29Fp//85z+bFVdcMR0lOpbDgv322y/a1yD4F7/4hTnttNPMddddF5274YYbzLLLLtsh7RNPPGFkYVA4+OCDzfbbb5+IM3PmzGjgfdZZZxkNPBUGDx4cibhx48YZTb0q5yzh2WefNbKEPffcc+aVV15J5P3FL37RHHTQQWbLLbdMnO+ug9ADzxD9T8zXWGONGEmlgtn1N02dk1g99NBD4zy0IwFxySWXmFtuucU8/fTTZtq0afF1ta8E1zHHHBMJ1viC3fnjH/8YpRs4cKC55557on587bXXGlmdXNC0PfWl//f//p871WGrdXLKK+30QS8HjjzySPOlL32pQxqdUH/63e9+Z/71r38l+uOGG24YWVj1siEdOhNCtbJQv/7Tn/4UTU0Uy3322cfIi6LC9773PbPvvvuab3zjG+niVHwcuj82mxA67seDzUpLFqeOzbBT5g48f0oH8bLB6m1mv80HxsxOvm66edRuRl4AADZpSURBVOU/88wvtxxo1h1t3dbZMf/eZ39mjthhkBm9dF/Tt5hdFP8jKyYuvXumefr10lPS/t/6/c0Pv9Y/Eh+y1ShIRkybWTDXPzTL3PNMx2l8m63X3+z4jfYo7pk3Tzc7f3OAWXZkUcDPtiLkoykFs+Tw3qbNK4tE2QKb8avvzDMn2WlyLixvp87t878DzDIjepv+ba4ExatK85JdV3SGdbQwKyVuzt5niBk8oLeZ9MF888hLc8xO3xgQ1V1l/+/kBebiu2bWPRUPIeRaiW13EHDjOIRQd9Dnnrkn4B6gEAPRUDAkdNzajQsvvND88Ic/jN6EuzVDGnxKKKStJJoCJRGioH3lkxU0zU4L4xVuvvlms8kmm0SDX2c90MBRrpXTQYNZJ35OPPHEaPDm4sgCJGvCo48+6k4ltrLqOHGkC2mvcSeccEIkxhKJMg722msvo6mC3R1CDzxD9D8NtJ1QXWuttcyDDz5YMabZs2eb/v37d4gvl9t77723kVgqF9Qn1T9WW221ONrYsWPNmWeeGR1LxJZbfyQhpTh+mDt3rpGnRAmHckEvCX70ox/FUWRRlVVLz0C5IBEl0ecslopbTgjVw0IvMVROBQk390IgOmH/kVCSc5RaQ+j+eNxfhpUsiobgGkSXCunrVx42PF4jtOeZn5nZcwpVpdd9Vl+urxmz8+A4nydem2tOv2mRSJCV5dx9h8XiZuJ7882YK6dGRRz7kyFm1WWKSmPytAVmxOBsS6LqdKxN87pN69dPIuWUPYeaJawFqVx43Xp6O/6aaWauFSIu/Y82aTdbblgUQjNtvQf0SwqYWfZce+qcu8c7H883h19crIOfj7uetdX6q33PnWJ0LxcuPXh4JLRk/emXElCK85s/TzMveGuS0u3n8nHbrOvH/fCz6DJrhBwltl1JwI3jEEJdSZ179RgC7gEKMRANAWXq1KlmpZVWirPS9DAnePxpT1rbscMOO8TxtPPiiy8afWtIQUJGgiYdNODVYFVv9WX1eeaZZ0yfPn3qFkKyKl199dXR7TQo1gB27bXXNvqGzSmnnGLefffdRFF8IaQpfxJjLvzyl780WgulqVeaQnXZZZeZf/zjH+6yefLJJ83KK68cH3fHTuiBZ4j+J6vbGWecEeGQMHAD73r47LHHHpFYVh6yyslyoW8QTZ8+PRrMy5LoLESyLjohrvi+ENKxgqyCG220kfnoo4+MLI++IJgwYYIZOXJkMaL9V2Lm2GOPjY+d1USi+/rrrzd33313fE2iT+JPQWvofvazn8XXJORkPVI/f+yxx6L+6C66Fw3uuJwQqoeFL4TcvUaNGhVxED9Ngx06dKi7VPU2dH8cKyGkEa8LGlfXeHzFoYuE0M+sEIosFjXkt/t3B5jvrLtIrJ9oB/CygiictNsQs4KdKqYgS8svztNaJN3E9sMfDzGjFwqh6IT954W35pl7n5tthg3sHQmVYXaKnILSyto03Vp5XH2P2H6wWXulvtF1/fOGnUr31IS5dmqmMeut2hZNk3MXn7TnI4G2sH47SAh9tSiEXBxdWmAtOH1s+ruf1neSjNl4zX6xSHr2jbnRVDeJuQdfmBOd/+MB1uHEQv4Sc/c/NyeKs9iQ3uYra7TF64uU1z3PzDaX3DkzLv8lBxWFkK65IMHU1reXkRD72VlWxCwsr7te7fGx2yCEYnbsdDkBN45DCHU5em7YEwi4ByjEQDQEj6uuusrsv//+UVYaeP3+97+Ps7311lujgaROaEqRWwsSR7A73/rWtyJxo3OaSvSFL3zBv2z+9re/mV122SU6J8uQc8KgN+O1WoRefvll87WvfS3KUyJIosVfw/Txxx9H06fcGidF9IWQvmPj3vqXejP+05/+1Nx0003RPTT41ndvujOEHniG6H8SCpoSqSBHG7/61a/qQiQLiMSPgoT1/fffbzTNzQ+++FbbT5o0Kb6cFkKaWueEuiLNmDHDbL755nF/9b/bo/VlEgouaNqmpu35QWLHOQ5R3WWlVJ6yuDjrY1Y6TfHUdDQFWSolxly9SgmhelmkhZCsd5r+qnVPYiZxWU8I3R+P+4tEmUbeboRc+/bKw4quuFU/TeGyBruKwuGXTLFTt7QGZ1E5zvr5ULPYUKsgbJhup8j9/JxPzTYbDTD6aKsLJ1irzEtvL3I2MPYnQ2OLkOLc8PAs85dHrFBYmG+f3r3MqdbioylqChOsADn2Svv9Int9g9X7ml9tNTg6r38uv2eGuePfmgK3iMfWGw4w21vB48IxV1ir0vsSaL1M2pIz4b15ZtxV0yyHgllzxTY7dW+u3e9lTt59kZCTwPOdJez6PwONptgpaCrbwReqbIvur/toSqDElMLHUxeYA/8gYVLkdunBI+Kpd0p1/NXTovsOsdPlFh/aywo72yip/Ko9xiJkERK6jYAbxyGEuq0JuHGeCbgHKMRANAQHDY7cNCStjfjKV74SZ+tbc3QyS+hceuml0ZoLXc9aS7Trrruav/71r7psNCB0A7B6hJA/JcsXV9FNFv6jt/e+BcsXQhJ+Ekl6M66pdVnfsvEHqOWm/fn3bOR+6IFniP633XbbxZYzCUt9G6ieIOGjqW2vvvpqtBbH/7ivn+96660XWTR0zm9XXwhp2pdEbjqonBLCCpqqdthhh0X7Wt/k1g2pHk4oRxcX/iNro1vn49bSXXHFFUYWRQWJ51NPPXVh7OTGn4rpW1f9fuYLs3pZ+EJI7aQ1TyFD6P6oqXGRBWLheFvipdbjK7ypcdXU+ejLp0aODDSed/dfwoqg0/ay3yXSGN+GZ6z15Asrt0VDfh3f8eRsc8W9M+P4Gt9rapyzCH02fYH5xfgpietKvPJSfczxuxSdVshasvvpn0X3OGzbQeaLNn+Ft+wam/+7zE5V88rj9MMpPx1qllm49keuryVmVMYdvr5oapxE4D52jdJMa3Vy9XHpfYvWb661U9Wsxcrx/tXWgyKLlNYFnXLDdPPsm3M7pB9l10+dsGux/Fqz9PNziuVX/pcsnBqnOjxkLUx/uH1Gh/Tp8lR7jEVIdAndRcCN4xBC3dUC3DfXBNwDFGIgWi8IDTi1kFth1KhR0RQwf/2CzmuweP7552s3c6AnL1ZufY/edktgOGGh6Uirr756lFYL42+//fZoX//UI4T8QZ4vruLM7Y7WbXzuc5+L39T7A2Y/Xnpf4k9Wh2uuuSZe16QPhWqBfXeG0APPEP1P085kNVSQkwB/elgjWMmDmwSLxIuzwGirKWgKvhAqZenzBbLyUf9WkHVSfVJBU+hk6cwKmiY3bJgG7XbUaYPfF8ulk+CWNUrBv28pIRRFLPNPZyz8cmmNm9a6hQyh+2PRIhSmhL5FSOtUpK0qCUdcOsV88KmsFckgpwW7fDtpmVSM9z6Zbw69SNaSZCiuESpObbvqvpnmb/+alYyw8Gj8L4aboQunyP3szE+jdTb+uZOvm2aesyIkK3xl9X7ml1sNii7J8cIvzy9OFfvRJgPiNUKfSoSdVzyfzuPk3YfGU/tO/PPUip0XaHqdLEvfWKef2ehzRYuQLGV7n138ro/u41uEzr51unnsZVm0wobjfljkzhqhsFzJrTICbhyHEKqMF7EgkCDgHqAQA9FExjUc+Gs8JITkJCEd5LXLXy+TtbZAayK0hkJBAzvnjcofXPpvuxWvHiGkAaVzkqA1PVmL7nUPeRdznrKyhJAGtXfddVck3rReRAJI9UsHDSqdFSF9rauOQw88Q/Q/rctylob0tMp6uUjgylKpaZBqG2fBS+f7wQcfxMLbF0Ka1uh/38il07Q0N+VN4lYiV0GOE7Q2TEH39Z0wRCdL/OOvoysRpcNp3814JUKoFha+EJLnPK1ZChlC98dGCaE9rcDQupR6gy9ulNc8O4PugD9Yl/0zOubtxx139dTIk1zW/U+yYkRusRXOumW6efyVOcYXcU4cZaWVO+xz97PrqmwoWpSKQsQXQpoWJ2cMWaESISRHBz/YoL/5/AptZik7jU+iTet80qGcEDrATpn7xE6dCx0QQqGJkl81BNw4DiFUDTXiQmAhAfcAhRiI1gNVHrJkyXELzyvNS2uINOj1w7333mu23Xbb6JQ/Jcn/jk9aQNUjhOSm25U7S+C4svlrWPx4shbJglGpNziEkCOa3MpRgfOUlrb4JWN2PJLAlgVR3/bxg8SoPNH5Tg386+n9UkJIfdKtN/LTlBJC/hTRtBMFP316f4MNNjATJ05Mny57rDVF8ninUE4I1cPCF0K+Y4eyBaviYnAhdIOdZqUxtnSFrG1urlRiW9n1Kw8fGWWl6ux5xuTiB1WjfCpLn3X/r32+zfziB4vW7siBwP7jrbUlo3xjd9EaoaJFaO+zJpvp8k+Qcf//23Gota4U49306Exz3UMzrRBaVPYfnzI5M39Xvj/ZeioI2U9+90nEryiEBkTnH7PC6uybrev5mOfCyPa4gxB6y1qePP5yef39L7dHDhaizFL/RM208FwkhGw9XfpLDxkZrxH6cVQu156L7p/kVv11hFCqQTjsUgJuHIcQ6lLs3KynEHAPUHcLIa0H8t3nauF5ueCEh74b46wxLr4WYMuDlpuuJM9z+nPrjbI8ivlCqNT3Z3xHC777bC0811tyhXIWIX99ki+EfvOb3yTWcqjucr4gd+HyPCcvYxqouzUqCCHX0smtLyp0RU4q3JSxZMzkkb7/5ASQLJGyWMjZhRwEyHLh+pFSScyss8460TRHOexYd911I4uOc4QRSgj5H3ktNd0yWYvikS+g5FRjxIgRWdES54YPHx5bTUsJoXpZ+ELo4YcfNp///OcTZaj3ILgQ+ovWm2gk7oI/1Na5yo99q8oii1Dl6YslWBRfLqjH/2JYB2vI7U/MMlfa9UHp+L5F6PCLp9gPicoBw6L8XPyTdx8WT0/7/V+mmn9PnGcuP2RELD52P22ymaukUUimH2pn6o3/RbGvyTq122lWCFl+vkVI3/A596/O5XcyfQchNMk5e7CWdOt+e3s7xc4Pco/9oZ02OMl+0PVxO9XtfetU4pQ9ixapokXICqGF7eemxumOP5GYi0Ly/lk8XPpK4iOEFmJl0y0E3DgOIdQt+Llp3gm4B6i7hZA/8JMLZImGUkEDU//DmVrrIwuAH04++eTIyqJzcmut9UfOFbE/Xc6l0TqJiy66KDrUBy/dN4vcdW31bSP3bSJfCPmDvH//+99Gg+msIBfZbsDshNBnn32WcIWtwau82rl1Ji4f35WypoAdfvjh7lK3bEMPPEP0vwXWJ68G2E64XH755eYHP/hBp3z0LSlnVfTXlflTNWU1UX5OMLlMJbqXXHJJdxh976pfv+JaBX9qXLUWIfVVtbmCBLjEcFaQl0V5XZNVUlPc1DfcN7iynousPPxzpYRQvSz8ZyQPQujYG/QipiiE9K+GzS4UjxcNpDu7LktJMSe7rtFahIrfEao8fTr/cZ6FRw4ItE5GQTkec/kU84b12FZciVS8qx//nFutQxYrSPzrLv8/7K81QsXMJGTmWsdvWiM0zE57UxhzxRTrUc46MbD76fRy2PDr7YvOCiRS9jxjoRDadIDZynqVU3j4RQkh60QhI/3JeywSYSdeM9V+10freIrlv+SgEfEHVLUOauyfppgpMzW9rXhd/35jnf5m7+8X1yj597eXzGULLULiI4tQ1v11zYVarh+3bXHKH2uEHEW2XUnAjeMQQl1JnXv1GALuAQoxEK0Vyn//+9/EG+JKpgJp4KoBrEKWhUd5OAuQRJbWdujNuga6muKTFhr+QC1LKOk+/reCfCEkl82a9qZQypHB66+/Hrn8jiLZf5wQ8j/SKsuSnCJkBX/dUynPdFnpGnWuGYWQ6qpvNp100klRtfWdKIlaWTxKBVlwJFCdeDrqqKNiJwX+VEo5NZB3uHR47bXXEiJc34tqby+6Eq5HCPneD51r7PS9dawXAq7sskbKkYibHvjzn/88ZpFOq2dHU/70za5tttkmdr5RSgjVy8J/vvIghI7T1DgXiiNjd1Qcf3ccOZe83nFqnE1cRfqFI/co/83WbzdyJ+3CcdbN9Z6bDYotOdOso4B9z5kcfafHxfGnxr36zjwz9iq7sD91/1WW6muO31Uuw020hklT+BROsOdWXro4XU6OEk6+1g74M3iM/bGdfrdsMd4b/51njr7M3sOGH1khtOVCIfTIQiGUld63Rp1k7/H8QqcMI+13gs7ed9Hzu8fpk80c69UuXf59rAjaZO2ii22twXLlVxnc1DhV2U3ZS6ev9/i4HyKExJrQPQTcOA4h1D38uWvOCbgHqDuF0HnnnRcvEt9iiy3iReLl0PrethTvlVdeiUSOn8afJuTOy5Kit+bp4K8v0cdM5XHLn1blWw2U1hdCvujStLZHHnnELL/88vEtZKmQkHHffNEFJ4T8KYFaI6WF8b31pUIv+N9W0mm5R3bWLS9al+42qxDSNDetk3EfsBVTWQT97zo5UBKn8l7m1v+o7TQtcumll46i+Ba89IdHFUHOLdRfnZVP5/y1Z/UIIXlh862SWdPj/H7hXFL7LrVVnrQLep2TZ0UJG5VVwXc1XkoI1csib0KoaBGK8NT9z58OXywa+yujn1pLSa3OEpYY1tucsbf9JpGEiA0PPD/b/OG2aWb4YCsW9lk0he2J1+aY024sDswVb9wuw+I1Qjo+9srPzGvv6js/xWA/I2R+/7PhZqkRRUcJE+y1MTaOgjyxHbBlURRKSJxw9ZSF3yiKLkf/rLtKP3P4douE44V3TDf/eKbome5Hmw70LEKzI4vQopSL9k7cdVgsuP7492nmvme1kMnYbxv1sXVeJITSZVcclXF/W8aFWKKPwu5xuixSxVC0CPWKtM6Pf/exOx10O3Zbu/bJBixCQbGSWYUE3DgOIVQhMKJBwCfgHqDuEkJyFCDLjVvgre+gOLe+fjnT++l1QMcff3xksfHj+QNFd77U+h9fzCjuTjvtZLbccsvIcqQ32PqejB98IaTz48ePj1wXa18Dak1r0oBcA1pNd7vtttt0KQ5OCPkfqtTF/fbbL/rekLyEPffcc5GHPDlS8IMsXBJu3RmaVQiJib55IyuHH/QtHq33WWqppYwskJrCmP42j1xvb7zxxnEy33ObpjtKfMoDodanqR+pjZ955pk4vna0lkvT1BTqEUJKr36j7/0oqE/pm0ByL69nRh9n9cWwb7GS0w3f8Ybi6ZtEsoLK46LqrRcHCqqXxHdbW/FbMaWEUL0s8iiE3MA6ywSiqWGVXr/SE0JyamC/JVpxuOpeuXvWepmCOdOKncUXfkxVlp99zv4kWuOv8v3vBu3mx99aZCk6/aap5olXi26ix6aEkG6v9USPvjjbLLd4H7OjFSsSUwq6dtiFn5l3PylOgdO53/50uFnexlPQ9Qeem20efGG2kYDa1Fphvr5W0RKj65HFyU5dc3wkhBZZhJwQkihJ8vu/HYdEbrCVx2zrYvx56yzhTTvFTx9+vfzQxeLpf1NmLDB//ecsc99zs8znlm8zG65h3Wav2d9ri+JHa3c51a4PVGY2XHrIYpGzBJX9J5EQ6nj/tIkpXb7OrjM1LkLNP91EwI3jEELd1ADcNt8E3APUXUJIA0r34UgN9jTVqJT76TRpfx2QpkFpUOpPeZs6dWo09cel68yTmD/9zKXxt5qO5wbPaSGkeP5g0U/n9lU/5+TBCSFd8weJLm56K1fizqKkweuTTz6ZsFil4zf6uJmFkOqufiUrieNdjofaRd/5kfD1g9befP3rXy+bh6Za6qO8EhMKvuWoXiEk69aee+4ZWXX8cqX3054TlU7T4tyHg9Px3bHKfscdd0RiyJ0rJYTqZeH38TxMjTv2ervepJcdSie8sNV2/KdfLx4Pyh3nSrc3PjIj8t62m50Ot9n6ixwGHHvlp9aqY70SeOU75WcjzHKLFQXL3PnFKXIzZi0w43YdnrAIlbv3lf+Ybm6zIsnPd8kRfc1vdhtmBvZ30iI7h4l2/dAxl1u32R63DhahWzW1riPHLb7abnb6RnGNj8tdlrOfnv6x2WHTQWbrjRbV3V33txJPffv0igWTyjHx/SKfy6yQarPXJIR+/NuPMu/v1zerfJ1dxyLktwb7XU3AjeMQQl1Nnvv1CALuAeouIaQ1NZoap6BBn9Z4VBrS626yFof7LqtlRZE1pVSYP39+9JZfb+L9AbREltYH7b777vFi+ayPQsoFuM4rvR+UXtYDvcXXt2E08NbA0gV9NFUWJS1ITwd5v5NVQJYI/xsxmn6nD7R2V2h2ISQu+oCurILnnntuvI4mzUvOL/Q3cuTI9KXo+Nlnn40+cpr2TKg2lFMLrdeSNdF9F8f/Jo/vDbCUy2jlr6mYClnTNmX9kfMD9QG3FiiKbP9R39DLAN+K5a5pq+mdsga5aYL+NQklTbF00wDdNVnF9GFaBfVJrb9zoR4WKodz/lDNd5HcvTvbhu6PjZoa11k90tevf2hGNAVO1iAnQ2SNGf+34lQsP360nkbxFkaUVeU3f56SmBp33YMzrKBqj50iuPT62OkFf59unpqY/bFRWX/232KI+aq1wLj8XVo5bHhywhxz5s1TI73gzmu77cYD7V9RxLipfP51f//w7YaadVcpWiZ1PhIuC6ey7fzNgdZ99oBY6Lh00oGPvTzbnGd5HLT1ELPeqkVHJQ9ba5ccMyhcdrB1n22/N+Tn59KH2iKEQpEkn1oIuHEcQqgWeqRpeQLuAeouIdToBthhhx2Mpg0paP3EsGFFF6vl7qvBp9ZP6G/11VePxU+5NP61GTNmRINjuW/WYnYJoUrCrFmzIoEkV98amOveAwaUfxNaSb6NiBN64NnI/qc1WmoLOROQcwSJmFGjRkXT5Px1YOU4aTrdW2+9ZWRt0XojtWmlacvlW801CTt5P9QaMq19kkWnkjBlivX2ZcWaLKTyeqe/evpVM7BI1zt0f4wsQumb5PR43C7WIrTQkcE51iLziBUJ8gQnUaNpei+9Pde8Y91QVxqWGdnHrDOqzYqSXmbSh/PMyza9xFCIMMBanVa2jhtk0fqPLdPM2ZIvxSCrzir2e0irWOcNui7nDf+1brObIYzdrugWnDVCzdAarVcGN45DCLVe21PjAATcA9TIgWiAYtaUhb/+xv+wak2ZkShBIPTAsyf2vwQwDhpKIHR/LE6Ns0XWOFwWlhxv/alxkRB6yToiyHF9mrE9xm6LEGroA07mZQm4cRxCqCwmLkIgm4B7gHrKQFTWHL2p1/d5tKbnvvvuiyp+5513JtxXZ9PgbKUEQg88e0r/q5Qf8cISCN0fx1w/sBnH2zXpl+Mji1BxytnZt06JnCSgg8Lq27HbzYg6NBahsM81uVVGwI3jEEKV8SIWBBIE3APUUwai+tbL9OnTE+sptH7j2muvTdSbg/oIhB549pT+Vx9VUtdKIHR/PNYKobBD5e6THuN2GeFNjZtip8ZpHVD3laencPXrwdS4Wp9c0oUg4MZxCKEQNMmj5Qi4B6inDET9Dz+qMbUWRB8tHTFiRMu1bSMrHHrg2VP6XyOZk3dpAqH745jrrBDK+ZQ4V/7j5TVu2YUWoVusEGJqXHAdOA6LUOmHkysNJ+DGcQihhqPmBj2RgHuAespA9IILLjDXXHNN1FTf+973jNYGrbDCCj2x6bq1TqEHnj2l/3Vro7TwzUP3x6JFqGcA3XLDgebLqxW9qV1oP1YqBweEsASYGheWJ7lVR8CN4xBC1XEjNgQiAu4BYiBKh6iGQOiBJ/2vGvrETRMI3R/HXNec3hrT9ea4OQiM235mVBDWCDVHe7RaKdw4DiHUai1PfYMQcA8QA9EgOFsmk9ADT/pfy3SdhlQ0dH+MhNDCqXFyviInLG6qGcfwSPcHLEINeazJtEICbhyHEKoQGNEg4BNwDxADUZ8K+50RCD3wpP91Rpzr5QiE7o9YhMrR5lqaABahNBGOu5KAG8chhLqSOvfqMQTcA8RAtMc0aZdUJPTAk/7XJc3WY28Suj8ihHpsV2lIxRBCDcFKphUScOM4hFCFwIgGAZ+Ae4AYiPpU2O+MQOiBJ/2vM+JcL0cgdH885tp2+z0y61xMM+LYwqGTfjBu+1lR92SNULmnlGuNIuDGcQihRhEm3x5NwD1ADER7dDMHr1zogSf9L3gTtVSGofvjmOvaW4ofla2PAEKoPn6kro+AG8chhOrjSOoWJeAeIAaiLdoBaqx26IEn/a/GhiBZRCB0fzzm2v4236K3hF52W/A+QMoxPNL9YdwOWIT4Keo+Am4chxDqvjbgzjkmMOH1SZFHJAaiOW7Ebii6Bp7ynrXqKivWdXf6X134SLyQQOj+OPb6djPfToeKg/ali1zgGB4L+0Of3sYcu+2sIL+HrnuxhUA1BBBC1dAiLgRSBN6c9K6ZO3euGT50kOnbt0/qKocQ6Ehg3rz55tMp001bW5sZteKyHSNUcYb+VwUsomYSaER/HH9XP/PuZF/5ZN6akxAwy44omH2/OyfI7yE4IVALAYRQLdRIA4GFBD748BPz2ZSpZkB7PzNoIPPi6RidE5g+Y5aZOWuOGTZ0iFlyiZGdJygTg/5XBg6XKiLQiP740Ct9zJ3P9PUmxLmJcmyLEwbh4Dhs9sV55utrzA/ye1hRhycSBFIEEEIpIBxCoBoCs2bNNm+/836UBKtQNeRaM657+67ar7Dc0qa9XWspag/0v9rZkdKYRvbH8Xe1YRWik5UlULQGzY3ihPg9LHszLkKgBAGEUAkwnIZApQTcW/k+vXubIYMHMEWuUnAtFk+DzqnTZpr5CxYEfftJ/2uxjhSouo3uj59M62X+/GhfK4bsIhBsQ5aBs4GwVX9YdoQxP9porhk5uBD09zDQ40E2LUQAIdRCjU1VG0fgnfc+MDNmzIxuoGly/fu1IYgahztXOWvAOXvO3Gg6nAo+cOAAs9wySwatA/0vKM4enVlX98eHXu5jnpvUy/z3s95m3oKClQNFr2lsW49D794Fs/QwY9Zecb7Z5HMLouesEb+HPfoBpnLBCSCEgiMlw1Yl4N7Mt2r9qXfnBEKsCyp1F/pfKTKcL0WA/liKDOe7gkAj+19XlJ979AwCCKGe0Y7UokkIaM3GlKnTzYyZs+z8+3mRa+0mKRrF6AYCcpHdt29fM3BAuxk6ZFDda4I6qwL9rzNCrX2d/tja7d/dte/q/tfd9eX++SCAEMpHO1FKCEAAAhCAAAQgAAEIQCAgAYRQQJhkBQEIQAACEIAABCAAAQjkgwBCKB/tRCkhAAEIQAACEIAABCAAgYAEEEIBYZIVBCAAAQhAAAIQgAAEIJAPAgihfLQTpYQABCAAAQhAAAIQgAAEAhJACAWESVYQgAAEIAABCEAAAhCAQD4IIITy0U6UEgIQgAAEIAABCEAAAhAISAAhFBAmWUEAAhCAAAQgAAEIQAAC+SCAEMpHO1FKCEAAAhCAAAQgAAEIQCAgAYRQQJhkBQEIQAACEIAABCAAAQjkgwBCKB/tRCkhAAEIQAACEIAABCAAgYAEEEIBYZIVBCAAAQhAAAIQgAAEIJAPAgihfLQTpYQABCAAAQhAAAIQgAAEAhJACAWESVYQgAAEIAABCEAAAhCAQD4IIITy0U6UEgIQgAAEIAABCEAAAhAISAAhFBAmWUEAAhCAAAQgAAEIQAAC+SCAEMpHO1FKCEAAAhCAAAQgAAEIQCAgAYRQQJhkBQEIQAACEIAABCAAAQjkgwBCKB/tRCkhAAEIQAACEIAABCAAgYAEEEIBYZIVBCAAAQhAAAIQgAAEIJAPAgihfLQTpYQABCAAAQhAAAIQgAAEAhJACAWESVYQgAAEIAABCEAAAhCAQD4IIITy0U6UEgIQgAAEIAABCEAAAhAISAAhFBAmWUEAAhCAAAQgAAEIQAAC+SCAEMpHO1FKCEAAAhCAAAQgAAEIQCAgAYRQQJhkBQEIQAACEIAABCAAAQjkgwBCKB/tRCkhAAEIQAACEIAABCAAgYAEEEIBYZIVBCAAAQhAAAIQgAAEIJAPAgihfLQTpYQABCAAAQhAAAIQgAAEAhJACAWESVYQgAAEIAABCEAAAhCAQD4IIITy0U6UEgIQgAAEIAABCEAAAhAISAAhFBAmWUEAAhCAAAQgAAEIQAAC+SCAEMpHO1FKCEAAAhCAAAQgAAEIQCAgAYRQQJhkBQEIQAACEIAABCAAAQjkgwBCKB/tRCkhAAEIQAACEIAABCAAgYAEEEIBYZIVBCAAAQhAAAIQgAAEIJAPAgihfLQTpYQABCAAAQhAAAIQgAAEAhJACAWESVYQgAAEIAABCEAAAhCAQD4IIITy0U6UEgIQgAAEIAABCEAAAhAISAAhFBAmWUEAAhCAAAQgAAEIQAAC+SCAEMpHO1FKCEAAAhCAAAQgAAEIQCAgAYRQQJhkBQEIQAACEIAABCAAAQjkgwBCKB/tRCkhAAEIQAACEIAABCAAgYAEEEIBYZIVBCAAAQhAAAIQgAAEIJAPAgihfLQTpYQABCAAAQhAAAIQgAAEAhJACAWESVYQgAAEIAABCEAAAhCAQD4IIITy0U6UEgIQgAAEIAABCEAAAhAISAAhFBAmWUEAAhCAAAQgAAEIQAAC+SCAEMpHO1FKCEAAAhCAAAQgAAEIQCAgAYRQQJhkBQEIQAACEIAABCAAAQjkgwBCKB/tRCkhAAEIQAACEIAABCAAgYAEEEIBYZIVBCAAAQhAAAIQgAAEIJAPAgihfLQTpYQABCAAAQhAAAIQgAAEAhJACAWESVYQgAAEIAABCEAAAhCAQD4IIITy0U6UEgIQgAAEIAABCEAAAhAISAAhFBAmWUEAAhCAAAQgAAEIQAAC+SCAEMpHO1FKCEAAAhCAAAQgAAEIQCAgAYRQQJhkBQEIQAACEIAABCAAAQjkgwBCKB/tRCkhAAEIQAACEIAABCAAgYAEEEIBYZIVBCAAAQhAAAIQgAAEIJAPAgihfLQTpYQABCAAAQhAAAIQgAAEAhJACAWESVYQgAAEIAABCEAAAhCAQD4IIITy0U6UEgIQgAAEIAABCEAAAhAISAAhFBAmWUEAAhCAAAQgAAEIQAAC+SCAEMpHO1FKCEAAAhCAAAQgAAEIQCAgAYRQQJhkBQEIQAACEIAABCAAAQjkgwBCKB/tRCkhAAEIQAACEIAABCAAgYAEEEIBYZIVBCAAAQhAAAIQgAAEIJAPAgihfLQTpYQABCAAAQhAAAIQgAAEAhJACAWESVYQgAAEIAABCEAAAhCAQD4IIITy0U6UEgIQgAAEIAABCEAAAhAISAAhFBAmWUEAAhCAAAQgAAEIQAAC+SCAEMpHO1FKCEAAAhCAAAQgAAEIQCAgAYRQQJhkBQEIQAACEIAABCAAAQjkgwBCKB/tRCkhAAEIQAACEIAABCAAgYAEEEIBYZIVBCAAAQhAAAIQgAAEIJAPAgihfLQTpYQABCAAAQhAAAIQgAAEAhJACAWESVYQgAAEIAABCEAAAhCAQD4IIITy0U6UEgIQgAAEIAABCEAAAhAISAAhFBAmWUEAAhCAAAQgAAEIQAAC+SCAEMpHO1FKCEAAAhCAAAQgAAEIQCAgAYRQQJhkBQEIQAACEIAABCAAAQjkgwBCKB/tRCkhAAEIQAACEIAABCAAgYAEEEIBYZIVBCAAAQhAAAIQgAAEIJAPAgihfLQTpYQABCAAAQhAAAIQgAAEAhJACAWESVYQgAAEIAABCEAAAhCAQD4IIITy0U6UEgIQgAAEIAABCEAAAhAISAAhFBAmWUEAAhCAAAQgAAEIQAAC+SCAEMpHO1FKCEAAAhCAAAQgAAEIQCAgAYRQQJhkBQEIQAACEIAABCAAAQjkgwBCKB/tRCkhAAEIQAACEIAABCAAgYAEEEIBYZIVBCAAAQhAAAIQgAAEIJAPAgihfLQTpYQABCAAAQhAAAIQgAAEAhJACAWESVYQgAAEIAABCEAAAhCAQD4IIITy0U6UEgIQgAAEIAABCEAAAhAISAAhFBAmWUEAAhCAAAQgAAEIQAAC+SCAEMpHO1FKCEAAAhCAAAQgAAEIQCAgAYRQQJhkBQEIQAACEIAABCAAAQjkgwBCKB/tRCkhAAEIQAACEIAABCAAgYAEEEIBYZIVBCAAAQhAAAIQgAAEIJAPAgihfLQTpYQABCAAAQhAAAIQgAAEAhJACAWESVYQgAAEIAABCEAAAhCAQD4IIITy0U6UEgIQgAAEIAABCEAAAhAISAAhFBAmWUEAAhCAAAQgAAEIQAAC+SCAEMpHO1FKCEAAAhCAAAQgAAEIQCAgAYRQQJhkBQEIQAACEIAABCAAAQjkgwBCKB/tRCkhAAEIQAACEIAABCAAgYAEEEIBYZIVBCAAAQhAAAIQgAAEIJAPAgihfLQTpYQABCAAAQhAAAIQgAAEAhJACAWESVYQgAAEIAABCEAAAhCAQD4IIITy0U6UEgIQgAAEIAABCEAAAhAISAAhFBAmWUEAAhCAAAQgAAEIQAAC+SCAEMpHO1FKCEAAAhCAAAQgAAEIQCAgAYRQQJhkBQEIQAACEIAABCAAAQjkgwBCKB/tRCkhAAEIQAACEIAABCAAgYAEEEIBYZIVBCAAAQhAAAIQgAAEIJAPAgihfLQTpYQABCAAAQhAAAIQgAAEAhJACAWESVYQgAAEIAABCEAAAhCAQD4IIITy0U6UEgIQgAAEIAABCEAAAhAISAAhFBAmWUEAAhCAAAQgAAEIQAAC+SCAEMpHO1FKCEAAAhCAAAQgAAEIQCAgAYRQQJhkBQEIQAACEIAABCAAAQjkgwBCKB/tRCkhAAEIQAACEIAABCAAgYAEEEIBYZIVBCAAAQhAAAIQgAAEIJAPAgihfLQTpYQABCAAAQhAAAIQgAAEAhJACAWESVYQgAAEIAABCEAAAhCAQD4IIITy0U6UEgIQgAAEIAABCEAAAhAISAAhFBAmWUEAAhCAAAQgAAEIQAAC+SCAEMpHO1FKCEAAAhCAAAQgAAEIQCAgAYRQQJhkBQEIQAACEIAABCAAAQjkgwBCKB/tRCkhAAEIQAACEIAABCAAgYAEEEIBYZIVBCAAAQhAAAIQgAAEIJAPAgihfLQTpYQABCAAAQhAAAIQgAAEAhJACAWESVYQgAAEIAABCEAAAhCAQD4IIITy0U6UEgIQgAAEIAABCEAAAhAISAAhFBAmWUEAAhCAAAQgAAEIQAAC+SCAEMpHO1FKCEAAAhCAAAQgAAEIQCAgAYRQQJhkBQEIQAACEIAABCAAAQjkgwBCKB/tRCkhAAEIQAACEIAABCAAgYAEEEIBYZIVBCAAAQhAAAIQgAAEIJAPAgihfLQTpYQABCAAAQhAAAIQgAAEAhLociE0c+ZMM3v2bDNnzhyzYMEC06dtQFSd1UavFLBaZAUBCEAAAhCAAAQgAAEIQKA0gbQQ6tevn+nfv78ZMGCA0X5bW5vp3bu36dWrV/RXOqfklV5W5BRsMPqT4Jk7d24kfhBCSVAcQQACEIAABCAAAQhAAAJdT6BLhZAsQbNmzYosQhJG8+fPtxahdlvrXmbVVVasSml1PSruCAEIQAACEIAABCAAAQj0BAIy1kx4fZKtSsHMnzvL9OnTJ7IAySLU3t4eWYbqsggJkqxB+ps3b14kgjQlTmLICaHeffpZHdTbjFpx2ejmPQEsdYAABCAAAQhAAAIQgAAEmpeAtMibk961OshqlflzYiEkEaRpcdr27ds3mhqn6XHVhGhqnBK4qXESQrIIOauQbq6/3n3arA7qa5ZcYqQZNnRINfcgLgQgAAEIQAACEIAABCAAgaoJfDZlqvngw0+sDppnhdDcyCAjC5CzBsky5ISQ1ghVExJCSGLICR83NU6CSOJI1iBZhQa09zfLL7d0NfcgLgQgAAEIQAACEIAABCAAgaoJ/Oed983MWbMja5CsQhI9Ej9uapxEkf6qdZSggiSEkKbGaT2QxJCmxjnLkI6jdUJ9+0eCCKtQ1W1IAghAAAIQgAAEIAABCECgCgLOGiQBNH/e7HhanBNCzmOc1g05r3FVZJ8UQm56nBNC/joh3yqkGyy3zJJm4MCiS+1qbkhcCEAAAhCAAAQgAAEIQAAC5QjMmDHTvPPeB1EUrQ1y1iA3LU4iyAkhJ4JqnhqnuzghJNHjxJCsQhJEziqkdUJaL6SAZSjCwD8QgAAEIAABCEAAAhCAQCACsSXI5qd1QVof5LzFSfzIIuREUK3rg1TUeGqcDiSE9KdpcBJDEkBuipyEkM7puullzU8LxZDWDA0ZMsgMHFD02FCtEtN9CRCAwP9v74yaIreBIMyl8sL//6lXCXlJiL+FpoSFbdnDqW+hVeXIHms0Uveso0brvSAQBIJAEAgCQSAIBIHviQD6Ap3x99M/Dz9//nV7JwgkEEEPz//e3v9B8LAb1AohbAikK+8H0f87IYSBgehntCV+1rtC3P/xB9/F+/P2zhB+KUEgCASBIBAEgkAQCAJBIAgEgTIC/FT2sgv0/N+LCFrvBukHEiq7QYzxQyEkMcTOkL4Wpxq1hh0xRDsE0Y/lF+U4lv/QZXnu6SAIBIEgEASCQBAIAkEgCASB74LA8o2zRVc8LwLodrwKIHZ6EEHtbhA7QhzYr74bJFQ7IcQNCaH2V+TYHdKBEJIYehNEy0DxSwkCQSAIBIEgEASCQBAIAkEgCJxBANFz22RZagSORE67G6T3giSC1OZMnLbtphCiEYOR6EEEca6vy7EzJKGkthJCqttArnON5bu9u8S8v9OcM1/XJ2xO3PA7B2dXlPDrQn5O3PA7B2dXlPDrQn5O3Bn8ar1KrXMJHa7ZDUIAqeYeh9qqvoLIh0KIjpg4B0W7PxJDXLdCSLtCao9Pe8717LKOXwFp9tg/Ix6coJK/S8l8vzbT4Tf8fiUEks9fic1+LuG3x+QrWcLv57K5Xp9zzfpV7/4QjfO1CMJO27U/9jNlUwjRicQEpHMuQUTdnnOPg3Yq8tX1zFqx2xrlSJFt5ngcseBHc3bEnx0z852N+Nx44Xcu3rOjhd/ZiM+NF37n4j07WvidjfjceL+a31bI6Gtu2BA+rGPRFtQcsukP/a3vVVR2hRCdSjhQczCg9mhttP+MQdHP1bIeL/1gA7wrRf1dmZfLl3ny4xZsI54trjFX4ma+4yxXcHb5ht/wu4WAKycrcZPPW2z29grOLt/w2/O4ZXFxVIkbfrfY7O1XcZYYoubgG2gSQrKxJr+yLu9HueiWRdQM/cKBJkStA0G0tn8UxGFbj/GKKGDcmt8VwF2+jJufPOcfmzpbXGOuxM18x1mu4OzyDb/hdwsBV05W4iaft9js7RWcXb7ht+dxy+LiqBI3/G6x2duv4CyBg75A/CB8+MM+Ndfc5/zKmrwf4YtlWAipA02MmoPB6Fxt3LXGoxpAr4gC5oEvBeDPFpcv43x6enp4fHw8O+TM9wRi4XccrApWREk+j2FdwdnlG37HuKWVi6NK3PAbfrcQqOSVyzf5vMVmb7/KkXQFNQdCiFpCSPY+4jXLaSGkMIiMtqyv23uOcwhgTKojhMZYuJq49O7yJXYWyqBwXFwcVeIyq/B7zC0tKji7fBl3+AWF4+LiqBKXWYXfY25pUcHZ5cu4wy8oHBcXR5W4zGo2vwgdxqwNCAkh7QT9NkLoI8p/FzHEOHQAJucRQh8x1tsqHxiXL7OY/UElZuYLCmOlghURwu+vx7nCUcU3/I5xS6sKzi7f8Bt+txBw5WQlbvJ5i83efgVnRA4FXwkhXvXAfhdCqIfBY5EIogbMCKFxHq4krnp3+RI/C2WxsF+7OKrEDb/7nLZ3Kzi7fMNvy+D+uYujStzwu89pe7eCs8s3/LYM7p+7OKrEdfIbIbSfT7t3I4QiDHYTpLlZeUC4fBl+hF9D4s6pi6NK3PC7Q+jqVgVnl2/4XZG4c+niqBI3/O4QurpVwdnlG35XJO5cVjmKENoB9+hWhFAWykc5ovvVDyr96MOqPkfqSlz6jxAaQTlfJRpD6aVVJScrvkRPPo8xVcHZ5Rt+x7illYujStzwG363EKjkFb5aW+WrcVsI79gjhLKw2EmPd7eqH1Q604f1XccHF5W4dJ2F4wHAr7crOLt8w+8Yt7RycVSJG37D7xYClbxy+Saft9js7S6OKnGd/GptFSHU59KhJUIoC+XDJHltUHlAuHwZeoTQGMMujipxw+8Yt7Sq4OzyDb/hdwsBV05W4iaft9js7RWcXb5OfiOE+hwatkQIZaE8miyuh0slrvPBRGw9nEYxpl3mewatfH5H0arklcuXueUPGWMMuziqxA2/Y9zSqoKzyzf8zuNXa43sCI1j/tYyQij/o31LhoMT18O0EpcpZSF1QOzr7QrOLt/wO8YtrVwcVeKG3/C7hUAlr1y+yectNnu7i6NKXCe/EUJ9Dg1bIoSyUB5NlsoDwuXrfDARWw+nUYxpV8EK/wg/UDguFZxdvswq/B5zSwsXR5W4jDv8gsJxqeDs8mVW4feYW1q4OKrEZdwufrXWyI4QLJwse0JICXGyy7trTuJc/Udk726yy4Az33tkbXzM4Xccq3tsGX7vkbXxMYffcazusWX4vUfWxsfs4neWEPofo/3cJgbZK4oAAAAASUVORK5CYII=;" parent="1" vertex="1">
          <mxGeometry x="110" y="170" width="298.59" height="290" as="geometry" />
        </mxCell>
        <mxCell id="AY_vWPn0ObJrJ9_MkCqx-3" value="&lt;h1 style=&quot;margin-top: 0px;&quot;&gt;Exportar a PNG&lt;/h1&gt;&lt;div&gt;Menú Archivo -&amp;gt; Exportar como... --&amp;gt; PNG&lt;/div&gt;" style="text;html=1;whiteSpace=wrap;overflow=hidden;rounded=0;" parent="1" vertex="1">
          <mxGeometry x="110" y="30" width="300" height="120" as="geometry" />
        </mxCell>
        <mxCell id="EVAPDRSPCtN8J9ncqs7S-1" value="SI TRIEM OPCIÓ &quot;Diagrama&quot; exportarà només la part que ocupe el diagrama sense espais buits sobrants.&lt;div&gt;&lt;span style=&quot;background-color: initial;&quot;&gt;&lt;b&gt;Molt Important: que ocupe el digrama només una pàgina&lt;/b&gt;&amp;nbsp;&lt;/span&gt;&lt;/div&gt;" style="rounded=1;whiteSpace=wrap;html=1;fillColor=#FF0000;" parent="1" vertex="1">
          <mxGeometry x="150" y="570" width="200" height="110" as="geometry" />
        </mxCell>
      </root>
    </mxGraphModel>
  </diagram>
</mxfile>
